<mxfile host="app.diagrams.net" modified="2022-12-16T11:42:42.916Z" agent="5.0 (X11)" etag="AFAtE3mlDx6CezIcbCO2" version="20.7.3" type="github" pages="2">
  <diagram id="EFU45zCrBcRfLharjm3L" name="Conceptuel">
    <mxGraphModel dx="2321" dy="1449" grid="1" gridSize="10" guides="1" tooltips="1" connect="1" arrows="1" fold="1" page="1" pageScale="1" pageWidth="1169" pageHeight="827" math="0" shadow="0">
      <root>
        <mxCell id="0" />
        <mxCell id="1" parent="0" />
        <mxCell id="C3EjMfT6K7pHPiDqoNdO-10" style="edgeStyle=orthogonalEdgeStyle;rounded=1;orthogonalLoop=1;jettySize=auto;html=1;exitX=1;exitY=0.5;exitDx=0;exitDy=0;entryX=0.5;entryY=1;entryDx=0;entryDy=0;strokeWidth=2;fontSize=12;startFill=1;endArrow=none;endFill=0;" edge="1" parent="1" source="XVg50m04V7IPDc87U8dQ-113" target="XVg50m04V7IPDc87U8dQ-86">
          <mxGeometry relative="1" as="geometry" />
        </mxCell>
        <mxCell id="D6gaMdaGB33uT7nynRI7-26" value="" style="endArrow=none;html=1;rounded=1;strokeWidth=2;fontSize=12;exitX=0.5;exitY=1;exitDx=0;exitDy=0;entryX=1;entryY=0.5;entryDx=0;entryDy=0;" edge="1" parent="1" source="C3EjMfT6K7pHPiDqoNdO-208" target="D6gaMdaGB33uT7nynRI7-24">
          <mxGeometry x="1" y="-230" width="50" height="50" relative="1" as="geometry">
            <mxPoint x="300" y="1610" as="sourcePoint" />
            <mxPoint x="67.5" y="1765" as="targetPoint" />
            <Array as="points">
              <mxPoint x="170" y="1725" />
            </Array>
            <mxPoint x="227" y="-195" as="offset" />
          </mxGeometry>
        </mxCell>
        <mxCell id="D6gaMdaGB33uT7nynRI7-20" value="" style="endArrow=none;html=1;rounded=1;strokeWidth=2;fontSize=12;exitX=0.5;exitY=0;exitDx=0;exitDy=0;entryX=1;entryY=0.5;entryDx=0;entryDy=0;" edge="1" parent="1" source="C3EjMfT6K7pHPiDqoNdO-207" target="D6gaMdaGB33uT7nynRI7-14">
          <mxGeometry x="1" y="-230" width="50" height="50" relative="1" as="geometry">
            <mxPoint x="137.5" y="1555" as="sourcePoint" />
            <mxPoint x="370" y="1400" as="targetPoint" />
            <Array as="points">
              <mxPoint x="170" y="1415" />
            </Array>
            <mxPoint x="227" y="-195" as="offset" />
          </mxGeometry>
        </mxCell>
        <mxCell id="D6gaMdaGB33uT7nynRI7-18" value="" style="endArrow=none;html=1;rounded=1;strokeWidth=2;fontSize=12;exitX=0.5;exitY=0;exitDx=0;exitDy=0;entryX=0;entryY=0.5;entryDx=0;entryDy=0;" edge="1" parent="1" source="D6gaMdaGB33uT7nynRI7-1" target="D6gaMdaGB33uT7nynRI7-12">
          <mxGeometry width="50" height="50" relative="1" as="geometry">
            <mxPoint x="-480" y="1420" as="sourcePoint" />
            <mxPoint x="-430" y="1370" as="targetPoint" />
            <Array as="points">
              <mxPoint x="-170" y="1415" />
            </Array>
          </mxGeometry>
        </mxCell>
        <mxCell id="D6gaMdaGB33uT7nynRI7-21" value="" style="endArrow=none;html=1;rounded=1;strokeWidth=2;fontSize=12;exitX=0;exitY=0.5;exitDx=0;exitDy=0;entryX=0.5;entryY=1;entryDx=0;entryDy=0;" edge="1" parent="1" source="D6gaMdaGB33uT7nynRI7-22" target="D6gaMdaGB33uT7nynRI7-1">
          <mxGeometry width="50" height="50" relative="1" as="geometry">
            <mxPoint x="-67.5" y="1765" as="sourcePoint" />
            <mxPoint x="-300" y="1610" as="targetPoint" />
            <Array as="points">
              <mxPoint x="-170" y="1725" />
            </Array>
          </mxGeometry>
        </mxCell>
        <mxCell id="D6gaMdaGB33uT7nynRI7-41" value="" style="endArrow=none;html=1;rounded=1;strokeWidth=2;fontSize=12;exitX=0.583;exitY=1;exitDx=0;exitDy=0;entryX=0;entryY=0.5;entryDx=0;entryDy=0;exitPerimeter=0;" edge="1" parent="1" source="D6gaMdaGB33uT7nynRI7-1" target="D6gaMdaGB33uT7nynRI7-35">
          <mxGeometry width="50" height="50" relative="1" as="geometry">
            <mxPoint x="-190" y="1610" as="sourcePoint" />
            <mxPoint x="-140" y="1560" as="targetPoint" />
          </mxGeometry>
        </mxCell>
        <mxCell id="D6gaMdaGB33uT7nynRI7-50" value="" style="endArrow=none;html=1;rounded=1;strokeWidth=2;fontSize=12;entryX=0;entryY=0.5;entryDx=0;entryDy=0;exitX=0.75;exitY=0.333;exitDx=0;exitDy=0;exitPerimeter=0;" edge="1" parent="1" target="D6gaMdaGB33uT7nynRI7-47" source="D6gaMdaGB33uT7nynRI7-1">
          <mxGeometry width="50" height="50" relative="1" as="geometry">
            <mxPoint x="-240" y="1710" as="sourcePoint" />
            <mxPoint x="-140" y="1700" as="targetPoint" />
          </mxGeometry>
        </mxCell>
        <mxCell id="L_SjfXFwUl33Ctqg6qsq-8" style="edgeStyle=orthogonalEdgeStyle;rounded=0;orthogonalLoop=1;jettySize=auto;html=1;exitX=1;exitY=0.5;exitDx=0;exitDy=0;entryX=0;entryY=0.5;entryDx=0;entryDy=0;strokeWidth=2;endArrow=none;endFill=0;" parent="1" source="uPJ5uowIPc4x0toajx6l-10" target="L_SjfXFwUl33Ctqg6qsq-4" edge="1">
          <mxGeometry relative="1" as="geometry" />
        </mxCell>
        <UserObject label="&lt;div&gt;&lt;u&gt;&lt;b&gt;USER&lt;/b&gt;&lt;/u&gt;&lt;/div&gt;&lt;div&gt;&lt;span style=&quot;font-size: 12px;&quot;&gt;(id)&lt;br&gt;&lt;/span&gt;&lt;/div&gt;" lucidchartObjectId="lu~Z3BZPFLyL" id="uPJ5uowIPc4x0toajx6l-10">
          <mxCell style="html=1;overflow=block;blockSpacing=1;whiteSpace=wrap;rounded=1;arcSize=50;fontSize=16.7;fontColor=#333333;align=center;spacing=3.8;strokeColor=#5e5e5e;strokeOpacity=100;strokeWidth=2.3;" parent="1" vertex="1">
            <mxGeometry x="370" y="354" width="120" height="60" as="geometry" />
          </mxCell>
        </UserObject>
        <UserObject label="username" lucidchartObjectId="lu~Z3BZPFLyL" id="uPJ5uowIPc4x0toajx6l-12">
          <mxCell style="html=1;overflow=block;blockSpacing=1;whiteSpace=wrap;rounded=1;arcSize=50;fontSize=16.7;fontColor=#333333;align=center;spacing=3.8;strokeColor=#5e5e5e;strokeOpacity=100;strokeWidth=2.3;dashed=1;dashPattern=1 1;shadow=1;" parent="1" vertex="1">
            <mxGeometry x="3130" y="-209.5" width="120" height="60" as="geometry" />
          </mxCell>
        </UserObject>
        <UserObject label="email" lucidchartObjectId="lu~Z3BZPFLyL" id="uPJ5uowIPc4x0toajx6l-13">
          <mxCell style="html=1;overflow=block;blockSpacing=1;whiteSpace=wrap;rounded=1;arcSize=50;fontSize=16.7;fontColor=#333333;align=center;spacing=3.8;strokeColor=#5e5e5e;strokeOpacity=100;strokeWidth=2.3;dashed=1;dashPattern=1 1;shadow=1;" parent="1" vertex="1">
            <mxGeometry x="3278" y="-209.5" width="120" height="60" as="geometry" />
          </mxCell>
        </UserObject>
        <UserObject label="password" lucidchartObjectId="lu~Z3BZPFLyL" id="uPJ5uowIPc4x0toajx6l-14">
          <mxCell style="html=1;overflow=block;blockSpacing=1;whiteSpace=wrap;rounded=1;arcSize=50;fontSize=16.7;fontColor=#333333;align=center;spacing=3.8;strokeColor=#5e5e5e;strokeOpacity=100;strokeWidth=2.3;dashed=1;dashPattern=1 1;shadow=1;" parent="1" vertex="1">
            <mxGeometry x="3427.87" y="-210" width="120" height="60" as="geometry" />
          </mxCell>
        </UserObject>
        <UserObject label="moderator" lucidchartObjectId="lu~Z3BZPFLyL" id="uPJ5uowIPc4x0toajx6l-15">
          <mxCell style="html=1;overflow=block;blockSpacing=1;whiteSpace=wrap;rounded=1;arcSize=50;fontSize=16.7;fontColor=#333333;align=center;spacing=3.8;strokeColor=#5e5e5e;strokeOpacity=100;strokeWidth=2.3;dashed=1;dashPattern=1 1;shadow=1;" parent="1" vertex="1">
            <mxGeometry x="3353" y="-127.5" width="120" height="60" as="geometry" />
          </mxCell>
        </UserObject>
        <UserObject label="total_report" lucidchartObjectId="lu~Z3BZPFLyL" id="uPJ5uowIPc4x0toajx6l-16">
          <mxCell style="html=1;overflow=block;blockSpacing=1;whiteSpace=wrap;rounded=1;arcSize=50;fontSize=16.7;fontColor=#333333;align=center;spacing=3.8;strokeColor=#5e5e5e;strokeOpacity=100;strokeWidth=2.3;dashed=1;dashPattern=1 1;shadow=1;" parent="1" vertex="1">
            <mxGeometry x="3203" y="-127.5" width="120" height="60" as="geometry" />
          </mxCell>
        </UserObject>
        <UserObject label="banned" lucidchartObjectId="lu~Z3BZPFLyL" id="uPJ5uowIPc4x0toajx6l-17">
          <mxCell style="html=1;overflow=block;blockSpacing=1;whiteSpace=wrap;rounded=1;arcSize=50;fontSize=16.7;fontColor=#333333;align=center;spacing=3.8;strokeColor=#5e5e5e;strokeOpacity=100;strokeWidth=2.3;dashed=1;dashPattern=1 1;shadow=1;" parent="1" vertex="1">
            <mxGeometry x="3055" y="-127.5" width="120" height="60" as="geometry" />
          </mxCell>
        </UserObject>
        <mxCell id="D0SpKXZhgsTwfj6XyVtu-55" style="edgeStyle=orthogonalEdgeStyle;rounded=1;orthogonalLoop=1;jettySize=auto;html=1;exitX=0.5;exitY=1;exitDx=0;exitDy=0;entryX=0.5;entryY=0;entryDx=0;entryDy=0;strokeWidth=2;endArrow=none;endFill=0;" parent="1" target="D0SpKXZhgsTwfj6XyVtu-41" edge="1">
          <mxGeometry relative="1" as="geometry">
            <mxPoint x="1142.5" y="680" as="sourcePoint" />
            <Array as="points">
              <mxPoint x="1143" y="840" />
              <mxPoint x="1215" y="840" />
            </Array>
          </mxGeometry>
        </mxCell>
        <mxCell id="D0SpKXZhgsTwfj6XyVtu-56" style="edgeStyle=orthogonalEdgeStyle;rounded=1;orthogonalLoop=1;jettySize=auto;html=1;exitX=0.5;exitY=1;exitDx=0;exitDy=0;entryX=0.5;entryY=0;entryDx=0;entryDy=0;strokeWidth=2;endArrow=none;endFill=0;" parent="1" target="D0SpKXZhgsTwfj6XyVtu-40" edge="1">
          <mxGeometry relative="1" as="geometry">
            <mxPoint x="1142.5" y="680" as="sourcePoint" />
            <Array as="points">
              <mxPoint x="1143" y="840" />
              <mxPoint x="1065" y="840" />
            </Array>
          </mxGeometry>
        </mxCell>
        <mxCell id="D0SpKXZhgsTwfj6XyVtu-57" style="edgeStyle=orthogonalEdgeStyle;rounded=1;orthogonalLoop=1;jettySize=auto;html=1;exitX=0.5;exitY=1;exitDx=0;exitDy=0;entryX=0.5;entryY=0;entryDx=0;entryDy=0;strokeWidth=2;endArrow=none;endFill=0;" parent="1" target="D0SpKXZhgsTwfj6XyVtu-42" edge="1">
          <mxGeometry relative="1" as="geometry">
            <mxPoint x="1142.5" y="680" as="sourcePoint" />
            <Array as="points">
              <mxPoint x="1143" y="840" />
              <mxPoint x="915" y="840" />
            </Array>
          </mxGeometry>
        </mxCell>
        <mxCell id="D0SpKXZhgsTwfj6XyVtu-58" style="edgeStyle=orthogonalEdgeStyle;rounded=1;orthogonalLoop=1;jettySize=auto;html=1;exitX=0.5;exitY=1;exitDx=0;exitDy=0;entryX=0.5;entryY=0;entryDx=0;entryDy=0;strokeWidth=2;endArrow=none;endFill=0;" parent="1" target="D0SpKXZhgsTwfj6XyVtu-48" edge="1">
          <mxGeometry relative="1" as="geometry">
            <mxPoint x="1142.5" y="680" as="sourcePoint" />
            <Array as="points">
              <mxPoint x="1143" y="840" />
              <mxPoint x="770" y="840" />
            </Array>
          </mxGeometry>
        </mxCell>
        <mxCell id="D0SpKXZhgsTwfj6XyVtu-59" style="edgeStyle=orthogonalEdgeStyle;rounded=1;orthogonalLoop=1;jettySize=auto;html=1;exitX=0.5;exitY=1;exitDx=0;exitDy=0;entryX=0.5;entryY=0;entryDx=0;entryDy=0;strokeWidth=2;endArrow=none;endFill=0;" parent="1" target="D0SpKXZhgsTwfj6XyVtu-43" edge="1">
          <mxGeometry relative="1" as="geometry">
            <mxPoint x="1142.5" y="680" as="sourcePoint" />
            <Array as="points">
              <mxPoint x="1143" y="840" />
              <mxPoint x="1364" y="840" />
            </Array>
          </mxGeometry>
        </mxCell>
        <mxCell id="D0SpKXZhgsTwfj6XyVtu-62" style="edgeStyle=orthogonalEdgeStyle;rounded=1;orthogonalLoop=1;jettySize=auto;html=1;exitX=0.5;exitY=1;exitDx=0;exitDy=0;entryX=0.5;entryY=0;entryDx=0;entryDy=0;strokeWidth=2;endArrow=none;endFill=0;" parent="1" edge="1">
          <mxGeometry relative="1" as="geometry">
            <Array as="points">
              <mxPoint x="1142.5" y="839.5" />
              <mxPoint x="990.5" y="839.5" />
            </Array>
            <mxPoint x="1142.5" y="682" as="sourcePoint" />
            <mxPoint x="990.5" y="1089.5" as="targetPoint" />
          </mxGeometry>
        </mxCell>
        <mxCell id="D0SpKXZhgsTwfj6XyVtu-63" style="edgeStyle=orthogonalEdgeStyle;rounded=1;orthogonalLoop=1;jettySize=auto;html=1;exitX=0.5;exitY=1;exitDx=0;exitDy=0;entryX=0.5;entryY=0;entryDx=0;entryDy=0;strokeWidth=2;endArrow=none;endFill=0;" parent="1" edge="1">
          <mxGeometry relative="1" as="geometry">
            <Array as="points">
              <mxPoint x="1142.5" y="839.5" />
              <mxPoint x="840.5" y="839.5" />
            </Array>
            <mxPoint x="1142.5" y="682" as="sourcePoint" />
            <mxPoint x="840" y="1089.5" as="targetPoint" />
          </mxGeometry>
        </mxCell>
        <mxCell id="D0SpKXZhgsTwfj6XyVtu-64" style="edgeStyle=orthogonalEdgeStyle;rounded=1;orthogonalLoop=1;jettySize=auto;html=1;exitX=0.5;exitY=1;exitDx=0;exitDy=0;entryX=0.5;entryY=0;entryDx=0;entryDy=0;strokeWidth=2;endArrow=none;endFill=0;" parent="1" edge="1">
          <mxGeometry relative="1" as="geometry">
            <Array as="points">
              <mxPoint x="1142.5" y="839.5" />
              <mxPoint x="1289.5" y="839.5" />
            </Array>
            <mxPoint x="1142.5" y="682" as="sourcePoint" />
            <mxPoint x="1289.5" y="1089.5" as="targetPoint" />
          </mxGeometry>
        </mxCell>
        <UserObject label="&lt;div&gt;&lt;u&gt;&lt;b&gt;AD&lt;/b&gt;&lt;/u&gt;&lt;/div&gt;&lt;div&gt;&lt;span style=&quot;font-size: 12px;&quot;&gt;(id)&lt;/span&gt;&lt;u&gt;&lt;b&gt;&lt;/b&gt;&lt;/u&gt;&lt;/div&gt;" lucidchartObjectId="lu~Z3BZPFLyL" id="L_SjfXFwUl33Ctqg6qsq-1">
          <mxCell style="html=1;overflow=block;blockSpacing=1;whiteSpace=wrap;rounded=1;arcSize=50;fontSize=16.7;fontColor=#333333;align=center;spacing=3.8;strokeColor=#5e5e5e;strokeOpacity=100;strokeWidth=2.3;" parent="1" vertex="1">
            <mxGeometry x="830" y="462.5" width="120" height="60" as="geometry" />
          </mxCell>
        </UserObject>
        <UserObject label="&lt;div&gt;&lt;u&gt;&lt;b&gt;COMMENT&lt;/b&gt;&lt;/u&gt;&lt;/div&gt;&lt;div&gt;&lt;span style=&quot;font-size: 12px;&quot;&gt;(id)&lt;/span&gt;&lt;u&gt;&lt;b&gt;&lt;/b&gt;&lt;/u&gt;&lt;/div&gt;" lucidchartObjectId="lu~Z3BZPFLyL" id="L_SjfXFwUl33Ctqg6qsq-2">
          <mxCell style="html=1;overflow=block;blockSpacing=1;whiteSpace=wrap;rounded=1;arcSize=50;fontSize=16.7;fontColor=#333333;align=center;spacing=3.8;strokeColor=#5e5e5e;strokeOpacity=100;strokeWidth=2.3;" parent="1" vertex="1">
            <mxGeometry x="830" y="254" width="120" height="60" as="geometry" />
          </mxCell>
        </UserObject>
        <UserObject label="&lt;div&gt;&lt;u&gt;&lt;b&gt;REPORT&lt;/b&gt;&lt;/u&gt;&lt;/div&gt;&lt;div&gt;&lt;span style=&quot;font-size: 12px;&quot;&gt;(id)&lt;/span&gt;&lt;u&gt;&lt;b&gt;&lt;/b&gt;&lt;/u&gt;&lt;/div&gt;" lucidchartObjectId="lu~Z3BZPFLyL" id="L_SjfXFwUl33Ctqg6qsq-3">
          <mxCell style="html=1;overflow=block;blockSpacing=1;whiteSpace=wrap;rounded=1;arcSize=50;fontSize=16.7;fontColor=#333333;align=center;spacing=3.8;strokeColor=#5e5e5e;strokeOpacity=100;strokeWidth=2.3;" parent="1" vertex="1">
            <mxGeometry x="575" y="185" width="120" height="60" as="geometry" />
          </mxCell>
        </UserObject>
        <UserObject label=" " lucidchartObjectId="0ZP0.2TleyX3" id="L_SjfXFwUl33Ctqg6qsq-4">
          <mxCell style="html=1;overflow=block;blockSpacing=1;whiteSpace=wrap;fontSize=16.7;fontColor=#333333;align=center;spacing=9;strokeColor=#5e5e5e;strokeOpacity=100;rounded=1;absoluteArcSize=1;arcSize=9;strokeWidth=2.3;" parent="1" vertex="1">
            <mxGeometry x="567.5" y="369" width="45" height="30" as="geometry" />
          </mxCell>
        </UserObject>
        <mxCell id="L_SjfXFwUl33Ctqg6qsq-7" style="edgeStyle=orthogonalEdgeStyle;rounded=0;orthogonalLoop=1;jettySize=auto;html=1;exitX=0.5;exitY=0;exitDx=0;exitDy=0;entryX=0.5;entryY=1;entryDx=0;entryDy=0;strokeWidth=2;endArrow=none;endFill=0;startArrow=none;" parent="1" source="XVg50m04V7IPDc87U8dQ-4" target="L_SjfXFwUl33Ctqg6qsq-3" edge="1">
          <mxGeometry relative="1" as="geometry" />
        </mxCell>
        <UserObject label=" " lucidchartObjectId="0ZP0.2TleyX3" id="L_SjfXFwUl33Ctqg6qsq-5">
          <mxCell style="html=1;overflow=block;blockSpacing=1;whiteSpace=wrap;fontSize=16.7;fontColor=#333333;align=center;spacing=9;strokeColor=#5e5e5e;strokeOpacity=100;rounded=1;absoluteArcSize=1;arcSize=9;strokeWidth=2.3;" parent="1" vertex="1">
            <mxGeometry x="612.5" y="369" width="45" height="30" as="geometry" />
          </mxCell>
        </UserObject>
        <mxCell id="XVg50m04V7IPDc87U8dQ-13" style="edgeStyle=orthogonalEdgeStyle;rounded=1;orthogonalLoop=1;jettySize=auto;html=1;entryX=0.5;entryY=1;entryDx=0;entryDy=0;strokeWidth=2;endArrow=none;endFill=0;" parent="1" source="L_SjfXFwUl33Ctqg6qsq-6" target="XVg50m04V7IPDc87U8dQ-7" edge="1">
          <mxGeometry relative="1" as="geometry" />
        </mxCell>
        <mxCell id="XVg50m04V7IPDc87U8dQ-17" style="edgeStyle=orthogonalEdgeStyle;rounded=1;orthogonalLoop=1;jettySize=auto;html=1;entryX=0.5;entryY=0;entryDx=0;entryDy=0;strokeWidth=2;endArrow=none;endFill=0;" parent="1" source="L_SjfXFwUl33Ctqg6qsq-6" target="XVg50m04V7IPDc87U8dQ-14" edge="1">
          <mxGeometry relative="1" as="geometry" />
        </mxCell>
        <UserObject label=" " lucidchartObjectId="0ZP0.2TleyX3" id="L_SjfXFwUl33Ctqg6qsq-6">
          <mxCell style="html=1;overflow=block;blockSpacing=1;whiteSpace=wrap;fontSize=16.7;fontColor=#333333;align=center;spacing=9;strokeColor=#5e5e5e;strokeOpacity=100;rounded=1;absoluteArcSize=1;arcSize=9;strokeWidth=2.3;" parent="1" vertex="1">
            <mxGeometry x="657.5" y="369" width="45" height="30" as="geometry" />
          </mxCell>
        </UserObject>
        <mxCell id="L_SjfXFwUl33Ctqg6qsq-12" value="" style="endArrow=open;html=1;rounded=1;strokeWidth=2;startArrow=open;startFill=0;endFill=0;" parent="1" edge="1">
          <mxGeometry width="50" height="50" relative="1" as="geometry">
            <mxPoint x="657.5" y="408.17" as="sourcePoint" />
            <mxPoint x="697.5" y="408.17" as="targetPoint" />
          </mxGeometry>
        </mxCell>
        <mxCell id="L_SjfXFwUl33Ctqg6qsq-30" value="" style="endArrow=open;html=1;rounded=1;strokeWidth=2;startArrow=open;startFill=0;endFill=0;" parent="1" edge="1">
          <mxGeometry width="50" height="50" relative="1" as="geometry">
            <mxPoint x="615" y="408.17" as="sourcePoint" />
            <mxPoint x="655" y="408.17" as="targetPoint" />
          </mxGeometry>
        </mxCell>
        <UserObject label="content" lucidchartObjectId="lu~Z3BZPFLyL" id="D0SpKXZhgsTwfj6XyVtu-14">
          <mxCell style="html=1;overflow=block;blockSpacing=1;whiteSpace=wrap;rounded=1;arcSize=50;fontSize=16.7;fontColor=#333333;align=center;spacing=3.8;strokeColor=#5e5e5e;strokeOpacity=100;strokeWidth=2.3;dashed=1;dashPattern=1 1;shadow=1;" parent="1" vertex="1">
            <mxGeometry x="3890" y="195" width="120" height="60" as="geometry" />
          </mxCell>
        </UserObject>
        <UserObject label="rate" lucidchartObjectId="lu~Z3BZPFLyL" id="D0SpKXZhgsTwfj6XyVtu-40">
          <mxCell style="html=1;overflow=block;blockSpacing=1;whiteSpace=wrap;rounded=1;arcSize=50;fontSize=16.7;fontColor=#333333;align=center;spacing=3.8;strokeColor=#5e5e5e;strokeOpacity=100;strokeWidth=2.3;dashed=1;dashPattern=1 1;shadow=1;" parent="1" vertex="1">
            <mxGeometry x="1005" y="997.5" width="120" height="60" as="geometry" />
          </mxCell>
        </UserObject>
        <UserObject label="reports" lucidchartObjectId="lu~Z3BZPFLyL" id="D0SpKXZhgsTwfj6XyVtu-41">
          <mxCell style="html=1;overflow=block;blockSpacing=1;whiteSpace=wrap;rounded=1;arcSize=50;fontSize=16.7;fontColor=#333333;align=center;spacing=3.8;strokeColor=#5e5e5e;strokeOpacity=100;strokeWidth=2.3;dashed=1;dashPattern=1 1;shadow=1;" parent="1" vertex="1">
            <mxGeometry x="1155" y="997.5" width="120" height="60" as="geometry" />
          </mxCell>
        </UserObject>
        <UserObject label="city" lucidchartObjectId="lu~Z3BZPFLyL" id="D0SpKXZhgsTwfj6XyVtu-42">
          <mxCell style="html=1;overflow=block;blockSpacing=1;whiteSpace=wrap;rounded=1;arcSize=50;fontSize=16.7;fontColor=#333333;align=center;spacing=3.8;strokeColor=#5e5e5e;strokeOpacity=100;strokeWidth=2.3;dashed=1;dashPattern=1 1;shadow=1;" parent="1" vertex="1">
            <mxGeometry x="855" y="997.5" width="120" height="60" as="geometry" />
          </mxCell>
        </UserObject>
        <UserObject label="visibility" lucidchartObjectId="lu~Z3BZPFLyL" id="D0SpKXZhgsTwfj6XyVtu-43">
          <mxCell style="html=1;overflow=block;blockSpacing=1;whiteSpace=wrap;rounded=1;arcSize=50;fontSize=16.7;fontColor=#333333;align=center;spacing=3.8;strokeColor=#5e5e5e;strokeOpacity=100;strokeWidth=2.3;dashed=1;dashPattern=1 1;shadow=1;" parent="1" vertex="1">
            <mxGeometry x="1304" y="997.5" width="120" height="60" as="geometry" />
          </mxCell>
        </UserObject>
        <UserObject label="price" lucidchartObjectId="lu~Z3BZPFLyL" id="D0SpKXZhgsTwfj6XyVtu-44">
          <mxCell style="html=1;overflow=block;blockSpacing=1;whiteSpace=wrap;rounded=1;arcSize=50;fontSize=16.7;fontColor=#333333;align=center;spacing=3.8;strokeColor=#5e5e5e;strokeOpacity=100;strokeWidth=2.3;dashed=1;dashPattern=1 1;shadow=1;" parent="1" vertex="1">
            <mxGeometry x="930.5" y="1087.5" width="120" height="60" as="geometry" />
          </mxCell>
        </UserObject>
        <UserObject label="comments" lucidchartObjectId="lu~Z3BZPFLyL" id="D0SpKXZhgsTwfj6XyVtu-47">
          <mxCell style="html=1;overflow=block;blockSpacing=1;whiteSpace=wrap;rounded=1;arcSize=50;fontSize=16.7;fontColor=#333333;align=center;spacing=3.8;strokeColor=#5e5e5e;strokeOpacity=100;strokeWidth=2.3;dashed=1;dashPattern=1 1;shadow=1;" parent="1" vertex="1">
            <mxGeometry x="1229.5" y="1087.5" width="120" height="60" as="geometry" />
          </mxCell>
        </UserObject>
        <UserObject label="titre" lucidchartObjectId="lu~Z3BZPFLyL" id="D0SpKXZhgsTwfj6XyVtu-48">
          <mxCell style="html=1;overflow=block;blockSpacing=1;whiteSpace=wrap;rounded=1;arcSize=50;fontSize=16.7;fontColor=#333333;align=center;spacing=3.8;strokeColor=#5e5e5e;strokeOpacity=100;strokeWidth=2.3;dashed=1;dashPattern=1 1;shadow=1;" parent="1" vertex="1">
            <mxGeometry x="710" y="997.5" width="120" height="60" as="geometry" />
          </mxCell>
        </UserObject>
        <mxCell id="FU3BZyBMG28V7SUaufcj-1" style="edgeStyle=orthogonalEdgeStyle;rounded=1;orthogonalLoop=1;jettySize=auto;html=1;entryX=0;entryY=0.5;entryDx=0;entryDy=0;strokeWidth=2;fontSize=12;startFill=1;endArrow=none;endFill=0;" edge="1" parent="1" source="D0SpKXZhgsTwfj6XyVtu-49" target="D0SpKXZhgsTwfj6XyVtu-111">
          <mxGeometry relative="1" as="geometry" />
        </mxCell>
        <UserObject label="images" lucidchartObjectId="lu~Z3BZPFLyL" id="D0SpKXZhgsTwfj6XyVtu-49">
          <mxCell style="html=1;overflow=block;blockSpacing=1;whiteSpace=wrap;rounded=1;arcSize=50;fontSize=16.7;fontColor=#333333;align=center;spacing=3.8;strokeColor=#5e5e5e;strokeOpacity=100;strokeWidth=2.3;dashed=1;dashPattern=1 1;shadow=1;" parent="1" vertex="1">
            <mxGeometry x="1082.5" y="1087.5" width="120" height="60" as="geometry" />
          </mxCell>
        </UserObject>
        <UserObject label="description" lucidchartObjectId="lu~Z3BZPFLyL" id="D0SpKXZhgsTwfj6XyVtu-50">
          <mxCell style="html=1;overflow=block;blockSpacing=1;whiteSpace=wrap;rounded=1;arcSize=50;fontSize=16.7;fontColor=#333333;align=center;spacing=3.8;strokeColor=#5e5e5e;strokeOpacity=100;strokeWidth=2.3;dashed=1;dashPattern=1 1;shadow=1;" parent="1" vertex="1">
            <mxGeometry x="780" y="1087.5" width="120" height="60" as="geometry" />
          </mxCell>
        </UserObject>
        <UserObject label=" " lucidchartObjectId="0ZP0.2TleyX3" id="D0SpKXZhgsTwfj6XyVtu-71">
          <mxCell style="html=1;overflow=block;blockSpacing=1;whiteSpace=wrap;fontSize=16.7;fontColor=#333333;align=center;spacing=9;strokeColor=#5e5e5e;strokeOpacity=100;rounded=1;absoluteArcSize=1;arcSize=9;strokeWidth=2.3;direction=north;flipV=0;flipH=1;" parent="1" vertex="1">
            <mxGeometry x="757.5" y="922.5" width="30" height="45" as="geometry" />
          </mxCell>
        </UserObject>
        <UserObject label=" " lucidchartObjectId="0ZP0.2TleyX3" id="D0SpKXZhgsTwfj6XyVtu-72">
          <mxCell style="html=1;overflow=block;blockSpacing=1;whiteSpace=wrap;fontSize=16.7;fontColor=#333333;align=center;spacing=9;strokeColor=#5e5e5e;strokeOpacity=100;rounded=1;absoluteArcSize=1;arcSize=9;strokeWidth=2.3;direction=north;flipV=0;flipH=1;" parent="1" vertex="1">
            <mxGeometry x="757.5" y="877.5" width="30" height="45" as="geometry" />
          </mxCell>
        </UserObject>
        <mxCell id="D0SpKXZhgsTwfj6XyVtu-73" value="" style="endArrow=open;html=1;rounded=1;strokeWidth=2;startArrow=open;startFill=0;endFill=0;" parent="1" edge="1">
          <mxGeometry width="50" height="50" relative="1" as="geometry">
            <mxPoint x="797.4999999999999" y="880.4133333333327" as="sourcePoint" />
            <mxPoint x="797.4999999999999" y="919.5799999999999" as="targetPoint" />
          </mxGeometry>
        </mxCell>
        <mxCell id="D0SpKXZhgsTwfj6XyVtu-74" value="" style="endArrow=open;html=1;rounded=1;strokeWidth=2;startArrow=open;startFill=0;endFill=0;" parent="1" edge="1">
          <mxGeometry width="50" height="50" relative="1" as="geometry">
            <mxPoint x="797.4999999999999" y="925.4133333333327" as="sourcePoint" />
            <mxPoint x="797.4999999999999" y="964.5799999999999" as="targetPoint" />
          </mxGeometry>
        </mxCell>
        <UserObject label=" " lucidchartObjectId="0ZP0.2TleyX3" id="D0SpKXZhgsTwfj6XyVtu-75">
          <mxCell style="html=1;overflow=block;blockSpacing=1;whiteSpace=wrap;fontSize=16.7;fontColor=#333333;align=center;spacing=9;strokeColor=#5e5e5e;strokeOpacity=100;rounded=1;absoluteArcSize=1;arcSize=9;strokeWidth=2.3;direction=north;flipV=0;flipH=1;" parent="1" vertex="1">
            <mxGeometry x="824.31" y="922.5" width="30" height="45" as="geometry" />
          </mxCell>
        </UserObject>
        <UserObject label=" " lucidchartObjectId="0ZP0.2TleyX3" id="D0SpKXZhgsTwfj6XyVtu-76">
          <mxCell style="html=1;overflow=block;blockSpacing=1;whiteSpace=wrap;fontSize=16.7;fontColor=#333333;align=center;spacing=9;strokeColor=#5e5e5e;strokeOpacity=100;rounded=1;absoluteArcSize=1;arcSize=9;strokeWidth=2.3;direction=north;flipV=0;flipH=1;" parent="1" vertex="1">
            <mxGeometry x="824.31" y="877.5" width="30" height="45" as="geometry" />
          </mxCell>
        </UserObject>
        <mxCell id="D0SpKXZhgsTwfj6XyVtu-77" value="" style="endArrow=open;html=1;rounded=1;strokeWidth=2;startArrow=open;startFill=0;endFill=0;" parent="1" edge="1">
          <mxGeometry width="50" height="50" relative="1" as="geometry">
            <mxPoint x="864.31" y="880.413333333333" as="sourcePoint" />
            <mxPoint x="864.31" y="919.5799999999999" as="targetPoint" />
          </mxGeometry>
        </mxCell>
        <mxCell id="D0SpKXZhgsTwfj6XyVtu-78" value="" style="endArrow=open;html=1;rounded=1;strokeWidth=2;startArrow=open;startFill=0;endFill=0;" parent="1" edge="1">
          <mxGeometry width="50" height="50" relative="1" as="geometry">
            <mxPoint x="864.31" y="925.413333333333" as="sourcePoint" />
            <mxPoint x="864.31" y="964.5799999999999" as="targetPoint" />
          </mxGeometry>
        </mxCell>
        <UserObject label=" " lucidchartObjectId="0ZP0.2TleyX3" id="D0SpKXZhgsTwfj6XyVtu-79">
          <mxCell style="html=1;overflow=block;blockSpacing=1;whiteSpace=wrap;fontSize=16.7;fontColor=#333333;align=center;spacing=9;strokeColor=#5e5e5e;strokeOpacity=100;rounded=1;absoluteArcSize=1;arcSize=9;strokeWidth=2.3;direction=north;flipV=0;flipH=1;" parent="1" vertex="1">
            <mxGeometry x="900" y="922.5" width="30" height="45" as="geometry" />
          </mxCell>
        </UserObject>
        <UserObject label=" " lucidchartObjectId="0ZP0.2TleyX3" id="D0SpKXZhgsTwfj6XyVtu-80">
          <mxCell style="html=1;overflow=block;blockSpacing=1;whiteSpace=wrap;fontSize=16.7;fontColor=#333333;align=center;spacing=9;strokeColor=#5e5e5e;strokeOpacity=100;rounded=1;absoluteArcSize=1;arcSize=9;strokeWidth=2.3;direction=north;flipV=0;flipH=1;" parent="1" vertex="1">
            <mxGeometry x="900" y="877.5" width="30" height="45" as="geometry" />
          </mxCell>
        </UserObject>
        <mxCell id="D0SpKXZhgsTwfj6XyVtu-81" value="" style="endArrow=open;html=1;rounded=1;strokeWidth=2;startArrow=open;startFill=0;endFill=0;" parent="1" edge="1">
          <mxGeometry width="50" height="50" relative="1" as="geometry">
            <mxPoint x="940" y="880.413333333333" as="sourcePoint" />
            <mxPoint x="940" y="919.5799999999999" as="targetPoint" />
          </mxGeometry>
        </mxCell>
        <mxCell id="D0SpKXZhgsTwfj6XyVtu-82" value="" style="endArrow=open;html=1;rounded=1;strokeWidth=2;startArrow=open;startFill=0;endFill=0;" parent="1" edge="1">
          <mxGeometry width="50" height="50" relative="1" as="geometry">
            <mxPoint x="940" y="925.413333333333" as="sourcePoint" />
            <mxPoint x="940" y="964.5799999999999" as="targetPoint" />
          </mxGeometry>
        </mxCell>
        <UserObject label=" " lucidchartObjectId="0ZP0.2TleyX3" id="D0SpKXZhgsTwfj6XyVtu-83">
          <mxCell style="html=1;overflow=block;blockSpacing=1;whiteSpace=wrap;fontSize=16.7;fontColor=#333333;align=center;spacing=9;strokeColor=#5e5e5e;strokeOpacity=100;rounded=1;absoluteArcSize=1;arcSize=9;strokeWidth=2.3;direction=north;flipV=0;flipH=1;" parent="1" vertex="1">
            <mxGeometry x="976.81" y="922.5" width="30" height="45" as="geometry" />
          </mxCell>
        </UserObject>
        <UserObject label=" " lucidchartObjectId="0ZP0.2TleyX3" id="D0SpKXZhgsTwfj6XyVtu-84">
          <mxCell style="html=1;overflow=block;blockSpacing=1;whiteSpace=wrap;fontSize=16.7;fontColor=#333333;align=center;spacing=9;strokeColor=#5e5e5e;strokeOpacity=100;rounded=1;absoluteArcSize=1;arcSize=9;strokeWidth=2.3;direction=north;flipV=0;flipH=1;" parent="1" vertex="1">
            <mxGeometry x="976.81" y="877.5" width="30" height="45" as="geometry" />
          </mxCell>
        </UserObject>
        <mxCell id="D0SpKXZhgsTwfj6XyVtu-85" value="" style="endArrow=open;html=1;rounded=1;strokeWidth=2;startArrow=open;startFill=0;endFill=0;" parent="1" edge="1">
          <mxGeometry width="50" height="50" relative="1" as="geometry">
            <mxPoint x="1016.81" y="880.413333333333" as="sourcePoint" />
            <mxPoint x="1016.81" y="919.5799999999999" as="targetPoint" />
          </mxGeometry>
        </mxCell>
        <mxCell id="D0SpKXZhgsTwfj6XyVtu-86" value="" style="endArrow=open;html=1;rounded=1;strokeWidth=2;startArrow=open;startFill=0;endFill=0;" parent="1" edge="1">
          <mxGeometry width="50" height="50" relative="1" as="geometry">
            <mxPoint x="1016.81" y="925.413333333333" as="sourcePoint" />
            <mxPoint x="1016.81" y="964.5799999999999" as="targetPoint" />
          </mxGeometry>
        </mxCell>
        <UserObject label=" " lucidchartObjectId="0ZP0.2TleyX3" id="D0SpKXZhgsTwfj6XyVtu-87">
          <mxCell style="html=1;overflow=block;blockSpacing=1;whiteSpace=wrap;fontSize=16.7;fontColor=#333333;align=center;spacing=9;strokeColor=#5e5e5e;strokeOpacity=100;rounded=1;absoluteArcSize=1;arcSize=9;strokeWidth=2.3;direction=north;flipV=0;flipH=1;" parent="1" vertex="1">
            <mxGeometry x="1050.5" y="922.5" width="30" height="45" as="geometry" />
          </mxCell>
        </UserObject>
        <UserObject label=" " lucidchartObjectId="0ZP0.2TleyX3" id="D0SpKXZhgsTwfj6XyVtu-88">
          <mxCell style="html=1;overflow=block;blockSpacing=1;whiteSpace=wrap;fontSize=16.7;fontColor=#333333;align=center;spacing=9;strokeColor=#5e5e5e;strokeOpacity=100;rounded=1;absoluteArcSize=1;arcSize=9;strokeWidth=2.3;direction=north;flipV=0;flipH=1;" parent="1" vertex="1">
            <mxGeometry x="1050.5" y="877.5" width="30" height="45" as="geometry" />
          </mxCell>
        </UserObject>
        <mxCell id="D0SpKXZhgsTwfj6XyVtu-89" value="" style="endArrow=open;html=1;rounded=1;strokeWidth=2;startArrow=open;startFill=0;endFill=0;" parent="1" edge="1">
          <mxGeometry width="50" height="50" relative="1" as="geometry">
            <mxPoint x="1090.5" y="880.413333333333" as="sourcePoint" />
            <mxPoint x="1090.5" y="919.5799999999999" as="targetPoint" />
          </mxGeometry>
        </mxCell>
        <mxCell id="D0SpKXZhgsTwfj6XyVtu-90" value="" style="endArrow=open;html=1;rounded=1;strokeWidth=2;startArrow=open;startFill=0;endFill=0;" parent="1" edge="1">
          <mxGeometry width="50" height="50" relative="1" as="geometry">
            <mxPoint x="1090.5" y="925.413333333333" as="sourcePoint" />
            <mxPoint x="1090.5" y="964.5799999999999" as="targetPoint" />
          </mxGeometry>
        </mxCell>
        <UserObject label=" " lucidchartObjectId="0ZP0.2TleyX3" id="D0SpKXZhgsTwfj6XyVtu-95">
          <mxCell style="html=1;overflow=block;blockSpacing=1;whiteSpace=wrap;fontSize=16.7;fontColor=#333333;align=center;spacing=9;strokeColor=#5e5e5e;strokeOpacity=100;rounded=1;absoluteArcSize=1;arcSize=9;strokeWidth=2.3;direction=north;flipV=0;flipH=1;" parent="1" vertex="1">
            <mxGeometry x="1202.5" y="922.5" width="30" height="45" as="geometry" />
          </mxCell>
        </UserObject>
        <UserObject label=" " lucidchartObjectId="0ZP0.2TleyX3" id="D0SpKXZhgsTwfj6XyVtu-96">
          <mxCell style="html=1;overflow=block;blockSpacing=1;whiteSpace=wrap;fontSize=16.7;fontColor=#333333;align=center;spacing=9;strokeColor=#5e5e5e;strokeOpacity=100;rounded=1;absoluteArcSize=1;arcSize=9;strokeWidth=2.3;direction=north;flipV=0;flipH=1;" parent="1" vertex="1">
            <mxGeometry x="1202.5" y="877.5" width="30" height="45" as="geometry" />
          </mxCell>
        </UserObject>
        <mxCell id="D0SpKXZhgsTwfj6XyVtu-97" value="" style="endArrow=open;html=1;rounded=1;strokeWidth=2;startArrow=open;startFill=0;endFill=0;" parent="1" edge="1">
          <mxGeometry width="50" height="50" relative="1" as="geometry">
            <mxPoint x="1242.5" y="880.413333333333" as="sourcePoint" />
            <mxPoint x="1242.5" y="919.5799999999999" as="targetPoint" />
          </mxGeometry>
        </mxCell>
        <mxCell id="D0SpKXZhgsTwfj6XyVtu-98" value="" style="endArrow=open;html=1;rounded=1;strokeWidth=2;startArrow=open;startFill=0;endFill=0;" parent="1" edge="1">
          <mxGeometry width="50" height="50" relative="1" as="geometry">
            <mxPoint x="1242.5" y="925.413333333333" as="sourcePoint" />
            <mxPoint x="1242.5" y="964.5799999999999" as="targetPoint" />
          </mxGeometry>
        </mxCell>
        <UserObject label=" " lucidchartObjectId="0ZP0.2TleyX3" id="D0SpKXZhgsTwfj6XyVtu-99">
          <mxCell style="html=1;overflow=block;blockSpacing=1;whiteSpace=wrap;fontSize=16.7;fontColor=#333333;align=center;spacing=9;strokeColor=#5e5e5e;strokeOpacity=100;rounded=1;absoluteArcSize=1;arcSize=9;strokeWidth=2.3;direction=north;flipV=0;flipH=1;" parent="1" vertex="1">
            <mxGeometry x="1274.5" y="922.5" width="30" height="45" as="geometry" />
          </mxCell>
        </UserObject>
        <UserObject label=" " lucidchartObjectId="0ZP0.2TleyX3" id="D0SpKXZhgsTwfj6XyVtu-100">
          <mxCell style="html=1;overflow=block;blockSpacing=1;whiteSpace=wrap;fontSize=16.7;fontColor=#333333;align=center;spacing=9;strokeColor=#5e5e5e;strokeOpacity=100;rounded=1;absoluteArcSize=1;arcSize=9;strokeWidth=2.3;direction=north;flipV=0;flipH=1;" parent="1" vertex="1">
            <mxGeometry x="1274.5" y="877.5" width="30" height="45" as="geometry" />
          </mxCell>
        </UserObject>
        <mxCell id="D0SpKXZhgsTwfj6XyVtu-101" value="" style="endArrow=open;html=1;rounded=1;strokeWidth=2;startArrow=open;startFill=0;endFill=0;" parent="1" edge="1">
          <mxGeometry width="50" height="50" relative="1" as="geometry">
            <mxPoint x="1314.5" y="880.413333333333" as="sourcePoint" />
            <mxPoint x="1314.5" y="919.5799999999999" as="targetPoint" />
          </mxGeometry>
        </mxCell>
        <mxCell id="D0SpKXZhgsTwfj6XyVtu-102" value="" style="endArrow=open;html=1;rounded=1;strokeWidth=2;startArrow=open;startFill=0;endFill=0;" parent="1" edge="1">
          <mxGeometry width="50" height="50" relative="1" as="geometry">
            <mxPoint x="1314.5" y="925.413333333333" as="sourcePoint" />
            <mxPoint x="1314.5" y="964.5799999999999" as="targetPoint" />
          </mxGeometry>
        </mxCell>
        <UserObject label=" " lucidchartObjectId="0ZP0.2TleyX3" id="D0SpKXZhgsTwfj6XyVtu-103">
          <mxCell style="html=1;overflow=block;blockSpacing=1;whiteSpace=wrap;fontSize=16.7;fontColor=#333333;align=center;spacing=9;strokeColor=#5e5e5e;strokeOpacity=100;rounded=1;absoluteArcSize=1;arcSize=9;strokeWidth=2.3;direction=north;flipV=0;flipH=1;" parent="1" vertex="1">
            <mxGeometry x="1349.5" y="922.5" width="30" height="45" as="geometry" />
          </mxCell>
        </UserObject>
        <UserObject label=" " lucidchartObjectId="0ZP0.2TleyX3" id="D0SpKXZhgsTwfj6XyVtu-104">
          <mxCell style="html=1;overflow=block;blockSpacing=1;whiteSpace=wrap;fontSize=16.7;fontColor=#333333;align=center;spacing=9;strokeColor=#5e5e5e;strokeOpacity=100;rounded=1;absoluteArcSize=1;arcSize=9;strokeWidth=2.3;direction=north;flipV=0;flipH=1;" parent="1" vertex="1">
            <mxGeometry x="1349.5" y="877.5" width="30" height="45" as="geometry" />
          </mxCell>
        </UserObject>
        <mxCell id="D0SpKXZhgsTwfj6XyVtu-105" value="" style="endArrow=open;html=1;rounded=1;strokeWidth=2;startArrow=open;startFill=0;endFill=0;" parent="1" edge="1">
          <mxGeometry width="50" height="50" relative="1" as="geometry">
            <mxPoint x="1389.5" y="880.413333333333" as="sourcePoint" />
            <mxPoint x="1389.5" y="919.5799999999999" as="targetPoint" />
          </mxGeometry>
        </mxCell>
        <mxCell id="D0SpKXZhgsTwfj6XyVtu-106" value="" style="endArrow=open;html=1;rounded=1;strokeWidth=2;startArrow=open;startFill=0;endFill=0;" parent="1" edge="1">
          <mxGeometry width="50" height="50" relative="1" as="geometry">
            <mxPoint x="1389.5" y="925.413333333333" as="sourcePoint" />
            <mxPoint x="1389.5" y="964.5799999999999" as="targetPoint" />
          </mxGeometry>
        </mxCell>
        <UserObject label=" " lucidchartObjectId="0ZP0.2TleyX3" id="D0SpKXZhgsTwfj6XyVtu-111">
          <mxCell style="html=1;overflow=block;blockSpacing=1;whiteSpace=wrap;fontSize=16.7;fontColor=#333333;align=center;spacing=9;strokeColor=#5e5e5e;strokeOpacity=100;rounded=1;absoluteArcSize=1;arcSize=9;strokeWidth=2.3;direction=north;flipV=0;flipH=1;" parent="1" vertex="1">
            <mxGeometry x="1127.9999999999998" y="922.5" width="30" height="45" as="geometry" />
          </mxCell>
        </UserObject>
        <mxCell id="FU3BZyBMG28V7SUaufcj-3" style="edgeStyle=orthogonalEdgeStyle;rounded=1;orthogonalLoop=1;jettySize=auto;html=1;exitX=1;exitY=0.5;exitDx=0;exitDy=0;strokeWidth=2;fontSize=12;startFill=1;endArrow=none;endFill=0;" edge="1" parent="1" source="D0SpKXZhgsTwfj6XyVtu-112">
          <mxGeometry relative="1" as="geometry">
            <mxPoint x="1143.0689655172414" y="700" as="targetPoint" />
          </mxGeometry>
        </mxCell>
        <UserObject label=" " lucidchartObjectId="0ZP0.2TleyX3" id="D0SpKXZhgsTwfj6XyVtu-112">
          <mxCell style="html=1;overflow=block;blockSpacing=1;whiteSpace=wrap;fontSize=16.7;fontColor=#333333;align=center;spacing=9;strokeColor=#5e5e5e;strokeOpacity=100;rounded=1;absoluteArcSize=1;arcSize=9;strokeWidth=2.3;direction=north;flipV=0;flipH=1;" parent="1" vertex="1">
            <mxGeometry x="1127.9999999999998" y="877.5" width="30" height="45" as="geometry" />
          </mxCell>
        </UserObject>
        <mxCell id="D0SpKXZhgsTwfj6XyVtu-113" value="" style="endArrow=open;html=1;rounded=1;strokeWidth=2;startArrow=open;startFill=0;endFill=0;" parent="1" edge="1">
          <mxGeometry width="50" height="50" relative="1" as="geometry">
            <mxPoint x="1167.9999999999998" y="880.413333333333" as="sourcePoint" />
            <mxPoint x="1167.9999999999998" y="919.5799999999999" as="targetPoint" />
          </mxGeometry>
        </mxCell>
        <mxCell id="D0SpKXZhgsTwfj6XyVtu-114" value="" style="endArrow=open;html=1;rounded=1;strokeWidth=2;startArrow=open;startFill=0;endFill=0;" parent="1" edge="1">
          <mxGeometry width="50" height="50" relative="1" as="geometry">
            <mxPoint x="1167.9999999999998" y="925.413333333333" as="sourcePoint" />
            <mxPoint x="1167.9999999999998" y="964.5799999999999" as="targetPoint" />
          </mxGeometry>
        </mxCell>
        <mxCell id="XVg50m04V7IPDc87U8dQ-19" style="edgeStyle=orthogonalEdgeStyle;rounded=1;orthogonalLoop=1;jettySize=auto;html=1;entryX=0.5;entryY=1;entryDx=0;entryDy=0;strokeWidth=2;endArrow=none;endFill=0;" parent="1" source="XVg50m04V7IPDc87U8dQ-1" target="XVg50m04V7IPDc87U8dQ-18" edge="1">
          <mxGeometry relative="1" as="geometry" />
        </mxCell>
        <UserObject label="&lt;div&gt;&lt;u&gt;&lt;b&gt;CUSTOMS&lt;/b&gt;&lt;/u&gt;&lt;/div&gt;&lt;div&gt;&lt;span style=&quot;font-size: 12px;&quot;&gt;(id)&lt;/span&gt;&lt;u&gt;&lt;b&gt;&lt;/b&gt;&lt;/u&gt;&lt;/div&gt;" lucidchartObjectId="lu~Z3BZPFLyL" id="XVg50m04V7IPDc87U8dQ-1">
          <mxCell style="html=1;overflow=block;blockSpacing=1;whiteSpace=wrap;rounded=1;arcSize=50;fontSize=16.7;fontColor=#333333;align=center;spacing=3.8;strokeColor=#5e5e5e;strokeOpacity=100;strokeWidth=2.3;" parent="1" vertex="1">
            <mxGeometry x="370" y="510" width="120" height="60" as="geometry" />
          </mxCell>
        </UserObject>
        <mxCell id="XVg50m04V7IPDc87U8dQ-4" value="" style="ellipse;whiteSpace=wrap;html=1;aspect=fixed;fillStyle=auto;fillColor=none;strokeWidth=2;" parent="1" vertex="1">
          <mxGeometry x="627.5" y="245" width="15" height="15" as="geometry" />
        </mxCell>
        <mxCell id="XVg50m04V7IPDc87U8dQ-6" value="" style="edgeStyle=orthogonalEdgeStyle;rounded=0;orthogonalLoop=1;jettySize=auto;html=1;exitX=0.5;exitY=0;exitDx=0;exitDy=0;entryX=0.5;entryY=1;entryDx=0;entryDy=0;strokeWidth=2;endArrow=none;endFill=0;" parent="1" source="L_SjfXFwUl33Ctqg6qsq-5" target="XVg50m04V7IPDc87U8dQ-4" edge="1">
          <mxGeometry relative="1" as="geometry">
            <mxPoint x="635" y="369" as="sourcePoint" />
            <mxPoint x="635" y="245" as="targetPoint" />
          </mxGeometry>
        </mxCell>
        <mxCell id="XVg50m04V7IPDc87U8dQ-7" value="" style="ellipse;whiteSpace=wrap;html=1;aspect=fixed;fillStyle=auto;fillColor=none;strokeWidth=2;" parent="1" vertex="1">
          <mxGeometry x="882.5" y="314" width="15" height="15" as="geometry" />
        </mxCell>
        <mxCell id="XVg50m04V7IPDc87U8dQ-14" value="" style="ellipse;whiteSpace=wrap;html=1;aspect=fixed;fillStyle=auto;fillColor=none;strokeWidth=2;" parent="1" vertex="1">
          <mxGeometry x="882.5" y="447.5" width="15" height="15" as="geometry" />
        </mxCell>
        <mxCell id="XVg50m04V7IPDc87U8dQ-18" value="" style="ellipse;whiteSpace=wrap;html=1;aspect=fixed;fillStyle=auto;fillColor=none;strokeWidth=2;" parent="1" vertex="1">
          <mxGeometry x="422.5" y="414" width="15" height="15" as="geometry" />
        </mxCell>
        <mxCell id="XVg50m04V7IPDc87U8dQ-140" style="edgeStyle=orthogonalEdgeStyle;rounded=1;orthogonalLoop=1;jettySize=auto;html=1;entryX=1.026;entryY=0.524;entryDx=0;entryDy=0;entryPerimeter=0;strokeWidth=2;endArrow=none;endFill=0;" parent="1" source="XVg50m04V7IPDc87U8dQ-81" target="XVg50m04V7IPDc87U8dQ-109" edge="1">
          <mxGeometry relative="1" as="geometry" />
        </mxCell>
        <UserObject label="reports" lucidchartObjectId="lu~Z3BZPFLyL" id="XVg50m04V7IPDc87U8dQ-81">
          <mxCell style="html=1;overflow=block;blockSpacing=1;whiteSpace=wrap;rounded=1;arcSize=50;fontSize=16.7;fontColor=#333333;align=center;spacing=3.8;strokeColor=#5e5e5e;strokeOpacity=100;strokeWidth=2.3;dashed=1;dashPattern=1 1;shadow=1;" parent="1" vertex="1">
            <mxGeometry x="1724" y="-115.5" width="120" height="60" as="geometry" />
          </mxCell>
        </UserObject>
        <mxCell id="XVg50m04V7IPDc87U8dQ-144" style="edgeStyle=orthogonalEdgeStyle;rounded=1;orthogonalLoop=1;jettySize=auto;html=1;entryX=1;entryY=0.5;entryDx=0;entryDy=0;strokeWidth=2;endArrow=none;endFill=0;" parent="1" source="XVg50m04V7IPDc87U8dQ-84" edge="1">
          <mxGeometry relative="1" as="geometry">
            <mxPoint x="1709.5" y="-17.5" as="targetPoint" />
          </mxGeometry>
        </mxCell>
        <UserObject label="visibility" lucidchartObjectId="lu~Z3BZPFLyL" id="XVg50m04V7IPDc87U8dQ-84">
          <mxCell style="html=1;overflow=block;blockSpacing=1;whiteSpace=wrap;rounded=1;arcSize=50;fontSize=16.7;fontColor=#333333;align=center;spacing=3.8;strokeColor=#5e5e5e;strokeOpacity=100;strokeWidth=2.3;dashed=1;dashPattern=1 1;shadow=1;" parent="1" vertex="1">
            <mxGeometry x="1649.5" y="-198" width="120" height="60" as="geometry" />
          </mxCell>
        </UserObject>
        <UserObject label="repAuthorId" lucidchartObjectId="lu~Z3BZPFLyL" id="XVg50m04V7IPDc87U8dQ-86">
          <mxCell style="html=1;overflow=block;blockSpacing=1;whiteSpace=wrap;rounded=1;arcSize=50;fontSize=16.7;fontColor=#333333;align=center;spacing=3.8;strokeColor=#5e5e5e;strokeOpacity=100;strokeWidth=2.3;dashed=1;dashPattern=1 1;shadow=1;" parent="1" vertex="1">
            <mxGeometry x="1574.5" y="-115.5" width="120" height="60" as="geometry" />
          </mxCell>
        </UserObject>
        <mxCell id="XVg50m04V7IPDc87U8dQ-137" style="edgeStyle=orthogonalEdgeStyle;rounded=1;orthogonalLoop=1;jettySize=auto;html=1;exitX=0.5;exitY=1;exitDx=0;exitDy=0;entryX=1;entryY=0.5;entryDx=0;entryDy=0;strokeWidth=2;endArrow=none;endFill=0;" parent="1" source="XVg50m04V7IPDc87U8dQ-88" target="XVg50m04V7IPDc87U8dQ-93" edge="1">
          <mxGeometry relative="1" as="geometry" />
        </mxCell>
        <UserObject label="content" lucidchartObjectId="lu~Z3BZPFLyL" id="XVg50m04V7IPDc87U8dQ-88">
          <mxCell style="html=1;overflow=block;blockSpacing=1;whiteSpace=wrap;rounded=1;arcSize=50;fontSize=16.7;fontColor=#333333;align=center;spacing=3.8;strokeColor=#5e5e5e;strokeOpacity=100;strokeWidth=2.3;dashed=1;dashPattern=1 1;shadow=1;" parent="1" vertex="1">
            <mxGeometry x="1429" y="-115.5" width="120" height="60" as="geometry" />
          </mxCell>
        </UserObject>
        <mxCell id="XVg50m04V7IPDc87U8dQ-136" style="edgeStyle=orthogonalEdgeStyle;rounded=1;orthogonalLoop=1;jettySize=auto;html=1;entryX=1;entryY=0.5;entryDx=0;entryDy=0;strokeWidth=2;endArrow=none;endFill=0;" parent="1" source="XVg50m04V7IPDc87U8dQ-90" target="XVg50m04V7IPDc87U8dQ-97" edge="1">
          <mxGeometry relative="1" as="geometry" />
        </mxCell>
        <UserObject label="disabled" lucidchartObjectId="lu~Z3BZPFLyL" id="XVg50m04V7IPDc87U8dQ-90">
          <mxCell style="html=1;overflow=block;blockSpacing=1;whiteSpace=wrap;rounded=1;arcSize=50;fontSize=16.7;fontColor=#333333;align=center;spacing=3.8;strokeColor=#5e5e5e;strokeOpacity=100;strokeWidth=2.3;dashed=1;dashPattern=1 1;shadow=1;" parent="1" vertex="1">
            <mxGeometry x="1502" y="-198" width="120" height="60" as="geometry" />
          </mxCell>
        </UserObject>
        <mxCell id="C3EjMfT6K7pHPiDqoNdO-12" style="edgeStyle=orthogonalEdgeStyle;rounded=1;orthogonalLoop=1;jettySize=auto;html=1;exitX=0;exitY=0.5;exitDx=0;exitDy=0;entryX=0.5;entryY=0;entryDx=0;entryDy=0;strokeWidth=2;fontSize=12;startFill=1;endArrow=none;endFill=0;" edge="1" parent="1" source="XVg50m04V7IPDc87U8dQ-92" target="C3EjMfT6K7pHPiDqoNdO-11">
          <mxGeometry relative="1" as="geometry" />
        </mxCell>
        <UserObject label=" " lucidchartObjectId="0ZP0.2TleyX3" id="XVg50m04V7IPDc87U8dQ-92">
          <mxCell style="html=1;overflow=block;blockSpacing=1;whiteSpace=wrap;fontSize=16.7;fontColor=#333333;align=center;spacing=9;strokeColor=#5e5e5e;strokeOpacity=100;rounded=1;absoluteArcSize=1;arcSize=9;strokeWidth=2.3;direction=north;flipV=0;flipH=1;" parent="1" vertex="1">
            <mxGeometry x="1472.5" y="27" width="30" height="45" as="geometry" />
          </mxCell>
        </UserObject>
        <UserObject label=" " lucidchartObjectId="0ZP0.2TleyX3" id="XVg50m04V7IPDc87U8dQ-93">
          <mxCell style="html=1;overflow=block;blockSpacing=1;whiteSpace=wrap;fontSize=16.7;fontColor=#333333;align=center;spacing=9;strokeColor=#5e5e5e;strokeOpacity=100;rounded=1;absoluteArcSize=1;arcSize=9;strokeWidth=2.3;direction=north;flipV=0;flipH=1;" parent="1" vertex="1">
            <mxGeometry x="1472.5" y="-18" width="30" height="45" as="geometry" />
          </mxCell>
        </UserObject>
        <mxCell id="XVg50m04V7IPDc87U8dQ-95" value="" style="endArrow=open;html=1;rounded=1;strokeWidth=2;startArrow=open;startFill=0;endFill=0;" parent="1" edge="1">
          <mxGeometry width="50" height="50" relative="1" as="geometry">
            <mxPoint x="1512.5" y="29.913333333332957" as="sourcePoint" />
            <mxPoint x="1512.5" y="69.07999999999993" as="targetPoint" />
          </mxGeometry>
        </mxCell>
        <mxCell id="C3EjMfT6K7pHPiDqoNdO-14" style="edgeStyle=orthogonalEdgeStyle;rounded=1;orthogonalLoop=1;jettySize=auto;html=1;exitX=0;exitY=0.5;exitDx=0;exitDy=0;entryX=0.5;entryY=0;entryDx=0;entryDy=0;strokeWidth=2;fontSize=12;startFill=1;endArrow=none;endFill=0;" edge="1" parent="1" source="XVg50m04V7IPDc87U8dQ-96" target="C3EjMfT6K7pHPiDqoNdO-11">
          <mxGeometry relative="1" as="geometry" />
        </mxCell>
        <UserObject label=" " lucidchartObjectId="0ZP0.2TleyX3" id="XVg50m04V7IPDc87U8dQ-96">
          <mxCell style="html=1;overflow=block;blockSpacing=1;whiteSpace=wrap;fontSize=16.7;fontColor=#333333;align=center;spacing=9;strokeColor=#5e5e5e;strokeOpacity=100;rounded=1;absoluteArcSize=1;arcSize=9;strokeWidth=2.3;direction=north;flipV=0;flipH=1;" parent="1" vertex="1">
            <mxGeometry x="1547" y="27" width="30" height="45" as="geometry" />
          </mxCell>
        </UserObject>
        <UserObject label=" " lucidchartObjectId="0ZP0.2TleyX3" id="XVg50m04V7IPDc87U8dQ-97">
          <mxCell style="html=1;overflow=block;blockSpacing=1;whiteSpace=wrap;fontSize=16.7;fontColor=#333333;align=center;spacing=9;strokeColor=#5e5e5e;strokeOpacity=100;rounded=1;absoluteArcSize=1;arcSize=9;strokeWidth=2.3;direction=north;flipV=0;flipH=1;" parent="1" vertex="1">
            <mxGeometry x="1547" y="-18" width="30" height="45" as="geometry" />
          </mxCell>
        </UserObject>
        <mxCell id="XVg50m04V7IPDc87U8dQ-99" value="" style="endArrow=open;html=1;rounded=1;strokeWidth=2;startArrow=open;startFill=0;endFill=0;" parent="1" edge="1">
          <mxGeometry width="50" height="50" relative="1" as="geometry">
            <mxPoint x="1586.9999999999995" y="29.913333333332957" as="sourcePoint" />
            <mxPoint x="1586.9999999999995" y="69.07999999999993" as="targetPoint" />
          </mxGeometry>
        </mxCell>
        <mxCell id="C3EjMfT6K7pHPiDqoNdO-18" style="edgeStyle=orthogonalEdgeStyle;rounded=1;orthogonalLoop=1;jettySize=auto;html=1;exitX=0;exitY=0.5;exitDx=0;exitDy=0;entryX=0.5;entryY=0;entryDx=0;entryDy=0;strokeWidth=2;fontSize=12;startFill=1;endArrow=none;endFill=0;" edge="1" parent="1" source="XVg50m04V7IPDc87U8dQ-108" target="C3EjMfT6K7pHPiDqoNdO-11">
          <mxGeometry relative="1" as="geometry" />
        </mxCell>
        <UserObject label=" " lucidchartObjectId="0ZP0.2TleyX3" id="XVg50m04V7IPDc87U8dQ-108">
          <mxCell style="html=1;overflow=block;blockSpacing=1;whiteSpace=wrap;fontSize=16.7;fontColor=#333333;align=center;spacing=9;strokeColor=#5e5e5e;strokeOpacity=100;rounded=1;absoluteArcSize=1;arcSize=9;strokeWidth=2.3;direction=north;flipV=0;flipH=1;" parent="1" vertex="1">
            <mxGeometry x="1769.5" y="27.5" width="30" height="45" as="geometry" />
          </mxCell>
        </UserObject>
        <UserObject label=" " lucidchartObjectId="0ZP0.2TleyX3" id="XVg50m04V7IPDc87U8dQ-109">
          <mxCell style="html=1;overflow=block;blockSpacing=1;whiteSpace=wrap;fontSize=16.7;fontColor=#333333;align=center;spacing=9;strokeColor=#5e5e5e;strokeOpacity=100;rounded=1;absoluteArcSize=1;arcSize=9;strokeWidth=2.3;direction=north;flipV=0;flipH=1;" parent="1" vertex="1">
            <mxGeometry x="1769.5" y="-17.5" width="30" height="45" as="geometry" />
          </mxCell>
        </UserObject>
        <mxCell id="XVg50m04V7IPDc87U8dQ-111" value="" style="endArrow=open;html=1;rounded=1;strokeWidth=2;startArrow=open;startFill=0;endFill=0;" parent="1" edge="1">
          <mxGeometry width="50" height="50" relative="1" as="geometry">
            <mxPoint x="1809.5" y="30.413333333332957" as="sourcePoint" />
            <mxPoint x="1809.5" y="69.57999999999993" as="targetPoint" />
          </mxGeometry>
        </mxCell>
        <mxCell id="C3EjMfT6K7pHPiDqoNdO-16" style="edgeStyle=orthogonalEdgeStyle;rounded=1;orthogonalLoop=1;jettySize=auto;html=1;exitX=0;exitY=0.5;exitDx=0;exitDy=0;entryX=0.5;entryY=0;entryDx=0;entryDy=0;strokeWidth=2;fontSize=12;startFill=1;endArrow=none;endFill=0;" edge="1" parent="1" source="XVg50m04V7IPDc87U8dQ-112" target="C3EjMfT6K7pHPiDqoNdO-11">
          <mxGeometry relative="1" as="geometry" />
        </mxCell>
        <UserObject label=" " lucidchartObjectId="0ZP0.2TleyX3" id="XVg50m04V7IPDc87U8dQ-112">
          <mxCell style="html=1;overflow=block;blockSpacing=1;whiteSpace=wrap;fontSize=16.7;fontColor=#333333;align=center;spacing=9;strokeColor=#5e5e5e;strokeOpacity=100;rounded=1;absoluteArcSize=1;arcSize=9;strokeWidth=2.3;direction=north;flipV=0;flipH=1;" parent="1" vertex="1">
            <mxGeometry x="1619" y="27.5" width="30" height="45" as="geometry" />
          </mxCell>
        </UserObject>
        <UserObject label=" " lucidchartObjectId="0ZP0.2TleyX3" id="XVg50m04V7IPDc87U8dQ-113">
          <mxCell style="html=1;overflow=block;blockSpacing=1;whiteSpace=wrap;fontSize=16.7;fontColor=#333333;align=center;spacing=9;strokeColor=#5e5e5e;strokeOpacity=100;rounded=1;absoluteArcSize=1;arcSize=9;strokeWidth=2.3;direction=north;flipV=0;flipH=1;" parent="1" vertex="1">
            <mxGeometry x="1619" y="-17.5" width="30" height="45" as="geometry" />
          </mxCell>
        </UserObject>
        <mxCell id="XVg50m04V7IPDc87U8dQ-115" value="" style="endArrow=open;html=1;rounded=1;strokeWidth=2;startArrow=open;startFill=0;endFill=0;" parent="1" edge="1">
          <mxGeometry width="50" height="50" relative="1" as="geometry">
            <mxPoint x="1659" y="30.413333333332957" as="sourcePoint" />
            <mxPoint x="1659" y="69.57999999999993" as="targetPoint" />
          </mxGeometry>
        </mxCell>
        <mxCell id="C3EjMfT6K7pHPiDqoNdO-17" style="edgeStyle=orthogonalEdgeStyle;rounded=1;orthogonalLoop=1;jettySize=auto;html=1;exitX=0;exitY=0.5;exitDx=0;exitDy=0;entryX=0.5;entryY=0;entryDx=0;entryDy=0;strokeWidth=2;fontSize=12;startFill=1;endArrow=none;endFill=0;" edge="1" parent="1" source="XVg50m04V7IPDc87U8dQ-124" target="C3EjMfT6K7pHPiDqoNdO-11">
          <mxGeometry relative="1" as="geometry" />
        </mxCell>
        <UserObject label=" " lucidchartObjectId="0ZP0.2TleyX3" id="XVg50m04V7IPDc87U8dQ-124">
          <mxCell style="html=1;overflow=block;blockSpacing=1;whiteSpace=wrap;fontSize=16.7;fontColor=#333333;align=center;spacing=9;strokeColor=#5e5e5e;strokeOpacity=100;rounded=1;absoluteArcSize=1;arcSize=9;strokeWidth=2.3;direction=north;flipV=0;flipH=1;" parent="1" vertex="1">
            <mxGeometry x="1694" y="27" width="30" height="45" as="geometry" />
          </mxCell>
        </UserObject>
        <mxCell id="XVg50m04V7IPDc87U8dQ-127" value="" style="endArrow=open;html=1;rounded=1;strokeWidth=2;startArrow=open;startFill=0;endFill=0;" parent="1" edge="1">
          <mxGeometry width="50" height="50" relative="1" as="geometry">
            <mxPoint x="1734.5" y="30.413333333332957" as="sourcePoint" />
            <mxPoint x="1734.5" y="69.57999999999993" as="targetPoint" />
          </mxGeometry>
        </mxCell>
        <UserObject label="&lt;div&gt;&lt;u&gt;&lt;b&gt;USER&lt;/b&gt;&lt;/u&gt;&lt;/div&gt;&lt;div&gt;&lt;span style=&quot;font-size: 12px;&quot;&gt;(id)&lt;br&gt;&lt;/span&gt;&lt;/div&gt;" lucidchartObjectId="lu~Z3BZPFLyL" id="D6gaMdaGB33uT7nynRI7-1">
          <mxCell style="html=1;overflow=block;blockSpacing=1;whiteSpace=wrap;rounded=1;arcSize=50;fontSize=16.7;fontColor=#333333;align=center;spacing=3.8;strokeColor=#5e5e5e;strokeOpacity=100;strokeWidth=2.3;" vertex="1" parent="1">
            <mxGeometry x="-360" y="1540" width="120" height="60" as="geometry" />
          </mxCell>
        </UserObject>
        <UserObject label="&lt;div&gt;&lt;u&gt;&lt;b&gt;REPORT&lt;/b&gt;&lt;/u&gt;&lt;/div&gt;&lt;div&gt;&lt;span style=&quot;font-size: 12px;&quot;&gt;(id)&lt;/span&gt;&lt;u&gt;&lt;b&gt;&lt;/b&gt;&lt;/u&gt;&lt;/div&gt;" lucidchartObjectId="lu~Z3BZPFLyL" id="D6gaMdaGB33uT7nynRI7-3">
          <mxCell style="html=1;overflow=block;blockSpacing=1;whiteSpace=wrap;rounded=1;arcSize=50;fontSize=16.7;fontColor=#333333;align=center;spacing=3.8;strokeColor=#5e5e5e;strokeOpacity=100;strokeWidth=2.3;" vertex="1" parent="1">
            <mxGeometry x="240" y="1540" width="120" height="60" as="geometry" />
          </mxCell>
        </UserObject>
        <mxCell id="D6gaMdaGB33uT7nynRI7-27" style="edgeStyle=orthogonalEdgeStyle;rounded=1;orthogonalLoop=1;jettySize=auto;html=1;entryX=0.5;entryY=0;entryDx=0;entryDy=0;strokeWidth=2;fontSize=12;startFill=1;endArrow=none;endFill=0;" edge="1" parent="1" source="D6gaMdaGB33uT7nynRI7-4" target="D6gaMdaGB33uT7nynRI7-23">
          <mxGeometry relative="1" as="geometry" />
        </mxCell>
        <UserObject label="&lt;div&gt;&lt;u&gt;&lt;b&gt;AD&lt;/b&gt;&lt;/u&gt;&lt;/div&gt;&lt;div&gt;&lt;span style=&quot;font-size: 12px;&quot;&gt;(id)&lt;/span&gt;&lt;u&gt;&lt;b&gt;&lt;/b&gt;&lt;/u&gt;&lt;/div&gt;" lucidchartObjectId="lu~Z3BZPFLyL" id="D6gaMdaGB33uT7nynRI7-4">
          <mxCell style="html=1;overflow=block;blockSpacing=1;whiteSpace=wrap;rounded=1;arcSize=50;fontSize=16.7;fontColor=#333333;align=center;spacing=3.8;strokeColor=#5e5e5e;strokeOpacity=100;strokeWidth=2.3;" vertex="1" parent="1">
            <mxGeometry x="-60" y="1610" width="120" height="60" as="geometry" />
          </mxCell>
        </UserObject>
        <mxCell id="D6gaMdaGB33uT7nynRI7-19" style="edgeStyle=orthogonalEdgeStyle;rounded=1;orthogonalLoop=1;jettySize=auto;html=1;exitX=0.5;exitY=0;exitDx=0;exitDy=0;entryX=0.5;entryY=1;entryDx=0;entryDy=0;strokeWidth=2;fontSize=12;startFill=1;endArrow=none;endFill=0;" edge="1" parent="1" source="D6gaMdaGB33uT7nynRI7-5" target="D6gaMdaGB33uT7nynRI7-13">
          <mxGeometry relative="1" as="geometry" />
        </mxCell>
        <mxCell id="C3EjMfT6K7pHPiDqoNdO-6" style="edgeStyle=orthogonalEdgeStyle;rounded=1;orthogonalLoop=1;jettySize=auto;html=1;exitX=0.5;exitY=1;exitDx=0;exitDy=0;entryX=1;entryY=0.5;entryDx=0;entryDy=0;strokeWidth=2;fontSize=12;startFill=1;endArrow=none;endFill=0;" edge="1" parent="1" source="D6gaMdaGB33uT7nynRI7-5" target="C3EjMfT6K7pHPiDqoNdO-3">
          <mxGeometry relative="1" as="geometry" />
        </mxCell>
        <UserObject label="&lt;div&gt;&lt;u&gt;&lt;b&gt;COMMENT&lt;/b&gt;&lt;/u&gt;&lt;/div&gt;&lt;div&gt;&lt;span style=&quot;font-size: 12px;&quot;&gt;(id)&lt;/span&gt;&lt;u&gt;&lt;b&gt;&lt;/b&gt;&lt;/u&gt;&lt;/div&gt;" lucidchartObjectId="lu~Z3BZPFLyL" id="D6gaMdaGB33uT7nynRI7-5">
          <mxCell style="html=1;overflow=block;blockSpacing=1;whiteSpace=wrap;rounded=1;arcSize=50;fontSize=16.7;fontColor=#333333;align=center;spacing=3.8;strokeColor=#5e5e5e;strokeOpacity=100;strokeWidth=2.3;" vertex="1" parent="1">
            <mxGeometry x="-60" y="1470" width="120" height="60" as="geometry" />
          </mxCell>
        </UserObject>
        <UserObject label=" " lucidchartObjectId="0ZP0.2TleyX3" id="D6gaMdaGB33uT7nynRI7-12">
          <mxCell style="html=1;overflow=block;blockSpacing=1;whiteSpace=wrap;fontSize=16.7;fontColor=#333333;align=center;spacing=9;strokeColor=#5e5e5e;strokeOpacity=100;rounded=1;absoluteArcSize=1;arcSize=9;strokeWidth=2.3;" vertex="1" parent="1">
            <mxGeometry x="-67.5" y="1400" width="45" height="30" as="geometry" />
          </mxCell>
        </UserObject>
        <UserObject label=" " lucidchartObjectId="0ZP0.2TleyX3" id="D6gaMdaGB33uT7nynRI7-13">
          <mxCell style="html=1;overflow=block;blockSpacing=1;whiteSpace=wrap;fontSize=16.7;fontColor=#333333;align=center;spacing=9;strokeColor=#5e5e5e;strokeOpacity=100;rounded=1;absoluteArcSize=1;arcSize=9;strokeWidth=2.3;" vertex="1" parent="1">
            <mxGeometry x="-22.5" y="1400" width="45" height="30" as="geometry" />
          </mxCell>
        </UserObject>
        <UserObject label=" " lucidchartObjectId="0ZP0.2TleyX3" id="D6gaMdaGB33uT7nynRI7-14">
          <mxCell style="html=1;overflow=block;blockSpacing=1;whiteSpace=wrap;fontSize=16.7;fontColor=#333333;align=center;spacing=9;strokeColor=#5e5e5e;strokeOpacity=100;rounded=1;absoluteArcSize=1;arcSize=9;strokeWidth=2.3;" vertex="1" parent="1">
            <mxGeometry x="22.5" y="1400" width="45" height="30" as="geometry" />
          </mxCell>
        </UserObject>
        <mxCell id="D6gaMdaGB33uT7nynRI7-16" value="" style="endArrow=open;html=1;rounded=1;strokeWidth=2;startArrow=open;startFill=0;endFill=0;" edge="1" parent="1">
          <mxGeometry width="50" height="50" relative="1" as="geometry">
            <mxPoint x="-67.5" y="1389.9999999999998" as="sourcePoint" />
            <mxPoint x="20" y="1390" as="targetPoint" />
          </mxGeometry>
        </mxCell>
        <UserObject label=" " lucidchartObjectId="0ZP0.2TleyX3" id="D6gaMdaGB33uT7nynRI7-22">
          <mxCell style="html=1;overflow=block;blockSpacing=1;whiteSpace=wrap;fontSize=16.7;fontColor=#333333;align=center;spacing=9;strokeColor=#5e5e5e;strokeOpacity=100;rounded=1;absoluteArcSize=1;arcSize=9;strokeWidth=2.3;" vertex="1" parent="1">
            <mxGeometry x="-67.5" y="1710" width="45" height="30" as="geometry" />
          </mxCell>
        </UserObject>
        <UserObject label=" " lucidchartObjectId="0ZP0.2TleyX3" id="D6gaMdaGB33uT7nynRI7-23">
          <mxCell style="html=1;overflow=block;blockSpacing=1;whiteSpace=wrap;fontSize=16.7;fontColor=#333333;align=center;spacing=9;strokeColor=#5e5e5e;strokeOpacity=100;rounded=1;absoluteArcSize=1;arcSize=9;strokeWidth=2.3;" vertex="1" parent="1">
            <mxGeometry x="-22.5" y="1710" width="45" height="30" as="geometry" />
          </mxCell>
        </UserObject>
        <UserObject label=" " lucidchartObjectId="0ZP0.2TleyX3" id="D6gaMdaGB33uT7nynRI7-24">
          <mxCell style="html=1;overflow=block;blockSpacing=1;whiteSpace=wrap;fontSize=16.7;fontColor=#333333;align=center;spacing=9;strokeColor=#5e5e5e;strokeOpacity=100;rounded=1;absoluteArcSize=1;arcSize=9;strokeWidth=2.3;" vertex="1" parent="1">
            <mxGeometry x="22.5" y="1710" width="45" height="30" as="geometry" />
          </mxCell>
        </UserObject>
        <mxCell id="D6gaMdaGB33uT7nynRI7-25" value="" style="endArrow=open;html=1;rounded=1;strokeWidth=2;startArrow=open;startFill=0;endFill=0;" edge="1" parent="1">
          <mxGeometry width="50" height="50" relative="1" as="geometry">
            <mxPoint x="-67.5" y="1750" as="sourcePoint" />
            <mxPoint x="20" y="1750" as="targetPoint" />
          </mxGeometry>
        </mxCell>
        <mxCell id="D6gaMdaGB33uT7nynRI7-30" value="" style="orthogonalLoop=1;jettySize=auto;html=1;exitX=0;exitY=0.5;exitDx=0;exitDy=0;entryX=1;entryY=0.5;entryDx=0;entryDy=0;rounded=1;edgeStyle=orthogonalEdgeStyle;endArrow=none;endFill=0;strokeWidth=2;startArrow=none;" edge="1" parent="1">
          <mxGeometry relative="1" as="geometry">
            <mxPoint x="-145.00000000000045" y="1496" as="sourcePoint" />
            <mxPoint x="-145.00000000000045" y="1496" as="targetPoint" />
            <Array as="points" />
          </mxGeometry>
        </mxCell>
        <UserObject label=" " lucidchartObjectId="0ZP0.2TleyX3" id="D6gaMdaGB33uT7nynRI7-32">
          <mxCell style="html=1;overflow=block;blockSpacing=1;whiteSpace=wrap;fontSize=16.7;fontColor=#333333;align=center;spacing=9;strokeColor=#5e5e5e;strokeOpacity=100;rounded=1;absoluteArcSize=1;arcSize=9;strokeWidth=2.3;" vertex="1" parent="1">
            <mxGeometry x="-135" y="1485" width="45" height="30" as="geometry" />
          </mxCell>
        </UserObject>
        <mxCell id="D6gaMdaGB33uT7nynRI7-33" value="" style="endArrow=open;html=1;rounded=1;strokeWidth=2;startArrow=open;startFill=0;endFill=0;" edge="1" parent="1">
          <mxGeometry width="50" height="50" relative="1" as="geometry">
            <mxPoint x="-177.50000000000045" y="1474.5" as="sourcePoint" />
            <mxPoint x="-137.50000000000045" y="1474.5" as="targetPoint" />
          </mxGeometry>
        </mxCell>
        <mxCell id="D6gaMdaGB33uT7nynRI7-34" value="" style="orthogonalLoop=1;jettySize=auto;html=1;exitX=0;exitY=0.5;exitDx=0;exitDy=0;entryX=1;entryY=0.5;entryDx=0;entryDy=0;rounded=1;edgeStyle=orthogonalEdgeStyle;endArrow=none;endFill=0;strokeWidth=2;startArrow=none;" edge="1" parent="1">
          <mxGeometry relative="1" as="geometry">
            <mxPoint x="-145.00000000000045" y="1503.5" as="sourcePoint" />
            <mxPoint x="-145.00000000000045" y="1503.5" as="targetPoint" />
            <Array as="points" />
          </mxGeometry>
        </mxCell>
        <UserObject label=" " lucidchartObjectId="0ZP0.2TleyX3" id="D6gaMdaGB33uT7nynRI7-35">
          <mxCell style="html=1;overflow=block;blockSpacing=1;whiteSpace=wrap;fontSize=16.7;fontColor=#333333;align=center;spacing=9;strokeColor=#5e5e5e;strokeOpacity=100;rounded=1;absoluteArcSize=1;arcSize=9;strokeWidth=2.3;" vertex="1" parent="1">
            <mxGeometry x="-180" y="1485" width="45" height="30" as="geometry" />
          </mxCell>
        </UserObject>
        <mxCell id="D6gaMdaGB33uT7nynRI7-37" value="" style="orthogonalLoop=1;jettySize=auto;html=1;exitX=0;exitY=0.5;exitDx=0;exitDy=0;entryX=1;entryY=0.5;entryDx=0;entryDy=0;rounded=1;edgeStyle=orthogonalEdgeStyle;endArrow=none;endFill=0;strokeWidth=2;startArrow=none;" edge="1" parent="1">
          <mxGeometry relative="1" as="geometry">
            <mxPoint x="-105.00000000000045" y="1460" as="sourcePoint" />
            <mxPoint x="-105.00000000000045" y="1460" as="targetPoint" />
            <Array as="points" />
          </mxGeometry>
        </mxCell>
        <mxCell id="D6gaMdaGB33uT7nynRI7-38" value="" style="orthogonalLoop=1;jettySize=auto;html=1;exitX=0;exitY=0.5;exitDx=0;exitDy=0;entryX=1;entryY=0.5;entryDx=0;entryDy=0;rounded=1;edgeStyle=orthogonalEdgeStyle;endArrow=none;endFill=0;strokeWidth=2;startArrow=none;" edge="1" parent="1">
          <mxGeometry relative="1" as="geometry">
            <mxPoint x="-105.00000000000045" y="1460" as="sourcePoint" />
            <mxPoint x="-105.00000000000045" y="1460" as="targetPoint" />
            <Array as="points" />
          </mxGeometry>
        </mxCell>
        <mxCell id="D6gaMdaGB33uT7nynRI7-43" value="" style="orthogonalLoop=1;jettySize=auto;html=1;exitX=0;exitY=0.5;exitDx=0;exitDy=0;entryX=1;entryY=0.5;entryDx=0;entryDy=0;rounded=1;edgeStyle=orthogonalEdgeStyle;endArrow=none;endFill=0;strokeWidth=2;startArrow=none;" edge="1" parent="1">
          <mxGeometry relative="1" as="geometry">
            <mxPoint x="-145.00000000000045" y="1636" as="sourcePoint" />
            <mxPoint x="-145.00000000000045" y="1636" as="targetPoint" />
            <Array as="points" />
          </mxGeometry>
        </mxCell>
        <UserObject label=" " lucidchartObjectId="0ZP0.2TleyX3" id="D6gaMdaGB33uT7nynRI7-44">
          <mxCell style="html=1;overflow=block;blockSpacing=1;whiteSpace=wrap;fontSize=16.7;fontColor=#333333;align=center;spacing=9;strokeColor=#5e5e5e;strokeOpacity=100;rounded=1;absoluteArcSize=1;arcSize=9;strokeWidth=2.3;" vertex="1" parent="1">
            <mxGeometry x="-135" y="1625" width="45" height="30" as="geometry" />
          </mxCell>
        </UserObject>
        <mxCell id="D6gaMdaGB33uT7nynRI7-45" value="" style="endArrow=open;html=1;rounded=1;strokeWidth=2;startArrow=open;startFill=0;endFill=0;" edge="1" parent="1">
          <mxGeometry width="50" height="50" relative="1" as="geometry">
            <mxPoint x="-177.50000000000045" y="1614.5" as="sourcePoint" />
            <mxPoint x="-137.50000000000045" y="1614.5" as="targetPoint" />
          </mxGeometry>
        </mxCell>
        <mxCell id="D6gaMdaGB33uT7nynRI7-46" value="" style="orthogonalLoop=1;jettySize=auto;html=1;exitX=0;exitY=0.5;exitDx=0;exitDy=0;entryX=1;entryY=0.5;entryDx=0;entryDy=0;rounded=1;edgeStyle=orthogonalEdgeStyle;endArrow=none;endFill=0;strokeWidth=2;startArrow=none;" edge="1" parent="1">
          <mxGeometry relative="1" as="geometry">
            <mxPoint x="-145.00000000000045" y="1643.5" as="sourcePoint" />
            <mxPoint x="-145.00000000000045" y="1643.5" as="targetPoint" />
            <Array as="points" />
          </mxGeometry>
        </mxCell>
        <UserObject label=" " lucidchartObjectId="0ZP0.2TleyX3" id="D6gaMdaGB33uT7nynRI7-47">
          <mxCell style="html=1;overflow=block;blockSpacing=1;whiteSpace=wrap;fontSize=16.7;fontColor=#333333;align=center;spacing=9;strokeColor=#5e5e5e;strokeOpacity=100;rounded=1;absoluteArcSize=1;arcSize=9;strokeWidth=2.3;" vertex="1" parent="1">
            <mxGeometry x="-180" y="1625" width="45" height="30" as="geometry" />
          </mxCell>
        </UserObject>
        <mxCell id="D6gaMdaGB33uT7nynRI7-48" value="" style="orthogonalLoop=1;jettySize=auto;html=1;exitX=0;exitY=0.5;exitDx=0;exitDy=0;entryX=1;entryY=0.5;entryDx=0;entryDy=0;rounded=1;edgeStyle=orthogonalEdgeStyle;endArrow=none;endFill=0;strokeWidth=2;startArrow=none;" edge="1" parent="1">
          <mxGeometry relative="1" as="geometry">
            <mxPoint x="-105.00000000000045" y="1600" as="sourcePoint" />
            <mxPoint x="-105.00000000000045" y="1600" as="targetPoint" />
            <Array as="points" />
          </mxGeometry>
        </mxCell>
        <mxCell id="D6gaMdaGB33uT7nynRI7-49" value="" style="orthogonalLoop=1;jettySize=auto;html=1;exitX=0;exitY=0.5;exitDx=0;exitDy=0;entryX=1;entryY=0.5;entryDx=0;entryDy=0;rounded=1;edgeStyle=orthogonalEdgeStyle;endArrow=none;endFill=0;strokeWidth=2;startArrow=none;" edge="1" parent="1">
          <mxGeometry relative="1" as="geometry">
            <mxPoint x="-105.00000000000045" y="1600" as="sourcePoint" />
            <mxPoint x="-105.00000000000045" y="1600" as="targetPoint" />
            <Array as="points" />
          </mxGeometry>
        </mxCell>
        <mxCell id="C3EjMfT6K7pHPiDqoNdO-7" style="edgeStyle=orthogonalEdgeStyle;rounded=1;orthogonalLoop=1;jettySize=auto;html=1;exitX=0;exitY=0.5;exitDx=0;exitDy=0;entryX=0.5;entryY=0;entryDx=0;entryDy=0;strokeWidth=2;fontSize=12;startFill=1;endArrow=none;endFill=0;" edge="1" parent="1" source="C3EjMfT6K7pHPiDqoNdO-2" target="D6gaMdaGB33uT7nynRI7-4">
          <mxGeometry relative="1" as="geometry" />
        </mxCell>
        <UserObject label=" " lucidchartObjectId="0ZP0.2TleyX3" id="C3EjMfT6K7pHPiDqoNdO-2">
          <mxCell style="html=1;overflow=block;blockSpacing=1;whiteSpace=wrap;fontSize=16.7;fontColor=#333333;align=center;spacing=9;strokeColor=#5e5e5e;strokeOpacity=100;rounded=1;absoluteArcSize=1;arcSize=9;strokeWidth=2.3;direction=north;flipV=0;flipH=1;" vertex="1" parent="1">
            <mxGeometry x="-15" y="1569" width="30" height="24" as="geometry" />
          </mxCell>
        </UserObject>
        <UserObject label=" " lucidchartObjectId="0ZP0.2TleyX3" id="C3EjMfT6K7pHPiDqoNdO-3">
          <mxCell style="html=1;overflow=block;blockSpacing=1;whiteSpace=wrap;fontSize=16.7;fontColor=#333333;align=center;spacing=9;strokeColor=#5e5e5e;strokeOpacity=100;rounded=1;absoluteArcSize=1;arcSize=9;strokeWidth=2.3;direction=north;flipV=0;flipH=1;" vertex="1" parent="1">
            <mxGeometry x="-15" y="1543" width="30" height="26" as="geometry" />
          </mxCell>
        </UserObject>
        <mxCell id="C3EjMfT6K7pHPiDqoNdO-5" value="" style="endArrow=open;html=1;rounded=1;strokeWidth=2;startArrow=open;startFill=0;endFill=0;" edge="1" parent="1">
          <mxGeometry x="1" y="-258" width="50" height="50" relative="1" as="geometry">
            <mxPoint x="22.5" y="1569" as="sourcePoint" />
            <mxPoint x="22.5" y="1593" as="targetPoint" />
            <mxPoint x="208" y="253" as="offset" />
          </mxGeometry>
        </mxCell>
        <UserObject label=" " lucidchartObjectId="0ZP0.2TleyX3" id="C3EjMfT6K7pHPiDqoNdO-9">
          <mxCell style="html=1;overflow=block;blockSpacing=1;whiteSpace=wrap;fontSize=16.7;fontColor=#333333;align=center;spacing=9;strokeColor=#5e5e5e;strokeOpacity=100;rounded=1;absoluteArcSize=1;arcSize=9;strokeWidth=2.3;direction=north;flipV=0;flipH=1;" vertex="1" parent="1">
            <mxGeometry x="1694" y="-17.5" width="30" height="45" as="geometry" />
          </mxCell>
        </UserObject>
        <UserObject label="&lt;div&gt;&lt;u&gt;&lt;b&gt;COMMENT&lt;/b&gt;&lt;/u&gt;&lt;/div&gt;&lt;div&gt;&lt;span style=&quot;font-size: 12px;&quot;&gt;(id)&lt;/span&gt;&lt;u&gt;&lt;b&gt;&lt;/b&gt;&lt;/u&gt;&lt;/div&gt;" lucidchartObjectId="lu~Z3BZPFLyL" id="C3EjMfT6K7pHPiDqoNdO-11">
          <mxCell style="html=1;overflow=block;blockSpacing=1;whiteSpace=wrap;rounded=1;arcSize=50;fontSize=16.7;fontColor=#333333;align=center;spacing=3.8;strokeColor=#5e5e5e;strokeOpacity=100;strokeWidth=2.3;" vertex="1" parent="1">
            <mxGeometry x="1574.5" y="200" width="120" height="60" as="geometry" />
          </mxCell>
        </UserObject>
        <UserObject label="&lt;div&gt;&lt;u&gt;&lt;b&gt;AD&lt;/b&gt;&lt;/u&gt;&lt;/div&gt;&lt;div&gt;&lt;span style=&quot;font-size: 12px;&quot;&gt;(id)&lt;/span&gt;&lt;u&gt;&lt;b&gt;&lt;/b&gt;&lt;/u&gt;&lt;/div&gt;" lucidchartObjectId="lu~Z3BZPFLyL" id="C3EjMfT6K7pHPiDqoNdO-19">
          <mxCell style="html=1;overflow=block;blockSpacing=1;whiteSpace=wrap;rounded=1;arcSize=50;fontSize=16.7;fontColor=#333333;align=center;spacing=3.8;strokeColor=#5e5e5e;strokeOpacity=100;strokeWidth=2.3;" vertex="1" parent="1">
            <mxGeometry x="2388" y="200" width="120" height="60" as="geometry" />
          </mxCell>
        </UserObject>
        <mxCell id="C3EjMfT6K7pHPiDqoNdO-87" style="edgeStyle=orthogonalEdgeStyle;rounded=1;orthogonalLoop=1;jettySize=auto;html=1;exitX=0.5;exitY=1;exitDx=0;exitDy=0;entryX=1;entryY=0.5;entryDx=0;entryDy=0;strokeWidth=2;fontSize=12;startFill=1;endArrow=none;endFill=0;" edge="1" parent="1" source="C3EjMfT6K7pHPiDqoNdO-21" target="C3EjMfT6K7pHPiDqoNdO-73">
          <mxGeometry relative="1" as="geometry" />
        </mxCell>
        <UserObject label="reports" lucidchartObjectId="lu~Z3BZPFLyL" id="C3EjMfT6K7pHPiDqoNdO-21">
          <mxCell style="html=1;overflow=block;blockSpacing=1;whiteSpace=wrap;rounded=1;arcSize=50;fontSize=16.7;fontColor=#333333;align=center;spacing=3.8;strokeColor=#5e5e5e;strokeOpacity=100;strokeWidth=2.3;dashed=1;dashPattern=1 1;shadow=1;" vertex="1" parent="1">
            <mxGeometry x="2545.5" y="-127.5" width="120" height="60" as="geometry" />
          </mxCell>
        </UserObject>
        <mxCell id="C3EjMfT6K7pHPiDqoNdO-86" style="edgeStyle=orthogonalEdgeStyle;rounded=1;orthogonalLoop=1;jettySize=auto;html=1;exitX=0.5;exitY=1;exitDx=0;exitDy=0;entryX=1;entryY=0.5;entryDx=0;entryDy=0;strokeWidth=2;fontSize=12;startFill=1;endArrow=none;endFill=0;" edge="1" parent="1" source="C3EjMfT6K7pHPiDqoNdO-23" target="C3EjMfT6K7pHPiDqoNdO-83">
          <mxGeometry relative="1" as="geometry" />
        </mxCell>
        <UserObject label="visibility" lucidchartObjectId="lu~Z3BZPFLyL" id="C3EjMfT6K7pHPiDqoNdO-23">
          <mxCell style="html=1;overflow=block;blockSpacing=1;whiteSpace=wrap;rounded=1;arcSize=50;fontSize=16.7;fontColor=#333333;align=center;spacing=3.8;strokeColor=#5e5e5e;strokeOpacity=100;strokeWidth=2.3;dashed=1;dashPattern=1 1;shadow=1;" vertex="1" parent="1">
            <mxGeometry x="2694.5" y="-127.5" width="120" height="60" as="geometry" />
          </mxCell>
        </UserObject>
        <mxCell id="C3EjMfT6K7pHPiDqoNdO-85" style="edgeStyle=orthogonalEdgeStyle;rounded=1;orthogonalLoop=1;jettySize=auto;html=1;exitX=0.5;exitY=1;exitDx=0;exitDy=0;entryX=1;entryY=0.5;entryDx=0;entryDy=0;strokeWidth=2;fontSize=12;startFill=1;endArrow=none;endFill=0;" edge="1" parent="1" source="C3EjMfT6K7pHPiDqoNdO-25" target="C3EjMfT6K7pHPiDqoNdO-79">
          <mxGeometry relative="1" as="geometry" />
        </mxCell>
        <UserObject label="comments" lucidchartObjectId="lu~Z3BZPFLyL" id="C3EjMfT6K7pHPiDqoNdO-25">
          <mxCell style="html=1;overflow=block;blockSpacing=1;whiteSpace=wrap;rounded=1;arcSize=50;fontSize=16.7;fontColor=#333333;align=center;spacing=3.8;strokeColor=#5e5e5e;strokeOpacity=100;strokeWidth=2.3;dashed=1;dashPattern=1 1;shadow=1;" vertex="1" parent="1">
            <mxGeometry x="2620" y="-209.5" width="120" height="60" as="geometry" />
          </mxCell>
        </UserObject>
        <mxCell id="C3EjMfT6K7pHPiDqoNdO-84" style="edgeStyle=orthogonalEdgeStyle;rounded=1;orthogonalLoop=1;jettySize=auto;html=1;exitX=0.5;exitY=1;exitDx=0;exitDy=0;entryX=1;entryY=0.5;entryDx=0;entryDy=0;strokeWidth=2;fontSize=12;startFill=1;endArrow=none;endFill=0;" edge="1" parent="1" source="C3EjMfT6K7pHPiDqoNdO-27" target="C3EjMfT6K7pHPiDqoNdO-70">
          <mxGeometry relative="1" as="geometry" />
        </mxCell>
        <UserObject label="images" lucidchartObjectId="lu~Z3BZPFLyL" id="C3EjMfT6K7pHPiDqoNdO-27">
          <mxCell style="html=1;overflow=block;blockSpacing=1;whiteSpace=wrap;rounded=1;arcSize=50;fontSize=16.7;fontColor=#333333;align=center;spacing=3.8;strokeColor=#5e5e5e;strokeOpacity=100;strokeWidth=2.3;dashed=1;dashPattern=1 1;shadow=1;" vertex="1" parent="1">
            <mxGeometry x="2467" y="-209.5" width="120" height="60" as="geometry" />
          </mxCell>
        </UserObject>
        <mxCell id="C3EjMfT6K7pHPiDqoNdO-44" style="edgeStyle=orthogonalEdgeStyle;rounded=1;orthogonalLoop=1;jettySize=auto;html=1;exitX=1;exitY=0.5;exitDx=0;exitDy=0;entryX=0.5;entryY=1;entryDx=0;entryDy=0;strokeWidth=2;fontSize=12;startFill=1;endArrow=none;endFill=0;" edge="1" parent="1" source="C3EjMfT6K7pHPiDqoNdO-64" target="C3EjMfT6K7pHPiDqoNdO-49">
          <mxGeometry relative="1" as="geometry" />
        </mxCell>
        <mxCell id="C3EjMfT6K7pHPiDqoNdO-45" style="edgeStyle=orthogonalEdgeStyle;rounded=1;orthogonalLoop=1;jettySize=auto;html=1;entryX=1.026;entryY=0.524;entryDx=0;entryDy=0;entryPerimeter=0;strokeWidth=2;endArrow=none;endFill=0;" edge="1" parent="1" source="C3EjMfT6K7pHPiDqoNdO-46" target="C3EjMfT6K7pHPiDqoNdO-61">
          <mxGeometry relative="1" as="geometry" />
        </mxCell>
        <UserObject label="rate" lucidchartObjectId="lu~Z3BZPFLyL" id="C3EjMfT6K7pHPiDqoNdO-46">
          <mxCell style="html=1;overflow=block;blockSpacing=1;whiteSpace=wrap;rounded=1;arcSize=50;fontSize=16.7;fontColor=#333333;align=center;spacing=3.8;strokeColor=#5e5e5e;strokeOpacity=100;strokeWidth=2.3;dashed=1;dashPattern=1 1;shadow=1;" vertex="1" parent="1">
            <mxGeometry x="2387.5" y="-127.5" width="120" height="60" as="geometry" />
          </mxCell>
        </UserObject>
        <mxCell id="C3EjMfT6K7pHPiDqoNdO-47" style="edgeStyle=orthogonalEdgeStyle;rounded=1;orthogonalLoop=1;jettySize=auto;html=1;entryX=1;entryY=0.5;entryDx=0;entryDy=0;strokeWidth=2;endArrow=none;endFill=0;" edge="1" parent="1" source="C3EjMfT6K7pHPiDqoNdO-48">
          <mxGeometry relative="1" as="geometry">
            <mxPoint x="2373" y="-29.499999999999773" as="targetPoint" />
          </mxGeometry>
        </mxCell>
        <UserObject label="price" lucidchartObjectId="lu~Z3BZPFLyL" id="C3EjMfT6K7pHPiDqoNdO-48">
          <mxCell style="html=1;overflow=block;blockSpacing=1;whiteSpace=wrap;rounded=1;arcSize=50;fontSize=16.7;fontColor=#333333;align=center;spacing=3.8;strokeColor=#5e5e5e;strokeOpacity=100;strokeWidth=2.3;dashed=1;dashPattern=1 1;shadow=1;" vertex="1" parent="1">
            <mxGeometry x="2313" y="-210" width="120" height="60" as="geometry" />
          </mxCell>
        </UserObject>
        <UserObject label="city" lucidchartObjectId="lu~Z3BZPFLyL" id="C3EjMfT6K7pHPiDqoNdO-49">
          <mxCell style="html=1;overflow=block;blockSpacing=1;whiteSpace=wrap;rounded=1;arcSize=50;fontSize=16.7;fontColor=#333333;align=center;spacing=3.8;strokeColor=#5e5e5e;strokeOpacity=100;strokeWidth=2.3;dashed=1;dashPattern=1 1;shadow=1;" vertex="1" parent="1">
            <mxGeometry x="2238" y="-127.5" width="120" height="60" as="geometry" />
          </mxCell>
        </UserObject>
        <mxCell id="C3EjMfT6K7pHPiDqoNdO-50" style="edgeStyle=orthogonalEdgeStyle;rounded=1;orthogonalLoop=1;jettySize=auto;html=1;exitX=0.5;exitY=1;exitDx=0;exitDy=0;entryX=1;entryY=0.5;entryDx=0;entryDy=0;strokeWidth=2;endArrow=none;endFill=0;" edge="1" parent="1" source="C3EjMfT6K7pHPiDqoNdO-51" target="C3EjMfT6K7pHPiDqoNdO-55">
          <mxGeometry relative="1" as="geometry" />
        </mxCell>
        <UserObject label="titre" lucidchartObjectId="lu~Z3BZPFLyL" id="C3EjMfT6K7pHPiDqoNdO-51">
          <mxCell style="html=1;overflow=block;blockSpacing=1;whiteSpace=wrap;rounded=1;arcSize=50;fontSize=16.7;fontColor=#333333;align=center;spacing=3.8;strokeColor=#5e5e5e;strokeOpacity=100;strokeWidth=2.3;dashed=1;dashPattern=1 1;shadow=1;" vertex="1" parent="1">
            <mxGeometry x="2092.5" y="-127.5" width="120" height="60" as="geometry" />
          </mxCell>
        </UserObject>
        <mxCell id="C3EjMfT6K7pHPiDqoNdO-52" style="edgeStyle=orthogonalEdgeStyle;rounded=1;orthogonalLoop=1;jettySize=auto;html=1;entryX=1;entryY=0.5;entryDx=0;entryDy=0;strokeWidth=2;endArrow=none;endFill=0;" edge="1" parent="1" source="C3EjMfT6K7pHPiDqoNdO-53" target="C3EjMfT6K7pHPiDqoNdO-58">
          <mxGeometry relative="1" as="geometry" />
        </mxCell>
        <UserObject label="description" lucidchartObjectId="lu~Z3BZPFLyL" id="C3EjMfT6K7pHPiDqoNdO-53">
          <mxCell style="html=1;overflow=block;blockSpacing=1;whiteSpace=wrap;rounded=1;arcSize=50;fontSize=16.7;fontColor=#333333;align=center;spacing=3.8;strokeColor=#5e5e5e;strokeOpacity=100;strokeWidth=2.3;dashed=1;dashPattern=1 1;shadow=1;" vertex="1" parent="1">
            <mxGeometry x="2165.5" y="-210" width="120" height="60" as="geometry" />
          </mxCell>
        </UserObject>
        <mxCell id="C3EjMfT6K7pHPiDqoNdO-94" style="edgeStyle=orthogonalEdgeStyle;rounded=1;orthogonalLoop=1;jettySize=auto;html=1;exitX=0;exitY=0.5;exitDx=0;exitDy=0;entryX=0.5;entryY=0;entryDx=0;entryDy=0;strokeWidth=2;fontSize=12;startFill=1;endArrow=none;endFill=0;" edge="1" parent="1" source="C3EjMfT6K7pHPiDqoNdO-54" target="C3EjMfT6K7pHPiDqoNdO-19">
          <mxGeometry relative="1" as="geometry" />
        </mxCell>
        <UserObject label=" " lucidchartObjectId="0ZP0.2TleyX3" id="C3EjMfT6K7pHPiDqoNdO-54">
          <mxCell style="html=1;overflow=block;blockSpacing=1;whiteSpace=wrap;fontSize=16.7;fontColor=#333333;align=center;spacing=9;strokeColor=#5e5e5e;strokeOpacity=100;rounded=1;absoluteArcSize=1;arcSize=9;strokeWidth=2.3;direction=north;flipV=0;flipH=1;" vertex="1" parent="1">
            <mxGeometry x="2136" y="15" width="30" height="45" as="geometry" />
          </mxCell>
        </UserObject>
        <UserObject label=" " lucidchartObjectId="0ZP0.2TleyX3" id="C3EjMfT6K7pHPiDqoNdO-55">
          <mxCell style="html=1;overflow=block;blockSpacing=1;whiteSpace=wrap;fontSize=16.7;fontColor=#333333;align=center;spacing=9;strokeColor=#5e5e5e;strokeOpacity=100;rounded=1;absoluteArcSize=1;arcSize=9;strokeWidth=2.3;direction=north;flipV=0;flipH=1;" vertex="1" parent="1">
            <mxGeometry x="2136" y="-30" width="30" height="45" as="geometry" />
          </mxCell>
        </UserObject>
        <mxCell id="C3EjMfT6K7pHPiDqoNdO-56" value="" style="endArrow=open;html=1;rounded=1;strokeWidth=2;startArrow=open;startFill=0;endFill=0;" edge="1" parent="1">
          <mxGeometry width="50" height="50" relative="1" as="geometry">
            <mxPoint x="2176" y="17.913333333332957" as="sourcePoint" />
            <mxPoint x="2176" y="57.07999999999993" as="targetPoint" />
          </mxGeometry>
        </mxCell>
        <mxCell id="C3EjMfT6K7pHPiDqoNdO-95" style="edgeStyle=orthogonalEdgeStyle;rounded=1;orthogonalLoop=1;jettySize=auto;html=1;exitX=0;exitY=0.5;exitDx=0;exitDy=0;entryX=0.5;entryY=0;entryDx=0;entryDy=0;strokeWidth=2;fontSize=12;startFill=1;endArrow=none;endFill=0;" edge="1" parent="1" source="C3EjMfT6K7pHPiDqoNdO-57" target="C3EjMfT6K7pHPiDqoNdO-19">
          <mxGeometry relative="1" as="geometry" />
        </mxCell>
        <UserObject label=" " lucidchartObjectId="0ZP0.2TleyX3" id="C3EjMfT6K7pHPiDqoNdO-57">
          <mxCell style="html=1;overflow=block;blockSpacing=1;whiteSpace=wrap;fontSize=16.7;fontColor=#333333;align=center;spacing=9;strokeColor=#5e5e5e;strokeOpacity=100;rounded=1;absoluteArcSize=1;arcSize=9;strokeWidth=2.3;direction=north;flipV=0;flipH=1;" vertex="1" parent="1">
            <mxGeometry x="2210.5" y="15" width="30" height="45" as="geometry" />
          </mxCell>
        </UserObject>
        <UserObject label=" " lucidchartObjectId="0ZP0.2TleyX3" id="C3EjMfT6K7pHPiDqoNdO-58">
          <mxCell style="html=1;overflow=block;blockSpacing=1;whiteSpace=wrap;fontSize=16.7;fontColor=#333333;align=center;spacing=9;strokeColor=#5e5e5e;strokeOpacity=100;rounded=1;absoluteArcSize=1;arcSize=9;strokeWidth=2.3;direction=north;flipV=0;flipH=1;" vertex="1" parent="1">
            <mxGeometry x="2210.5" y="-30" width="30" height="45" as="geometry" />
          </mxCell>
        </UserObject>
        <mxCell id="C3EjMfT6K7pHPiDqoNdO-59" value="" style="endArrow=open;html=1;rounded=1;strokeWidth=2;startArrow=open;startFill=0;endFill=0;" edge="1" parent="1">
          <mxGeometry width="50" height="50" relative="1" as="geometry">
            <mxPoint x="2250.5" y="17.913333333332957" as="sourcePoint" />
            <mxPoint x="2250.5" y="57.07999999999993" as="targetPoint" />
          </mxGeometry>
        </mxCell>
        <mxCell id="C3EjMfT6K7pHPiDqoNdO-93" style="edgeStyle=orthogonalEdgeStyle;rounded=1;orthogonalLoop=1;jettySize=auto;html=1;exitX=0;exitY=0.5;exitDx=0;exitDy=0;entryX=0.5;entryY=0;entryDx=0;entryDy=0;strokeWidth=2;fontSize=12;startFill=1;endArrow=none;endFill=0;" edge="1" parent="1" source="C3EjMfT6K7pHPiDqoNdO-60" target="C3EjMfT6K7pHPiDqoNdO-19">
          <mxGeometry relative="1" as="geometry" />
        </mxCell>
        <UserObject label=" " lucidchartObjectId="0ZP0.2TleyX3" id="C3EjMfT6K7pHPiDqoNdO-60">
          <mxCell style="html=1;overflow=block;blockSpacing=1;whiteSpace=wrap;fontSize=16.7;fontColor=#333333;align=center;spacing=9;strokeColor=#5e5e5e;strokeOpacity=100;rounded=1;absoluteArcSize=1;arcSize=9;strokeWidth=2.3;direction=north;flipV=0;flipH=1;" vertex="1" parent="1">
            <mxGeometry x="2433" y="15.5" width="30" height="45" as="geometry" />
          </mxCell>
        </UserObject>
        <UserObject label=" " lucidchartObjectId="0ZP0.2TleyX3" id="C3EjMfT6K7pHPiDqoNdO-61">
          <mxCell style="html=1;overflow=block;blockSpacing=1;whiteSpace=wrap;fontSize=16.7;fontColor=#333333;align=center;spacing=9;strokeColor=#5e5e5e;strokeOpacity=100;rounded=1;absoluteArcSize=1;arcSize=9;strokeWidth=2.3;direction=north;flipV=0;flipH=1;" vertex="1" parent="1">
            <mxGeometry x="2433" y="-29.5" width="30" height="45" as="geometry" />
          </mxCell>
        </UserObject>
        <mxCell id="C3EjMfT6K7pHPiDqoNdO-62" value="" style="endArrow=open;html=1;rounded=1;strokeWidth=2;startArrow=open;startFill=0;endFill=0;" edge="1" parent="1">
          <mxGeometry width="50" height="50" relative="1" as="geometry">
            <mxPoint x="2473" y="18.41333333333273" as="sourcePoint" />
            <mxPoint x="2473" y="57.57999999999993" as="targetPoint" />
          </mxGeometry>
        </mxCell>
        <mxCell id="C3EjMfT6K7pHPiDqoNdO-96" style="edgeStyle=orthogonalEdgeStyle;rounded=1;orthogonalLoop=1;jettySize=auto;html=1;exitX=0;exitY=0.5;exitDx=0;exitDy=0;entryX=0.5;entryY=0;entryDx=0;entryDy=0;strokeWidth=2;fontSize=12;startFill=1;endArrow=none;endFill=0;" edge="1" parent="1" source="C3EjMfT6K7pHPiDqoNdO-63" target="C3EjMfT6K7pHPiDqoNdO-19">
          <mxGeometry relative="1" as="geometry" />
        </mxCell>
        <UserObject label=" " lucidchartObjectId="0ZP0.2TleyX3" id="C3EjMfT6K7pHPiDqoNdO-63">
          <mxCell style="html=1;overflow=block;blockSpacing=1;whiteSpace=wrap;fontSize=16.7;fontColor=#333333;align=center;spacing=9;strokeColor=#5e5e5e;strokeOpacity=100;rounded=1;absoluteArcSize=1;arcSize=9;strokeWidth=2.3;direction=north;flipV=0;flipH=1;" vertex="1" parent="1">
            <mxGeometry x="2282.5" y="15.5" width="30" height="45" as="geometry" />
          </mxCell>
        </UserObject>
        <UserObject label=" " lucidchartObjectId="0ZP0.2TleyX3" id="C3EjMfT6K7pHPiDqoNdO-64">
          <mxCell style="html=1;overflow=block;blockSpacing=1;whiteSpace=wrap;fontSize=16.7;fontColor=#333333;align=center;spacing=9;strokeColor=#5e5e5e;strokeOpacity=100;rounded=1;absoluteArcSize=1;arcSize=9;strokeWidth=2.3;direction=north;flipV=0;flipH=1;" vertex="1" parent="1">
            <mxGeometry x="2282.5" y="-29.5" width="30" height="45" as="geometry" />
          </mxCell>
        </UserObject>
        <mxCell id="C3EjMfT6K7pHPiDqoNdO-65" value="" style="endArrow=open;html=1;rounded=1;strokeWidth=2;startArrow=open;startFill=0;endFill=0;" edge="1" parent="1">
          <mxGeometry width="50" height="50" relative="1" as="geometry">
            <mxPoint x="2322.5" y="18.41333333333273" as="sourcePoint" />
            <mxPoint x="2322.5" y="57.57999999999993" as="targetPoint" />
          </mxGeometry>
        </mxCell>
        <mxCell id="C3EjMfT6K7pHPiDqoNdO-97" style="edgeStyle=orthogonalEdgeStyle;rounded=1;orthogonalLoop=1;jettySize=auto;html=1;exitX=0;exitY=0.5;exitDx=0;exitDy=0;entryX=0.5;entryY=0;entryDx=0;entryDy=0;strokeWidth=2;fontSize=12;startFill=1;endArrow=none;endFill=0;" edge="1" parent="1" source="C3EjMfT6K7pHPiDqoNdO-66" target="C3EjMfT6K7pHPiDqoNdO-19">
          <mxGeometry relative="1" as="geometry" />
        </mxCell>
        <UserObject label=" " lucidchartObjectId="0ZP0.2TleyX3" id="C3EjMfT6K7pHPiDqoNdO-66">
          <mxCell style="html=1;overflow=block;blockSpacing=1;whiteSpace=wrap;fontSize=16.7;fontColor=#333333;align=center;spacing=9;strokeColor=#5e5e5e;strokeOpacity=100;rounded=1;absoluteArcSize=1;arcSize=9;strokeWidth=2.3;direction=north;flipV=0;flipH=1;" vertex="1" parent="1">
            <mxGeometry x="2357.5" y="15" width="30" height="45" as="geometry" />
          </mxCell>
        </UserObject>
        <mxCell id="C3EjMfT6K7pHPiDqoNdO-67" value="" style="endArrow=open;html=1;rounded=1;strokeWidth=2;startArrow=open;startFill=0;endFill=0;" edge="1" parent="1">
          <mxGeometry width="50" height="50" relative="1" as="geometry">
            <mxPoint x="2398" y="18.41333333333273" as="sourcePoint" />
            <mxPoint x="2398" y="57.57999999999993" as="targetPoint" />
          </mxGeometry>
        </mxCell>
        <UserObject label=" " lucidchartObjectId="0ZP0.2TleyX3" id="C3EjMfT6K7pHPiDqoNdO-68">
          <mxCell style="html=1;overflow=block;blockSpacing=1;whiteSpace=wrap;fontSize=16.7;fontColor=#333333;align=center;spacing=9;strokeColor=#5e5e5e;strokeOpacity=100;rounded=1;absoluteArcSize=1;arcSize=9;strokeWidth=2.3;direction=north;flipV=0;flipH=1;" vertex="1" parent="1">
            <mxGeometry x="2357.5" y="-29.5" width="30" height="45" as="geometry" />
          </mxCell>
        </UserObject>
        <mxCell id="C3EjMfT6K7pHPiDqoNdO-98" style="edgeStyle=orthogonalEdgeStyle;rounded=1;orthogonalLoop=1;jettySize=auto;html=1;exitX=0;exitY=0.5;exitDx=0;exitDy=0;entryX=0.5;entryY=0;entryDx=0;entryDy=0;strokeWidth=2;fontSize=12;startFill=1;endArrow=none;endFill=0;" edge="1" parent="1" source="C3EjMfT6K7pHPiDqoNdO-69" target="C3EjMfT6K7pHPiDqoNdO-19">
          <mxGeometry relative="1" as="geometry" />
        </mxCell>
        <UserObject label=" " lucidchartObjectId="0ZP0.2TleyX3" id="C3EjMfT6K7pHPiDqoNdO-69">
          <mxCell style="html=1;overflow=block;blockSpacing=1;whiteSpace=wrap;fontSize=16.7;fontColor=#333333;align=center;spacing=9;strokeColor=#5e5e5e;strokeOpacity=100;rounded=1;absoluteArcSize=1;arcSize=9;strokeWidth=2.3;direction=north;flipV=0;flipH=1;" vertex="1" parent="1">
            <mxGeometry x="2512" y="14.5" width="30" height="45" as="geometry" />
          </mxCell>
        </UserObject>
        <UserObject label=" " lucidchartObjectId="0ZP0.2TleyX3" id="C3EjMfT6K7pHPiDqoNdO-70">
          <mxCell style="html=1;overflow=block;blockSpacing=1;whiteSpace=wrap;fontSize=16.7;fontColor=#333333;align=center;spacing=9;strokeColor=#5e5e5e;strokeOpacity=100;rounded=1;absoluteArcSize=1;arcSize=9;strokeWidth=2.3;direction=north;flipV=0;flipH=1;" vertex="1" parent="1">
            <mxGeometry x="2512" y="-30.5" width="30" height="45" as="geometry" />
          </mxCell>
        </UserObject>
        <mxCell id="C3EjMfT6K7pHPiDqoNdO-71" value="" style="endArrow=open;html=1;rounded=1;strokeWidth=2;startArrow=open;startFill=0;endFill=0;" edge="1" parent="1">
          <mxGeometry width="50" height="50" relative="1" as="geometry">
            <mxPoint x="2552" y="17.41333333333273" as="sourcePoint" />
            <mxPoint x="2552" y="56.57999999999993" as="targetPoint" />
          </mxGeometry>
        </mxCell>
        <mxCell id="C3EjMfT6K7pHPiDqoNdO-99" style="edgeStyle=orthogonalEdgeStyle;rounded=1;orthogonalLoop=1;jettySize=auto;html=1;exitX=0;exitY=0.5;exitDx=0;exitDy=0;entryX=0.5;entryY=0;entryDx=0;entryDy=0;strokeWidth=2;fontSize=12;startFill=1;endArrow=none;endFill=0;" edge="1" parent="1" source="C3EjMfT6K7pHPiDqoNdO-72" target="C3EjMfT6K7pHPiDqoNdO-19">
          <mxGeometry relative="1" as="geometry" />
        </mxCell>
        <UserObject label=" " lucidchartObjectId="0ZP0.2TleyX3" id="C3EjMfT6K7pHPiDqoNdO-72">
          <mxCell style="html=1;overflow=block;blockSpacing=1;whiteSpace=wrap;fontSize=16.7;fontColor=#333333;align=center;spacing=9;strokeColor=#5e5e5e;strokeOpacity=100;rounded=1;absoluteArcSize=1;arcSize=9;strokeWidth=2.3;direction=north;flipV=0;flipH=1;" vertex="1" parent="1">
            <mxGeometry x="2591.5" y="14.5" width="30" height="45" as="geometry" />
          </mxCell>
        </UserObject>
        <UserObject label=" " lucidchartObjectId="0ZP0.2TleyX3" id="C3EjMfT6K7pHPiDqoNdO-73">
          <mxCell style="html=1;overflow=block;blockSpacing=1;whiteSpace=wrap;fontSize=16.7;fontColor=#333333;align=center;spacing=9;strokeColor=#5e5e5e;strokeOpacity=100;rounded=1;absoluteArcSize=1;arcSize=9;strokeWidth=2.3;direction=north;flipV=0;flipH=1;" vertex="1" parent="1">
            <mxGeometry x="2591.5" y="-30.5" width="30" height="45" as="geometry" />
          </mxCell>
        </UserObject>
        <mxCell id="C3EjMfT6K7pHPiDqoNdO-74" value="" style="endArrow=open;html=1;rounded=1;strokeWidth=2;startArrow=open;startFill=0;endFill=0;" edge="1" parent="1">
          <mxGeometry width="50" height="50" relative="1" as="geometry">
            <mxPoint x="2631.5" y="17.41333333333273" as="sourcePoint" />
            <mxPoint x="2631.5" y="56.57999999999993" as="targetPoint" />
          </mxGeometry>
        </mxCell>
        <mxCell id="C3EjMfT6K7pHPiDqoNdO-100" style="edgeStyle=orthogonalEdgeStyle;rounded=1;orthogonalLoop=1;jettySize=auto;html=1;exitX=0;exitY=0.5;exitDx=0;exitDy=0;entryX=0.5;entryY=0;entryDx=0;entryDy=0;strokeWidth=2;fontSize=12;startFill=1;endArrow=none;endFill=0;" edge="1" parent="1" source="C3EjMfT6K7pHPiDqoNdO-78" target="C3EjMfT6K7pHPiDqoNdO-19">
          <mxGeometry relative="1" as="geometry" />
        </mxCell>
        <UserObject label=" " lucidchartObjectId="0ZP0.2TleyX3" id="C3EjMfT6K7pHPiDqoNdO-78">
          <mxCell style="html=1;overflow=block;blockSpacing=1;whiteSpace=wrap;fontSize=16.7;fontColor=#333333;align=center;spacing=9;strokeColor=#5e5e5e;strokeOpacity=100;rounded=1;absoluteArcSize=1;arcSize=9;strokeWidth=2.3;direction=north;flipV=0;flipH=1;" vertex="1" parent="1">
            <mxGeometry x="2665.5" y="15" width="30" height="45" as="geometry" />
          </mxCell>
        </UserObject>
        <UserObject label=" " lucidchartObjectId="0ZP0.2TleyX3" id="C3EjMfT6K7pHPiDqoNdO-79">
          <mxCell style="html=1;overflow=block;blockSpacing=1;whiteSpace=wrap;fontSize=16.7;fontColor=#333333;align=center;spacing=9;strokeColor=#5e5e5e;strokeOpacity=100;rounded=1;absoluteArcSize=1;arcSize=9;strokeWidth=2.3;direction=north;flipV=0;flipH=1;" vertex="1" parent="1">
            <mxGeometry x="2665.5" y="-30" width="30" height="45" as="geometry" />
          </mxCell>
        </UserObject>
        <mxCell id="C3EjMfT6K7pHPiDqoNdO-80" value="" style="endArrow=open;html=1;rounded=1;strokeWidth=2;startArrow=open;startFill=0;endFill=0;" edge="1" parent="1">
          <mxGeometry width="50" height="50" relative="1" as="geometry">
            <mxPoint x="2705.5" y="17.913333333332503" as="sourcePoint" />
            <mxPoint x="2705.5" y="57.07999999999993" as="targetPoint" />
          </mxGeometry>
        </mxCell>
        <mxCell id="C3EjMfT6K7pHPiDqoNdO-101" style="edgeStyle=orthogonalEdgeStyle;rounded=1;orthogonalLoop=1;jettySize=auto;html=1;exitX=0;exitY=0.5;exitDx=0;exitDy=0;entryX=0.5;entryY=0;entryDx=0;entryDy=0;strokeWidth=2;fontSize=12;startFill=1;endArrow=none;endFill=0;" edge="1" parent="1" source="C3EjMfT6K7pHPiDqoNdO-81" target="C3EjMfT6K7pHPiDqoNdO-19">
          <mxGeometry relative="1" as="geometry" />
        </mxCell>
        <UserObject label=" " lucidchartObjectId="0ZP0.2TleyX3" id="C3EjMfT6K7pHPiDqoNdO-81">
          <mxCell style="html=1;overflow=block;blockSpacing=1;whiteSpace=wrap;fontSize=16.7;fontColor=#333333;align=center;spacing=9;strokeColor=#5e5e5e;strokeOpacity=100;rounded=1;absoluteArcSize=1;arcSize=9;strokeWidth=2.3;direction=north;flipV=0;flipH=1;" vertex="1" parent="1">
            <mxGeometry x="2741.5" y="14.5" width="30" height="45" as="geometry" />
          </mxCell>
        </UserObject>
        <mxCell id="C3EjMfT6K7pHPiDqoNdO-82" value="" style="endArrow=open;html=1;rounded=1;strokeWidth=2;startArrow=open;startFill=0;endFill=0;" edge="1" parent="1">
          <mxGeometry width="50" height="50" relative="1" as="geometry">
            <mxPoint x="2782" y="17.913333333332503" as="sourcePoint" />
            <mxPoint x="2782" y="57.07999999999993" as="targetPoint" />
          </mxGeometry>
        </mxCell>
        <UserObject label=" " lucidchartObjectId="0ZP0.2TleyX3" id="C3EjMfT6K7pHPiDqoNdO-83">
          <mxCell style="html=1;overflow=block;blockSpacing=1;whiteSpace=wrap;fontSize=16.7;fontColor=#333333;align=center;spacing=9;strokeColor=#5e5e5e;strokeOpacity=100;rounded=1;absoluteArcSize=1;arcSize=9;strokeWidth=2.3;direction=north;flipV=0;flipH=1;" vertex="1" parent="1">
            <mxGeometry x="2741.5" y="-30" width="30" height="45" as="geometry" />
          </mxCell>
        </UserObject>
        <UserObject label="&lt;div&gt;&lt;u&gt;&lt;b&gt;USER&lt;/b&gt;&lt;/u&gt;&lt;/div&gt;&lt;div&gt;&lt;span style=&quot;font-size: 12px;&quot;&gt;(id)&lt;br&gt;&lt;/span&gt;&lt;/div&gt;" lucidchartObjectId="lu~Z3BZPFLyL" id="C3EjMfT6K7pHPiDqoNdO-102">
          <mxCell style="html=1;overflow=block;blockSpacing=1;whiteSpace=wrap;rounded=1;arcSize=50;fontSize=16.7;fontColor=#333333;align=center;spacing=3.8;strokeColor=#5e5e5e;strokeOpacity=100;strokeWidth=2.3;" vertex="1" parent="1">
            <mxGeometry x="3240" y="194" width="120" height="60" as="geometry" />
          </mxCell>
        </UserObject>
        <mxCell id="C3EjMfT6K7pHPiDqoNdO-127" style="edgeStyle=orthogonalEdgeStyle;rounded=1;orthogonalLoop=1;jettySize=auto;html=1;exitX=0;exitY=0.5;exitDx=0;exitDy=0;entryX=0.5;entryY=0;entryDx=0;entryDy=0;strokeWidth=2;fontSize=12;startFill=1;endArrow=none;endFill=0;" edge="1" parent="1" source="C3EjMfT6K7pHPiDqoNdO-103" target="C3EjMfT6K7pHPiDqoNdO-102">
          <mxGeometry relative="1" as="geometry" />
        </mxCell>
        <UserObject label=" " lucidchartObjectId="0ZP0.2TleyX3" id="C3EjMfT6K7pHPiDqoNdO-103">
          <mxCell style="html=1;overflow=block;blockSpacing=1;whiteSpace=wrap;fontSize=16.7;fontColor=#333333;align=center;spacing=9;strokeColor=#5e5e5e;strokeOpacity=100;rounded=1;absoluteArcSize=1;arcSize=9;strokeWidth=2.3;direction=north;flipV=0;flipH=1;" vertex="1" parent="1">
            <mxGeometry x="3100.87" y="15.5" width="30" height="45" as="geometry" />
          </mxCell>
        </UserObject>
        <mxCell id="C3EjMfT6K7pHPiDqoNdO-122" style="edgeStyle=orthogonalEdgeStyle;rounded=1;orthogonalLoop=1;jettySize=auto;html=1;exitX=1;exitY=0.5;exitDx=0;exitDy=0;entryX=0.5;entryY=1;entryDx=0;entryDy=0;strokeWidth=2;fontSize=12;startFill=1;endArrow=none;endFill=0;" edge="1" parent="1" source="C3EjMfT6K7pHPiDqoNdO-104" target="uPJ5uowIPc4x0toajx6l-17">
          <mxGeometry relative="1" as="geometry" />
        </mxCell>
        <UserObject label=" " lucidchartObjectId="0ZP0.2TleyX3" id="C3EjMfT6K7pHPiDqoNdO-104">
          <mxCell style="html=1;overflow=block;blockSpacing=1;whiteSpace=wrap;fontSize=16.7;fontColor=#333333;align=center;spacing=9;strokeColor=#5e5e5e;strokeOpacity=100;rounded=1;absoluteArcSize=1;arcSize=9;strokeWidth=2.3;direction=north;flipV=0;flipH=1;" vertex="1" parent="1">
            <mxGeometry x="3100.87" y="-29.5" width="30" height="45" as="geometry" />
          </mxCell>
        </UserObject>
        <mxCell id="C3EjMfT6K7pHPiDqoNdO-105" value="" style="endArrow=open;html=1;rounded=1;strokeWidth=2;startArrow=open;startFill=0;endFill=0;" edge="1" parent="1">
          <mxGeometry width="50" height="50" relative="1" as="geometry">
            <mxPoint x="3140.87" y="18.413333333332957" as="sourcePoint" />
            <mxPoint x="3140.87" y="57.57999999999993" as="targetPoint" />
          </mxGeometry>
        </mxCell>
        <mxCell id="C3EjMfT6K7pHPiDqoNdO-126" style="edgeStyle=orthogonalEdgeStyle;rounded=1;orthogonalLoop=1;jettySize=auto;html=1;exitX=0;exitY=0.5;exitDx=0;exitDy=0;entryX=0.5;entryY=0;entryDx=0;entryDy=0;strokeWidth=2;fontSize=12;startFill=1;endArrow=none;endFill=0;" edge="1" parent="1" source="C3EjMfT6K7pHPiDqoNdO-106" target="C3EjMfT6K7pHPiDqoNdO-102">
          <mxGeometry relative="1" as="geometry" />
        </mxCell>
        <UserObject label=" " lucidchartObjectId="0ZP0.2TleyX3" id="C3EjMfT6K7pHPiDqoNdO-106">
          <mxCell style="html=1;overflow=block;blockSpacing=1;whiteSpace=wrap;fontSize=16.7;fontColor=#333333;align=center;spacing=9;strokeColor=#5e5e5e;strokeOpacity=100;rounded=1;absoluteArcSize=1;arcSize=9;strokeWidth=2.3;direction=north;flipV=0;flipH=1;" vertex="1" parent="1">
            <mxGeometry x="3175.37" y="15.5" width="30" height="45" as="geometry" />
          </mxCell>
        </UserObject>
        <mxCell id="C3EjMfT6K7pHPiDqoNdO-118" style="edgeStyle=orthogonalEdgeStyle;rounded=1;orthogonalLoop=1;jettySize=auto;html=1;exitX=1;exitY=0.5;exitDx=0;exitDy=0;entryX=0.5;entryY=1;entryDx=0;entryDy=0;strokeWidth=2;fontSize=12;startFill=1;endArrow=none;endFill=0;" edge="1" parent="1" source="C3EjMfT6K7pHPiDqoNdO-107" target="uPJ5uowIPc4x0toajx6l-12">
          <mxGeometry relative="1" as="geometry" />
        </mxCell>
        <UserObject label=" " lucidchartObjectId="0ZP0.2TleyX3" id="C3EjMfT6K7pHPiDqoNdO-107">
          <mxCell style="html=1;overflow=block;blockSpacing=1;whiteSpace=wrap;fontSize=16.7;fontColor=#333333;align=center;spacing=9;strokeColor=#5e5e5e;strokeOpacity=100;rounded=1;absoluteArcSize=1;arcSize=9;strokeWidth=2.3;direction=north;flipV=0;flipH=1;" vertex="1" parent="1">
            <mxGeometry x="3175.37" y="-29.5" width="30" height="45" as="geometry" />
          </mxCell>
        </UserObject>
        <mxCell id="C3EjMfT6K7pHPiDqoNdO-108" value="" style="endArrow=open;html=1;rounded=1;strokeWidth=2;startArrow=open;startFill=0;endFill=0;" edge="1" parent="1">
          <mxGeometry width="50" height="50" relative="1" as="geometry">
            <mxPoint x="3215.37" y="18.413333333332957" as="sourcePoint" />
            <mxPoint x="3215.37" y="57.57999999999993" as="targetPoint" />
          </mxGeometry>
        </mxCell>
        <mxCell id="C3EjMfT6K7pHPiDqoNdO-129" style="edgeStyle=orthogonalEdgeStyle;rounded=1;orthogonalLoop=1;jettySize=auto;html=1;exitX=0;exitY=0.5;exitDx=0;exitDy=0;strokeWidth=2;fontSize=12;startFill=1;endArrow=none;endFill=0;" edge="1" parent="1" source="C3EjMfT6K7pHPiDqoNdO-109" target="C3EjMfT6K7pHPiDqoNdO-102">
          <mxGeometry relative="1" as="geometry" />
        </mxCell>
        <UserObject label=" " lucidchartObjectId="0ZP0.2TleyX3" id="C3EjMfT6K7pHPiDqoNdO-109">
          <mxCell style="html=1;overflow=block;blockSpacing=1;whiteSpace=wrap;fontSize=16.7;fontColor=#333333;align=center;spacing=9;strokeColor=#5e5e5e;strokeOpacity=100;rounded=1;absoluteArcSize=1;arcSize=9;strokeWidth=2.3;direction=north;flipV=0;flipH=1;" vertex="1" parent="1">
            <mxGeometry x="3397.87" y="16" width="30" height="45" as="geometry" />
          </mxCell>
        </UserObject>
        <mxCell id="C3EjMfT6K7pHPiDqoNdO-121" style="edgeStyle=orthogonalEdgeStyle;rounded=1;orthogonalLoop=1;jettySize=auto;html=1;exitX=1;exitY=0.5;exitDx=0;exitDy=0;entryX=0.5;entryY=1;entryDx=0;entryDy=0;strokeWidth=2;fontSize=12;startFill=1;endArrow=none;endFill=0;" edge="1" parent="1" source="C3EjMfT6K7pHPiDqoNdO-110" target="uPJ5uowIPc4x0toajx6l-15">
          <mxGeometry relative="1" as="geometry" />
        </mxCell>
        <UserObject label=" " lucidchartObjectId="0ZP0.2TleyX3" id="C3EjMfT6K7pHPiDqoNdO-110">
          <mxCell style="html=1;overflow=block;blockSpacing=1;whiteSpace=wrap;fontSize=16.7;fontColor=#333333;align=center;spacing=9;strokeColor=#5e5e5e;strokeOpacity=100;rounded=1;absoluteArcSize=1;arcSize=9;strokeWidth=2.3;direction=north;flipV=0;flipH=1;" vertex="1" parent="1">
            <mxGeometry x="3397.87" y="-29" width="30" height="45" as="geometry" />
          </mxCell>
        </UserObject>
        <mxCell id="C3EjMfT6K7pHPiDqoNdO-111" value="" style="endArrow=open;html=1;rounded=1;strokeWidth=2;startArrow=open;startFill=0;endFill=0;" edge="1" parent="1">
          <mxGeometry width="50" height="50" relative="1" as="geometry">
            <mxPoint x="3437.87" y="18.913333333332957" as="sourcePoint" />
            <mxPoint x="3437.87" y="58.07999999999993" as="targetPoint" />
          </mxGeometry>
        </mxCell>
        <mxCell id="C3EjMfT6K7pHPiDqoNdO-125" style="edgeStyle=orthogonalEdgeStyle;rounded=1;orthogonalLoop=1;jettySize=auto;html=1;exitX=0;exitY=0.5;exitDx=0;exitDy=0;entryX=0.5;entryY=0;entryDx=0;entryDy=0;strokeWidth=2;fontSize=12;startFill=1;endArrow=none;endFill=0;" edge="1" parent="1" source="C3EjMfT6K7pHPiDqoNdO-112" target="C3EjMfT6K7pHPiDqoNdO-102">
          <mxGeometry relative="1" as="geometry" />
        </mxCell>
        <UserObject label=" " lucidchartObjectId="0ZP0.2TleyX3" id="C3EjMfT6K7pHPiDqoNdO-112">
          <mxCell style="html=1;overflow=block;blockSpacing=1;whiteSpace=wrap;fontSize=16.7;fontColor=#333333;align=center;spacing=9;strokeColor=#5e5e5e;strokeOpacity=100;rounded=1;absoluteArcSize=1;arcSize=9;strokeWidth=2.3;direction=north;flipV=0;flipH=1;" vertex="1" parent="1">
            <mxGeometry x="3247.37" y="16" width="30" height="45" as="geometry" />
          </mxCell>
        </UserObject>
        <mxCell id="C3EjMfT6K7pHPiDqoNdO-119" style="edgeStyle=orthogonalEdgeStyle;rounded=1;orthogonalLoop=1;jettySize=auto;html=1;exitX=1;exitY=0.5;exitDx=0;exitDy=0;entryX=0.5;entryY=1;entryDx=0;entryDy=0;strokeWidth=2;fontSize=12;startFill=1;endArrow=none;endFill=0;" edge="1" parent="1" source="C3EjMfT6K7pHPiDqoNdO-113" target="uPJ5uowIPc4x0toajx6l-16">
          <mxGeometry relative="1" as="geometry" />
        </mxCell>
        <UserObject label=" " lucidchartObjectId="0ZP0.2TleyX3" id="C3EjMfT6K7pHPiDqoNdO-113">
          <mxCell style="html=1;overflow=block;blockSpacing=1;whiteSpace=wrap;fontSize=16.7;fontColor=#333333;align=center;spacing=9;strokeColor=#5e5e5e;strokeOpacity=100;rounded=1;absoluteArcSize=1;arcSize=9;strokeWidth=2.3;direction=north;flipV=0;flipH=1;" vertex="1" parent="1">
            <mxGeometry x="3247.37" y="-29" width="30" height="45" as="geometry" />
          </mxCell>
        </UserObject>
        <mxCell id="C3EjMfT6K7pHPiDqoNdO-114" value="" style="endArrow=open;html=1;rounded=1;strokeWidth=2;startArrow=open;startFill=0;endFill=0;" edge="1" parent="1">
          <mxGeometry width="50" height="50" relative="1" as="geometry">
            <mxPoint x="3287.37" y="18.913333333332957" as="sourcePoint" />
            <mxPoint x="3287.37" y="58.07999999999993" as="targetPoint" />
          </mxGeometry>
        </mxCell>
        <mxCell id="C3EjMfT6K7pHPiDqoNdO-128" style="edgeStyle=orthogonalEdgeStyle;rounded=1;orthogonalLoop=1;jettySize=auto;html=1;exitX=0;exitY=0.5;exitDx=0;exitDy=0;strokeWidth=2;fontSize=12;startFill=1;endArrow=none;endFill=0;" edge="1" parent="1" source="C3EjMfT6K7pHPiDqoNdO-115" target="C3EjMfT6K7pHPiDqoNdO-102">
          <mxGeometry relative="1" as="geometry" />
        </mxCell>
        <UserObject label=" " lucidchartObjectId="0ZP0.2TleyX3" id="C3EjMfT6K7pHPiDqoNdO-115">
          <mxCell style="html=1;overflow=block;blockSpacing=1;whiteSpace=wrap;fontSize=16.7;fontColor=#333333;align=center;spacing=9;strokeColor=#5e5e5e;strokeOpacity=100;rounded=1;absoluteArcSize=1;arcSize=9;strokeWidth=2.3;direction=north;flipV=0;flipH=1;" vertex="1" parent="1">
            <mxGeometry x="3322.37" y="15.5" width="30" height="45" as="geometry" />
          </mxCell>
        </UserObject>
        <mxCell id="C3EjMfT6K7pHPiDqoNdO-116" value="" style="endArrow=open;html=1;rounded=1;strokeWidth=2;startArrow=open;startFill=0;endFill=0;" edge="1" parent="1">
          <mxGeometry width="50" height="50" relative="1" as="geometry">
            <mxPoint x="3362.87" y="18.913333333332957" as="sourcePoint" />
            <mxPoint x="3362.87" y="58.07999999999993" as="targetPoint" />
          </mxGeometry>
        </mxCell>
        <mxCell id="C3EjMfT6K7pHPiDqoNdO-120" style="edgeStyle=orthogonalEdgeStyle;rounded=1;orthogonalLoop=1;jettySize=auto;html=1;exitX=1;exitY=0.5;exitDx=0;exitDy=0;entryX=0.5;entryY=1;entryDx=0;entryDy=0;strokeWidth=2;fontSize=12;startFill=1;endArrow=none;endFill=0;" edge="1" parent="1" source="C3EjMfT6K7pHPiDqoNdO-117" target="uPJ5uowIPc4x0toajx6l-13">
          <mxGeometry relative="1" as="geometry" />
        </mxCell>
        <UserObject label=" " lucidchartObjectId="0ZP0.2TleyX3" id="C3EjMfT6K7pHPiDqoNdO-117">
          <mxCell style="html=1;overflow=block;blockSpacing=1;whiteSpace=wrap;fontSize=16.7;fontColor=#333333;align=center;spacing=9;strokeColor=#5e5e5e;strokeOpacity=100;rounded=1;absoluteArcSize=1;arcSize=9;strokeWidth=2.3;direction=north;flipV=0;flipH=1;" vertex="1" parent="1">
            <mxGeometry x="3322.37" y="-29" width="30" height="45" as="geometry" />
          </mxCell>
        </UserObject>
        <mxCell id="C3EjMfT6K7pHPiDqoNdO-123" value="" style="endArrow=open;html=1;rounded=1;strokeWidth=2;startArrow=open;startFill=0;endFill=0;" edge="1" parent="1">
          <mxGeometry width="50" height="50" relative="1" as="geometry">
            <mxPoint x="3215.369999999999" y="-26.586666666667043" as="sourcePoint" />
            <mxPoint x="3215.369999999999" y="12.579999999999927" as="targetPoint" />
          </mxGeometry>
        </mxCell>
        <mxCell id="C3EjMfT6K7pHPiDqoNdO-124" value="" style="endArrow=open;html=1;rounded=1;strokeWidth=2;startArrow=open;startFill=0;endFill=0;" edge="1" parent="1">
          <mxGeometry x="-0.6637" y="145" width="50" height="50" relative="1" as="geometry">
            <mxPoint x="3362.999999999999" y="-25.086666666667043" as="sourcePoint" />
            <mxPoint x="3362.999999999999" y="14.079999999999927" as="targetPoint" />
            <mxPoint as="offset" />
          </mxGeometry>
        </mxCell>
        <mxCell id="C3EjMfT6K7pHPiDqoNdO-143" style="edgeStyle=orthogonalEdgeStyle;rounded=1;orthogonalLoop=1;jettySize=auto;html=1;exitX=0;exitY=0.5;exitDx=0;exitDy=0;strokeWidth=2;fontSize=12;startFill=1;endArrow=none;endFill=0;" edge="1" parent="1" source="C3EjMfT6K7pHPiDqoNdO-139" target="C3EjMfT6K7pHPiDqoNdO-102">
          <mxGeometry relative="1" as="geometry" />
        </mxCell>
        <UserObject label=" " lucidchartObjectId="0ZP0.2TleyX3" id="C3EjMfT6K7pHPiDqoNdO-139">
          <mxCell style="html=1;overflow=block;blockSpacing=1;whiteSpace=wrap;fontSize=16.7;fontColor=#333333;align=center;spacing=9;strokeColor=#5e5e5e;strokeOpacity=100;rounded=1;absoluteArcSize=1;arcSize=9;strokeWidth=2.3;direction=north;flipV=0;flipH=1;" vertex="1" parent="1">
            <mxGeometry x="3472.42" y="16.5" width="30" height="45" as="geometry" />
          </mxCell>
        </UserObject>
        <mxCell id="C3EjMfT6K7pHPiDqoNdO-142" style="edgeStyle=orthogonalEdgeStyle;rounded=1;orthogonalLoop=1;jettySize=auto;html=1;exitX=1;exitY=0.5;exitDx=0;exitDy=0;entryX=0.5;entryY=1;entryDx=0;entryDy=0;strokeWidth=2;fontSize=12;startFill=1;endArrow=none;endFill=0;" edge="1" parent="1" source="C3EjMfT6K7pHPiDqoNdO-140" target="uPJ5uowIPc4x0toajx6l-14">
          <mxGeometry relative="1" as="geometry" />
        </mxCell>
        <UserObject label=" " lucidchartObjectId="0ZP0.2TleyX3" id="C3EjMfT6K7pHPiDqoNdO-140">
          <mxCell style="html=1;overflow=block;blockSpacing=1;whiteSpace=wrap;fontSize=16.7;fontColor=#333333;align=center;spacing=9;strokeColor=#5e5e5e;strokeOpacity=100;rounded=1;absoluteArcSize=1;arcSize=9;strokeWidth=2.3;direction=north;flipV=0;flipH=1;" vertex="1" parent="1">
            <mxGeometry x="3472.42" y="-28.5" width="30" height="45" as="geometry" />
          </mxCell>
        </UserObject>
        <mxCell id="C3EjMfT6K7pHPiDqoNdO-141" value="" style="endArrow=open;html=1;rounded=1;strokeWidth=2;startArrow=open;startFill=0;endFill=0;" edge="1" parent="1">
          <mxGeometry width="50" height="50" relative="1" as="geometry">
            <mxPoint x="3512.42" y="19.413333333332957" as="sourcePoint" />
            <mxPoint x="3512.42" y="58.57999999999993" as="targetPoint" />
          </mxGeometry>
        </mxCell>
        <mxCell id="C3EjMfT6K7pHPiDqoNdO-153" style="edgeStyle=orthogonalEdgeStyle;rounded=1;orthogonalLoop=1;jettySize=auto;html=1;exitX=1;exitY=0.5;exitDx=0;exitDy=0;entryX=0;entryY=0.5;entryDx=0;entryDy=0;strokeWidth=2;fontSize=12;startFill=1;endArrow=none;endFill=0;" edge="1" parent="1" source="C3EjMfT6K7pHPiDqoNdO-145" target="C3EjMfT6K7pHPiDqoNdO-150">
          <mxGeometry relative="1" as="geometry" />
        </mxCell>
        <UserObject label="&lt;div&gt;&lt;u&gt;&lt;b&gt;REPORT&lt;/b&gt;&lt;/u&gt;&lt;/div&gt;&lt;div&gt;&lt;span style=&quot;font-size: 12px;&quot;&gt;(id)&lt;/span&gt;&lt;u&gt;&lt;b&gt;&lt;/b&gt;&lt;/u&gt;&lt;/div&gt;" lucidchartObjectId="lu~Z3BZPFLyL" id="C3EjMfT6K7pHPiDqoNdO-145">
          <mxCell style="html=1;overflow=block;blockSpacing=1;whiteSpace=wrap;rounded=1;arcSize=50;fontSize=16.7;fontColor=#333333;align=center;spacing=3.8;strokeColor=#5e5e5e;strokeOpacity=100;strokeWidth=2.3;" vertex="1" parent="1">
            <mxGeometry x="3630" y="195" width="120" height="60" as="geometry" />
          </mxCell>
        </UserObject>
        <mxCell id="C3EjMfT6K7pHPiDqoNdO-146" value="" style="orthogonalLoop=1;jettySize=auto;html=1;exitX=0;exitY=0.5;exitDx=0;exitDy=0;entryX=1;entryY=0.5;entryDx=0;entryDy=0;rounded=1;edgeStyle=orthogonalEdgeStyle;endArrow=none;endFill=0;strokeWidth=2;startArrow=none;" edge="1" parent="1">
          <mxGeometry relative="1" as="geometry">
            <mxPoint x="3814.9999999999995" y="221" as="sourcePoint" />
            <mxPoint x="3814.9999999999995" y="221" as="targetPoint" />
            <Array as="points" />
          </mxGeometry>
        </mxCell>
        <mxCell id="C3EjMfT6K7pHPiDqoNdO-154" style="edgeStyle=orthogonalEdgeStyle;rounded=1;orthogonalLoop=1;jettySize=auto;html=1;exitX=1;exitY=0.5;exitDx=0;exitDy=0;entryX=0;entryY=0.5;entryDx=0;entryDy=0;strokeWidth=2;fontSize=12;startFill=1;endArrow=none;endFill=0;" edge="1" parent="1" source="C3EjMfT6K7pHPiDqoNdO-147" target="D0SpKXZhgsTwfj6XyVtu-14">
          <mxGeometry relative="1" as="geometry" />
        </mxCell>
        <UserObject label=" " lucidchartObjectId="0ZP0.2TleyX3" id="C3EjMfT6K7pHPiDqoNdO-147">
          <mxCell style="html=1;overflow=block;blockSpacing=1;whiteSpace=wrap;fontSize=16.7;fontColor=#333333;align=center;spacing=9;strokeColor=#5e5e5e;strokeOpacity=100;rounded=1;absoluteArcSize=1;arcSize=9;strokeWidth=2.3;" vertex="1" parent="1">
            <mxGeometry x="3825" y="210" width="45" height="30" as="geometry" />
          </mxCell>
        </UserObject>
        <mxCell id="C3EjMfT6K7pHPiDqoNdO-148" value="" style="endArrow=open;html=1;rounded=1;strokeWidth=2;startArrow=open;startFill=0;endFill=0;" edge="1" parent="1">
          <mxGeometry width="50" height="50" relative="1" as="geometry">
            <mxPoint x="3782.4999999999995" y="199.5" as="sourcePoint" />
            <mxPoint x="3822.4999999999995" y="199.5" as="targetPoint" />
          </mxGeometry>
        </mxCell>
        <mxCell id="C3EjMfT6K7pHPiDqoNdO-149" value="" style="orthogonalLoop=1;jettySize=auto;html=1;exitX=0;exitY=0.5;exitDx=0;exitDy=0;entryX=1;entryY=0.5;entryDx=0;entryDy=0;rounded=1;edgeStyle=orthogonalEdgeStyle;endArrow=none;endFill=0;strokeWidth=2;startArrow=none;" edge="1" parent="1">
          <mxGeometry relative="1" as="geometry">
            <mxPoint x="3814.9999999999995" y="228.5" as="sourcePoint" />
            <mxPoint x="3814.9999999999995" y="228.5" as="targetPoint" />
            <Array as="points" />
          </mxGeometry>
        </mxCell>
        <UserObject label=" " lucidchartObjectId="0ZP0.2TleyX3" id="C3EjMfT6K7pHPiDqoNdO-150">
          <mxCell style="html=1;overflow=block;blockSpacing=1;whiteSpace=wrap;fontSize=16.7;fontColor=#333333;align=center;spacing=9;strokeColor=#5e5e5e;strokeOpacity=100;rounded=1;absoluteArcSize=1;arcSize=9;strokeWidth=2.3;" vertex="1" parent="1">
            <mxGeometry x="3780" y="210" width="45" height="30" as="geometry" />
          </mxCell>
        </UserObject>
        <mxCell id="C3EjMfT6K7pHPiDqoNdO-151" value="" style="orthogonalLoop=1;jettySize=auto;html=1;exitX=0;exitY=0.5;exitDx=0;exitDy=0;entryX=1;entryY=0.5;entryDx=0;entryDy=0;rounded=1;edgeStyle=orthogonalEdgeStyle;endArrow=none;endFill=0;strokeWidth=2;startArrow=none;" edge="1" parent="1">
          <mxGeometry relative="1" as="geometry">
            <mxPoint x="3854.9999999999995" y="185" as="sourcePoint" />
            <mxPoint x="3854.9999999999995" y="185" as="targetPoint" />
            <Array as="points" />
          </mxGeometry>
        </mxCell>
        <mxCell id="C3EjMfT6K7pHPiDqoNdO-152" value="" style="orthogonalLoop=1;jettySize=auto;html=1;exitX=0;exitY=0.5;exitDx=0;exitDy=0;entryX=1;entryY=0.5;entryDx=0;entryDy=0;rounded=1;edgeStyle=orthogonalEdgeStyle;endArrow=none;endFill=0;strokeWidth=2;startArrow=none;" edge="1" parent="1">
          <mxGeometry relative="1" as="geometry">
            <mxPoint x="3854.9999999999995" y="185" as="sourcePoint" />
            <mxPoint x="3854.9999999999995" y="185" as="targetPoint" />
            <Array as="points" />
          </mxGeometry>
        </mxCell>
        <UserObject label="&lt;div&gt;&lt;u&gt;&lt;b&gt;CUSTOMS&lt;/b&gt;&lt;/u&gt;&lt;/div&gt;&lt;div&gt;&lt;span style=&quot;font-size: 12px;&quot;&gt;(userId)&lt;/span&gt;&lt;/div&gt;" lucidchartObjectId="lu~Z3BZPFLyL" id="C3EjMfT6K7pHPiDqoNdO-155">
          <mxCell style="html=1;overflow=block;blockSpacing=1;whiteSpace=wrap;rounded=1;arcSize=50;fontSize=16.7;fontColor=#333333;align=center;spacing=3.8;strokeColor=#5e5e5e;strokeOpacity=100;strokeWidth=2.3;" vertex="1" parent="1">
            <mxGeometry x="4130" y="206" width="120" height="60" as="geometry" />
          </mxCell>
        </UserObject>
        <UserObject label="&lt;div&gt;&lt;u&gt;&lt;b&gt;CUSTOMS&lt;/b&gt;&lt;/u&gt;&lt;/div&gt;&lt;div&gt;&lt;span style=&quot;font-size: 12px;&quot;&gt;(userId)&lt;/span&gt;&lt;/div&gt;" lucidchartObjectId="lu~Z3BZPFLyL" id="C3EjMfT6K7pHPiDqoNdO-156">
          <mxCell style="html=1;overflow=block;blockSpacing=1;whiteSpace=wrap;rounded=1;arcSize=50;fontSize=16.7;fontColor=#333333;align=center;spacing=3.8;strokeColor=#5e5e5e;strokeOpacity=100;strokeWidth=2.3;" vertex="1" parent="1">
            <mxGeometry x="-360" y="1370" width="120" height="60" as="geometry" />
          </mxCell>
        </UserObject>
        <UserObject label=" " lucidchartObjectId="0ZP0.2TleyX3" id="C3EjMfT6K7pHPiDqoNdO-157">
          <mxCell style="html=1;overflow=block;blockSpacing=1;whiteSpace=wrap;fontSize=16.7;fontColor=#333333;align=center;spacing=9;strokeColor=#5e5e5e;strokeOpacity=100;rounded=1;absoluteArcSize=1;arcSize=9;strokeWidth=2.3;direction=north;flipV=0;flipH=1;" vertex="1" parent="1">
            <mxGeometry x="-315.15" y="1476" width="30" height="24" as="geometry" />
          </mxCell>
        </UserObject>
        <mxCell id="C3EjMfT6K7pHPiDqoNdO-161" style="edgeStyle=orthogonalEdgeStyle;rounded=1;orthogonalLoop=1;jettySize=auto;html=1;exitX=1;exitY=0.5;exitDx=0;exitDy=0;entryX=0.5;entryY=1;entryDx=0;entryDy=0;strokeWidth=2;fontSize=12;startFill=1;endArrow=none;endFill=0;" edge="1" parent="1" source="C3EjMfT6K7pHPiDqoNdO-158" target="C3EjMfT6K7pHPiDqoNdO-156">
          <mxGeometry relative="1" as="geometry" />
        </mxCell>
        <UserObject label=" " lucidchartObjectId="0ZP0.2TleyX3" id="C3EjMfT6K7pHPiDqoNdO-158">
          <mxCell style="html=1;overflow=block;blockSpacing=1;whiteSpace=wrap;fontSize=16.7;fontColor=#333333;align=center;spacing=9;strokeColor=#5e5e5e;strokeOpacity=100;rounded=1;absoluteArcSize=1;arcSize=9;strokeWidth=2.3;direction=north;flipV=0;flipH=1;" vertex="1" parent="1">
            <mxGeometry x="-315.15" y="1450" width="30" height="26" as="geometry" />
          </mxCell>
        </UserObject>
        <mxCell id="C3EjMfT6K7pHPiDqoNdO-159" value="" style="endArrow=open;html=1;rounded=1;strokeWidth=2;startArrow=open;startFill=0;endFill=0;" edge="1" parent="1">
          <mxGeometry x="1" y="-258" width="50" height="50" relative="1" as="geometry">
            <mxPoint x="-277.65" y="1476" as="sourcePoint" />
            <mxPoint x="-277.65" y="1500" as="targetPoint" />
            <mxPoint x="208" y="253" as="offset" />
          </mxGeometry>
        </mxCell>
        <mxCell id="C3EjMfT6K7pHPiDqoNdO-162" value="" style="endArrow=none;html=1;rounded=1;strokeWidth=2;fontSize=12;exitX=1;exitY=0;exitDx=0;exitDy=0;entryX=0;entryY=0.5;entryDx=0;entryDy=0;" edge="1" parent="1" source="C3EjMfT6K7pHPiDqoNdO-201" target="C3EjMfT6K7pHPiDqoNdO-157">
          <mxGeometry width="50" height="50" relative="1" as="geometry">
            <mxPoint x="-584" y="1601" as="sourcePoint" />
            <mxPoint x="-351.5" y="1476" as="targetPoint" />
            <Array as="points">
              <mxPoint x="-310" y="1520" />
            </Array>
          </mxGeometry>
        </mxCell>
        <mxCell id="C3EjMfT6K7pHPiDqoNdO-195" style="edgeStyle=orthogonalEdgeStyle;rounded=1;orthogonalLoop=1;jettySize=auto;html=1;exitX=0;exitY=0.5;exitDx=0;exitDy=0;entryX=1;entryY=0.5;entryDx=0;entryDy=0;strokeWidth=2;fontSize=12;startFill=1;endArrow=none;endFill=0;" edge="1" parent="1" source="C3EjMfT6K7pHPiDqoNdO-163" target="C3EjMfT6K7pHPiDqoNdO-182">
          <mxGeometry relative="1" as="geometry" />
        </mxCell>
        <UserObject label="light_mode" lucidchartObjectId="lu~Z3BZPFLyL" id="C3EjMfT6K7pHPiDqoNdO-163">
          <mxCell style="html=1;overflow=block;blockSpacing=1;whiteSpace=wrap;rounded=1;arcSize=50;fontSize=16.7;fontColor=#333333;align=center;spacing=3.8;strokeColor=#5e5e5e;strokeOpacity=100;strokeWidth=2.3;dashed=1;dashPattern=1 1;shadow=1;" vertex="1" parent="1">
            <mxGeometry x="4450" y="150" width="120" height="60" as="geometry" />
          </mxCell>
        </UserObject>
        <UserObject label="tag_color" lucidchartObjectId="lu~Z3BZPFLyL" id="C3EjMfT6K7pHPiDqoNdO-164">
          <mxCell style="html=1;overflow=block;blockSpacing=1;whiteSpace=wrap;rounded=1;arcSize=50;fontSize=16.7;fontColor=#333333;align=center;spacing=3.8;strokeColor=#5e5e5e;strokeOpacity=100;strokeWidth=2.3;dashed=1;dashPattern=1 1;shadow=1;" vertex="1" parent="1">
            <mxGeometry x="4450" y="266" width="120" height="60" as="geometry" />
          </mxCell>
        </UserObject>
        <mxCell id="C3EjMfT6K7pHPiDqoNdO-181" value="" style="orthogonalLoop=1;jettySize=auto;html=1;exitX=0;exitY=0.5;exitDx=0;exitDy=0;entryX=1;entryY=0.5;entryDx=0;entryDy=0;rounded=1;edgeStyle=orthogonalEdgeStyle;endArrow=none;endFill=0;strokeWidth=2;startArrow=none;" edge="1" parent="1">
          <mxGeometry relative="1" as="geometry">
            <mxPoint x="4355" y="176" as="sourcePoint" />
            <mxPoint x="4355" y="176" as="targetPoint" />
            <Array as="points" />
          </mxGeometry>
        </mxCell>
        <UserObject label=" " lucidchartObjectId="0ZP0.2TleyX3" id="C3EjMfT6K7pHPiDqoNdO-182">
          <mxCell style="html=1;overflow=block;blockSpacing=1;whiteSpace=wrap;fontSize=16.7;fontColor=#333333;align=center;spacing=9;strokeColor=#5e5e5e;strokeOpacity=100;rounded=1;absoluteArcSize=1;arcSize=9;strokeWidth=2.3;" vertex="1" parent="1">
            <mxGeometry x="4365" y="165" width="45" height="30" as="geometry" />
          </mxCell>
        </UserObject>
        <mxCell id="C3EjMfT6K7pHPiDqoNdO-183" value="" style="endArrow=open;html=1;rounded=1;strokeWidth=2;startArrow=open;startFill=0;endFill=0;" edge="1" parent="1">
          <mxGeometry width="50" height="50" relative="1" as="geometry">
            <mxPoint x="4322.5" y="154.5" as="sourcePoint" />
            <mxPoint x="4362.5" y="154.5" as="targetPoint" />
          </mxGeometry>
        </mxCell>
        <mxCell id="C3EjMfT6K7pHPiDqoNdO-184" value="" style="orthogonalLoop=1;jettySize=auto;html=1;exitX=0;exitY=0.5;exitDx=0;exitDy=0;entryX=1;entryY=0.5;entryDx=0;entryDy=0;rounded=1;edgeStyle=orthogonalEdgeStyle;endArrow=none;endFill=0;strokeWidth=2;startArrow=none;" edge="1" parent="1">
          <mxGeometry relative="1" as="geometry">
            <mxPoint x="4355" y="183.5" as="sourcePoint" />
            <mxPoint x="4355" y="183.5" as="targetPoint" />
            <Array as="points" />
          </mxGeometry>
        </mxCell>
        <mxCell id="C3EjMfT6K7pHPiDqoNdO-198" style="edgeStyle=orthogonalEdgeStyle;rounded=1;orthogonalLoop=1;jettySize=auto;html=1;exitX=0;exitY=0.5;exitDx=0;exitDy=0;entryX=1;entryY=0.5;entryDx=0;entryDy=0;strokeWidth=2;fontSize=12;startFill=1;endArrow=none;endFill=0;" edge="1" parent="1" source="C3EjMfT6K7pHPiDqoNdO-185" target="C3EjMfT6K7pHPiDqoNdO-155">
          <mxGeometry relative="1" as="geometry" />
        </mxCell>
        <UserObject label=" " lucidchartObjectId="0ZP0.2TleyX3" id="C3EjMfT6K7pHPiDqoNdO-185">
          <mxCell style="html=1;overflow=block;blockSpacing=1;whiteSpace=wrap;fontSize=16.7;fontColor=#333333;align=center;spacing=9;strokeColor=#5e5e5e;strokeOpacity=100;rounded=1;absoluteArcSize=1;arcSize=9;strokeWidth=2.3;" vertex="1" parent="1">
            <mxGeometry x="4320" y="165" width="45" height="30" as="geometry" />
          </mxCell>
        </UserObject>
        <mxCell id="C3EjMfT6K7pHPiDqoNdO-186" value="" style="orthogonalLoop=1;jettySize=auto;html=1;exitX=0;exitY=0.5;exitDx=0;exitDy=0;entryX=1;entryY=0.5;entryDx=0;entryDy=0;rounded=1;edgeStyle=orthogonalEdgeStyle;endArrow=none;endFill=0;strokeWidth=2;startArrow=none;" edge="1" parent="1">
          <mxGeometry relative="1" as="geometry">
            <mxPoint x="4395" y="140" as="sourcePoint" />
            <mxPoint x="4395" y="140" as="targetPoint" />
            <Array as="points" />
          </mxGeometry>
        </mxCell>
        <mxCell id="C3EjMfT6K7pHPiDqoNdO-187" value="" style="orthogonalLoop=1;jettySize=auto;html=1;exitX=0;exitY=0.5;exitDx=0;exitDy=0;entryX=1;entryY=0.5;entryDx=0;entryDy=0;rounded=1;edgeStyle=orthogonalEdgeStyle;endArrow=none;endFill=0;strokeWidth=2;startArrow=none;" edge="1" parent="1">
          <mxGeometry relative="1" as="geometry">
            <mxPoint x="4395" y="140" as="sourcePoint" />
            <mxPoint x="4395" y="140" as="targetPoint" />
            <Array as="points" />
          </mxGeometry>
        </mxCell>
        <mxCell id="C3EjMfT6K7pHPiDqoNdO-188" value="" style="orthogonalLoop=1;jettySize=auto;html=1;exitX=0;exitY=0.5;exitDx=0;exitDy=0;entryX=1;entryY=0.5;entryDx=0;entryDy=0;rounded=1;edgeStyle=orthogonalEdgeStyle;endArrow=none;endFill=0;strokeWidth=2;startArrow=none;" edge="1" parent="1">
          <mxGeometry relative="1" as="geometry">
            <mxPoint x="4355" y="292" as="sourcePoint" />
            <mxPoint x="4355" y="292" as="targetPoint" />
            <Array as="points" />
          </mxGeometry>
        </mxCell>
        <mxCell id="C3EjMfT6K7pHPiDqoNdO-197" style="edgeStyle=orthogonalEdgeStyle;rounded=1;orthogonalLoop=1;jettySize=auto;html=1;exitX=1;exitY=0.5;exitDx=0;exitDy=0;entryX=0;entryY=0.5;entryDx=0;entryDy=0;strokeWidth=2;fontSize=12;startFill=1;endArrow=none;endFill=0;" edge="1" parent="1" source="C3EjMfT6K7pHPiDqoNdO-189" target="C3EjMfT6K7pHPiDqoNdO-164">
          <mxGeometry relative="1" as="geometry" />
        </mxCell>
        <UserObject label=" " lucidchartObjectId="0ZP0.2TleyX3" id="C3EjMfT6K7pHPiDqoNdO-189">
          <mxCell style="html=1;overflow=block;blockSpacing=1;whiteSpace=wrap;fontSize=16.7;fontColor=#333333;align=center;spacing=9;strokeColor=#5e5e5e;strokeOpacity=100;rounded=1;absoluteArcSize=1;arcSize=9;strokeWidth=2.3;" vertex="1" parent="1">
            <mxGeometry x="4365" y="281" width="45" height="30" as="geometry" />
          </mxCell>
        </UserObject>
        <mxCell id="C3EjMfT6K7pHPiDqoNdO-190" value="" style="endArrow=open;html=1;rounded=1;strokeWidth=2;startArrow=open;startFill=0;endFill=0;" edge="1" parent="1">
          <mxGeometry width="50" height="50" relative="1" as="geometry">
            <mxPoint x="4322.5" y="270.5" as="sourcePoint" />
            <mxPoint x="4362.5" y="270.5" as="targetPoint" />
          </mxGeometry>
        </mxCell>
        <mxCell id="C3EjMfT6K7pHPiDqoNdO-191" value="" style="orthogonalLoop=1;jettySize=auto;html=1;exitX=0;exitY=0.5;exitDx=0;exitDy=0;entryX=1;entryY=0.5;entryDx=0;entryDy=0;rounded=1;edgeStyle=orthogonalEdgeStyle;endArrow=none;endFill=0;strokeWidth=2;startArrow=none;" edge="1" parent="1">
          <mxGeometry relative="1" as="geometry">
            <mxPoint x="4355" y="299.5" as="sourcePoint" />
            <mxPoint x="4355" y="299.5" as="targetPoint" />
            <Array as="points" />
          </mxGeometry>
        </mxCell>
        <mxCell id="C3EjMfT6K7pHPiDqoNdO-199" style="edgeStyle=orthogonalEdgeStyle;rounded=1;orthogonalLoop=1;jettySize=auto;html=1;exitX=0;exitY=0.5;exitDx=0;exitDy=0;entryX=1;entryY=0.5;entryDx=0;entryDy=0;strokeWidth=2;fontSize=12;startFill=1;endArrow=none;endFill=0;" edge="1" parent="1" source="C3EjMfT6K7pHPiDqoNdO-192" target="C3EjMfT6K7pHPiDqoNdO-155">
          <mxGeometry relative="1" as="geometry" />
        </mxCell>
        <UserObject label=" " lucidchartObjectId="0ZP0.2TleyX3" id="C3EjMfT6K7pHPiDqoNdO-192">
          <mxCell style="html=1;overflow=block;blockSpacing=1;whiteSpace=wrap;fontSize=16.7;fontColor=#333333;align=center;spacing=9;strokeColor=#5e5e5e;strokeOpacity=100;rounded=1;absoluteArcSize=1;arcSize=9;strokeWidth=2.3;" vertex="1" parent="1">
            <mxGeometry x="4320" y="281" width="45" height="30" as="geometry" />
          </mxCell>
        </UserObject>
        <mxCell id="C3EjMfT6K7pHPiDqoNdO-193" value="" style="orthogonalLoop=1;jettySize=auto;html=1;exitX=0;exitY=0.5;exitDx=0;exitDy=0;entryX=1;entryY=0.5;entryDx=0;entryDy=0;rounded=1;edgeStyle=orthogonalEdgeStyle;endArrow=none;endFill=0;strokeWidth=2;startArrow=none;" edge="1" parent="1">
          <mxGeometry relative="1" as="geometry">
            <mxPoint x="4395" y="256" as="sourcePoint" />
            <mxPoint x="4395" y="256" as="targetPoint" />
            <Array as="points" />
          </mxGeometry>
        </mxCell>
        <mxCell id="C3EjMfT6K7pHPiDqoNdO-194" value="" style="orthogonalLoop=1;jettySize=auto;html=1;exitX=0;exitY=0.5;exitDx=0;exitDy=0;entryX=1;entryY=0.5;entryDx=0;entryDy=0;rounded=1;edgeStyle=orthogonalEdgeStyle;endArrow=none;endFill=0;strokeWidth=2;startArrow=none;" edge="1" parent="1">
          <mxGeometry relative="1" as="geometry">
            <mxPoint x="4395" y="256" as="sourcePoint" />
            <mxPoint x="4395" y="256" as="targetPoint" />
            <Array as="points" />
          </mxGeometry>
        </mxCell>
        <mxCell id="C3EjMfT6K7pHPiDqoNdO-201" value="" style="ellipse;whiteSpace=wrap;html=1;aspect=fixed;fillStyle=auto;fillColor=none;strokeWidth=2;" vertex="1" parent="1">
          <mxGeometry x="-330" y="1525" width="15" height="15" as="geometry" />
        </mxCell>
        <mxCell id="C3EjMfT6K7pHPiDqoNdO-206" style="edgeStyle=orthogonalEdgeStyle;rounded=1;orthogonalLoop=1;jettySize=auto;html=1;exitX=0;exitY=0.5;exitDx=0;exitDy=0;entryX=1;entryY=0.5;entryDx=0;entryDy=0;strokeWidth=2;fontSize=12;startFill=1;endArrow=none;endFill=0;" edge="1" parent="1" source="C3EjMfT6K7pHPiDqoNdO-202" target="D6gaMdaGB33uT7nynRI7-32">
          <mxGeometry relative="1" as="geometry" />
        </mxCell>
        <mxCell id="C3EjMfT6K7pHPiDqoNdO-202" value="" style="ellipse;whiteSpace=wrap;html=1;aspect=fixed;fillStyle=auto;fillColor=none;strokeWidth=2;" vertex="1" parent="1">
          <mxGeometry x="-75" y="1492.5" width="15" height="15" as="geometry" />
        </mxCell>
        <mxCell id="C3EjMfT6K7pHPiDqoNdO-205" style="edgeStyle=orthogonalEdgeStyle;rounded=1;orthogonalLoop=1;jettySize=auto;html=1;exitX=0;exitY=0.5;exitDx=0;exitDy=0;entryX=1;entryY=0.5;entryDx=0;entryDy=0;strokeWidth=2;fontSize=12;startFill=1;endArrow=none;endFill=0;" edge="1" parent="1" source="C3EjMfT6K7pHPiDqoNdO-204" target="D6gaMdaGB33uT7nynRI7-44">
          <mxGeometry relative="1" as="geometry" />
        </mxCell>
        <mxCell id="C3EjMfT6K7pHPiDqoNdO-204" value="" style="ellipse;whiteSpace=wrap;html=1;aspect=fixed;fillStyle=auto;fillColor=none;strokeWidth=2;" vertex="1" parent="1">
          <mxGeometry x="-75" y="1632.5" width="15" height="15" as="geometry" />
        </mxCell>
        <mxCell id="C3EjMfT6K7pHPiDqoNdO-207" value="" style="ellipse;whiteSpace=wrap;html=1;aspect=fixed;fillStyle=auto;fillColor=none;strokeWidth=2;" vertex="1" parent="1">
          <mxGeometry x="292.5" y="1525" width="15" height="15" as="geometry" />
        </mxCell>
        <mxCell id="C3EjMfT6K7pHPiDqoNdO-208" value="" style="ellipse;whiteSpace=wrap;html=1;aspect=fixed;fillStyle=auto;fillColor=none;strokeWidth=2;" vertex="1" parent="1">
          <mxGeometry x="292.5" y="1600" width="15" height="15" as="geometry" />
        </mxCell>
      </root>
    </mxGraphModel>
  </diagram>
  <diagram id="7uOEf6uwTISiSLd-Gxkk" name="Relationnel">
    <mxGraphModel dx="1185" dy="639" grid="1" gridSize="10" guides="1" tooltips="1" connect="1" arrows="1" fold="1" page="1" pageScale="1" pageWidth="827" pageHeight="1169" math="0" shadow="0">
      <root>
        <mxCell id="0" />
        <mxCell id="1" parent="0" />
        <mxCell id="WEGvMolBpWPQQSEmK5GF-15" style="edgeStyle=orthogonalEdgeStyle;rounded=1;orthogonalLoop=1;jettySize=auto;html=1;strokeWidth=2;endArrow=none;endFill=0;startArrow=classic;startFill=1;exitX=0.098;exitY=0.667;exitDx=0;exitDy=0;exitPerimeter=0;dashed=1;" parent="1" edge="1">
          <mxGeometry relative="1" as="geometry">
            <mxPoint x="1049.98" y="439.01" as="sourcePoint" />
            <mxPoint x="810" y="390" as="targetPoint" />
            <Array as="points">
              <mxPoint x="1050" y="420" />
              <mxPoint x="810" y="420" />
            </Array>
          </mxGeometry>
        </mxCell>
        <mxCell id="dpbvLRooNs_8Tx-II2Cw-1" value="&lt;font style=&quot;font-size: 16px;&quot;&gt;&lt;b&gt;USER(&lt;u&gt;id&lt;/u&gt;, username, email, phone, sharing, password, moderator, total_report, banned)&lt;br&gt;&lt;/b&gt;&lt;/font&gt;" style="text;html=1;align=center;verticalAlign=middle;resizable=0;points=[];autosize=1;strokeColor=none;fillColor=none;connectable=0;allowArrows=0;" parent="1" vertex="1">
          <mxGeometry x="910" y="430" width="690" height="30" as="geometry" />
        </mxCell>
        <mxCell id="dpbvLRooNs_8Tx-II2Cw-2" value="&lt;font style=&quot;font-size: 16px;&quot;&gt;&lt;b&gt;CUSTOM(&lt;u&gt;user&lt;/u&gt;, tag_color, light_mode)&lt;/b&gt;&lt;/font&gt;" style="text;html=1;align=center;verticalAlign=middle;resizable=0;points=[];autosize=1;strokeColor=none;fillColor=none;connectable=0;allowArrows=0;" parent="1" vertex="1">
          <mxGeometry x="710" y="360" width="310" height="30" as="geometry" />
        </mxCell>
        <mxCell id="WEGvMolBpWPQQSEmK5GF-1" value="&lt;div style=&quot;font-size: 16px;&quot;&gt;&lt;font style=&quot;font-size: 16px;&quot;&gt;&lt;b&gt;AD(&lt;/b&gt;&lt;u&gt;&lt;b&gt;id&lt;/b&gt;&lt;/u&gt;&lt;b&gt;, description, &lt;/b&gt;&lt;b&gt;&lt;u&gt;user&lt;/u&gt;, &lt;/b&gt;&lt;b&gt;title, city, price, rate, &lt;u&gt;reports_list&lt;/u&gt;, &lt;br&gt;&lt;/b&gt;&lt;/font&gt;&lt;/div&gt;&lt;div style=&quot;font-size: 16px;&quot;&gt;&lt;font style=&quot;font-size: 16px;&quot;&gt;&lt;b&gt;reports, comments, visibility, , images)&lt;/b&gt;&lt;/font&gt;&lt;/div&gt;" style="text;html=1;align=center;verticalAlign=middle;resizable=0;points=[];autosize=1;strokeColor=none;fillColor=none;connectable=0;allowArrows=0;" parent="1" vertex="1">
          <mxGeometry x="730" y="585" width="460" height="50" as="geometry" />
        </mxCell>
        <mxCell id="WEGvMolBpWPQQSEmK5GF-2" value="&lt;font style=&quot;font-size: 16px;&quot;&gt;&lt;b&gt;REPORT(&lt;u&gt;id&lt;/u&gt;, &lt;u&gt;userId&lt;/u&gt;, &lt;u&gt;adId&lt;/u&gt;,&lt;/b&gt;&lt;b&gt; &lt;u&gt;commentId&lt;/u&gt;,&lt;/b&gt;&lt;b&gt; content)&lt;/b&gt;&lt;/font&gt;" style="text;html=1;align=center;verticalAlign=middle;resizable=0;points=[];autosize=1;strokeColor=none;fillColor=none;connectable=0;allowArrows=0;" parent="1" vertex="1">
          <mxGeometry x="1020" y="710" width="370" height="30" as="geometry" />
        </mxCell>
        <mxCell id="WEGvMolBpWPQQSEmK5GF-3" value="&lt;div style=&quot;font-size: 16px;&quot;&gt;&lt;font style=&quot;font-size: 16px;&quot;&gt;&lt;b&gt;COMMENT(&lt;u&gt;id&lt;/u&gt;, content, &lt;u&gt;reports_list&lt;/u&gt;, reports, &lt;u&gt;user&lt;/u&gt;, &lt;br&gt;&lt;/b&gt;&lt;/font&gt;&lt;/div&gt;&lt;div style=&quot;font-size: 16px;&quot;&gt;&lt;font style=&quot;font-size: 16px;&quot;&gt;&lt;b&gt;&amp;nbsp;&amp;nbsp;&amp;nbsp;&amp;nbsp;&amp;nbsp;&amp;nbsp;&amp;nbsp;&amp;nbsp;&amp;nbsp;&amp;nbsp;&amp;nbsp;&amp;nbsp;&amp;nbsp;&amp;nbsp;&amp;nbsp;&amp;nbsp;&amp;nbsp;&amp;nbsp;&amp;nbsp;&amp;nbsp;&amp;nbsp;&amp;nbsp;&amp;nbsp;&amp;nbsp;&amp;nbsp;&amp;nbsp;&amp;nbsp;&amp;nbsp; visibility, disabled, &lt;u&gt;ad&lt;/u&gt;, &lt;u&gt;repAuthorId&lt;/u&gt;)&lt;/b&gt;&lt;/font&gt;&lt;/div&gt;" style="text;html=1;align=center;verticalAlign=middle;resizable=0;points=[];autosize=1;strokeColor=none;fillColor=none;connectable=0;allowArrows=0;" parent="1" vertex="1">
          <mxGeometry x="1290" y="585" width="420" height="50" as="geometry" />
        </mxCell>
        <mxCell id="WEGvMolBpWPQQSEmK5GF-17" style="edgeStyle=orthogonalEdgeStyle;rounded=1;orthogonalLoop=1;jettySize=auto;html=1;strokeWidth=2;endArrow=none;endFill=0;startArrow=none;startFill=0;dashed=1;" parent="1" edge="1">
          <mxGeometry relative="1" as="geometry">
            <mxPoint x="980" y="460" as="sourcePoint" />
            <mxPoint x="900" y="590" as="targetPoint" />
            <Array as="points">
              <mxPoint x="980" y="460" />
              <mxPoint x="980" y="485" />
              <mxPoint x="900" y="485" />
            </Array>
          </mxGeometry>
        </mxCell>
        <mxCell id="WEGvMolBpWPQQSEmK5GF-19" style="edgeStyle=orthogonalEdgeStyle;rounded=1;orthogonalLoop=1;jettySize=auto;html=1;strokeWidth=2;endArrow=none;endFill=0;startArrow=classic;startFill=1;dashed=1;" parent="1" edge="1">
          <mxGeometry relative="1" as="geometry">
            <mxPoint x="980" y="455" as="sourcePoint" />
            <mxPoint x="1670" y="590" as="targetPoint" />
            <Array as="points">
              <mxPoint x="980" y="485" />
              <mxPoint x="1670" y="485" />
              <mxPoint x="1670" y="590" />
            </Array>
          </mxGeometry>
        </mxCell>
        <mxCell id="WEGvMolBpWPQQSEmK5GF-20" style="edgeStyle=orthogonalEdgeStyle;rounded=1;orthogonalLoop=1;jettySize=auto;html=1;strokeWidth=2;endArrow=none;endFill=0;startArrow=classic;startFill=1;dashed=1;" parent="1" edge="1">
          <mxGeometry relative="1" as="geometry">
            <mxPoint x="1110" y="710" as="sourcePoint" />
            <mxPoint x="1130" y="590" as="targetPoint" />
            <Array as="points">
              <mxPoint x="1110" y="670" />
              <mxPoint x="1210" y="670" />
              <mxPoint x="1210" y="560" />
              <mxPoint x="1130" y="560" />
            </Array>
          </mxGeometry>
        </mxCell>
        <mxCell id="WEGvMolBpWPQQSEmK5GF-21" style="edgeStyle=orthogonalEdgeStyle;rounded=1;orthogonalLoop=1;jettySize=auto;html=1;strokeWidth=2;endArrow=none;endFill=0;startArrow=none;startFill=0;dashed=1;" parent="1" edge="1">
          <mxGeometry relative="1" as="geometry">
            <mxPoint x="1210" y="570" as="sourcePoint" />
            <mxPoint x="1530" y="595" as="targetPoint" />
            <Array as="points">
              <mxPoint x="1210" y="560" />
              <mxPoint x="1530" y="560" />
            </Array>
          </mxGeometry>
        </mxCell>
        <mxCell id="WEGvMolBpWPQQSEmK5GF-22" style="edgeStyle=orthogonalEdgeStyle;rounded=1;orthogonalLoop=1;jettySize=auto;html=1;strokeWidth=2;endArrow=none;endFill=0;startArrow=none;startFill=0;dashed=1;" parent="1" edge="1">
          <mxGeometry relative="1" as="geometry">
            <mxPoint x="920" y="485" as="sourcePoint" />
            <mxPoint x="1150" y="735" as="targetPoint" />
            <Array as="points">
              <mxPoint x="730" y="485" />
              <mxPoint x="730" y="765" />
              <mxPoint x="1150" y="765" />
            </Array>
          </mxGeometry>
        </mxCell>
        <mxCell id="WEGvMolBpWPQQSEmK5GF-23" style="edgeStyle=orthogonalEdgeStyle;rounded=1;orthogonalLoop=1;jettySize=auto;html=1;strokeWidth=2;endArrow=none;endFill=0;startArrow=classic;startFill=1;dashed=1;" parent="1" edge="1">
          <mxGeometry relative="1" as="geometry">
            <mxPoint x="780" y="610" as="sourcePoint" />
            <mxPoint x="1200" y="740" as="targetPoint" />
            <Array as="points">
              <mxPoint x="780" y="800" />
              <mxPoint x="1200" y="800" />
            </Array>
          </mxGeometry>
        </mxCell>
        <mxCell id="WEGvMolBpWPQQSEmK5GF-24" style="edgeStyle=orthogonalEdgeStyle;rounded=1;orthogonalLoop=1;jettySize=auto;html=1;strokeWidth=2;endArrow=none;endFill=0;startArrow=classic;startFill=1;dashed=1;" parent="1" edge="1">
          <mxGeometry relative="1" as="geometry">
            <mxPoint x="1410" y="610" as="sourcePoint" />
            <mxPoint x="1270" y="740" as="targetPoint" />
            <Array as="points">
              <mxPoint x="1410" y="780" />
              <mxPoint x="1270" y="780" />
            </Array>
          </mxGeometry>
        </mxCell>
        <mxCell id="WEGvMolBpWPQQSEmK5GF-25" style="edgeStyle=orthogonalEdgeStyle;rounded=1;orthogonalLoop=1;jettySize=auto;html=1;strokeWidth=2;endArrow=none;endFill=0;startArrow=none;startFill=0;dashed=1;" parent="1" edge="1">
          <mxGeometry relative="1" as="geometry">
            <mxPoint x="780" y="750" as="sourcePoint" />
            <mxPoint x="1585" y="630" as="targetPoint" />
            <Array as="points">
              <mxPoint x="780" y="800" />
              <mxPoint x="1585" y="800" />
            </Array>
          </mxGeometry>
        </mxCell>
        <mxCell id="WEGvMolBpWPQQSEmK5GF-26" style="edgeStyle=orthogonalEdgeStyle;rounded=1;orthogonalLoop=1;jettySize=auto;html=1;strokeWidth=2;endArrow=none;endFill=0;startArrow=none;startFill=0;dashed=1;" parent="1" edge="1">
          <mxGeometry relative="1" as="geometry">
            <mxPoint x="1630" y="485" as="sourcePoint" />
            <mxPoint x="1654" y="635" as="targetPoint" />
            <Array as="points">
              <mxPoint x="1720" y="485" />
              <mxPoint x="1720" y="650" />
              <mxPoint x="1654" y="650" />
            </Array>
          </mxGeometry>
        </mxCell>
        <mxCell id="WEGvMolBpWPQQSEmK5GF-27" value="" style="endArrow=classic;startArrow=classic;html=1;rounded=1;strokeWidth=2;fontSize=16;" parent="1" edge="1">
          <mxGeometry width="100" height="100" relative="1" as="geometry">
            <mxPoint x="1674" y="560" as="sourcePoint" />
            <mxPoint x="1714" y="560" as="targetPoint" />
          </mxGeometry>
        </mxCell>
        <mxCell id="WEGvMolBpWPQQSEmK5GF-29" value="&lt;span class=&quot;ILfuVd&quot; lang=&quot;en&quot;&gt;&lt;span class=&quot;hgKElc&quot;&gt;&lt;b&gt; ≠&lt;/b&gt;&lt;/span&gt;&lt;/span&gt;" style="text;html=1;align=center;verticalAlign=middle;resizable=0;points=[];autosize=1;strokeColor=none;fillColor=none;fontSize=16;" parent="1" vertex="1">
          <mxGeometry x="1679" y="533" width="30" height="30" as="geometry" />
        </mxCell>
        <mxCell id="WEGvMolBpWPQQSEmK5GF-30" value="" style="endArrow=classic;startArrow=classic;html=1;rounded=1;strokeWidth=2;fontSize=16;" parent="1" edge="1">
          <mxGeometry width="100" height="100" relative="1" as="geometry">
            <mxPoint x="1216" y="760" as="sourcePoint" />
            <mxPoint x="1256" y="760" as="targetPoint" />
          </mxGeometry>
        </mxCell>
        <mxCell id="WEGvMolBpWPQQSEmK5GF-31" value="&lt;b&gt;&lt;font style=&quot;font-size: 12px;&quot;&gt;&lt;i&gt;OR&lt;/i&gt;&lt;/font&gt;&lt;/b&gt;" style="text;html=1;align=center;verticalAlign=middle;resizable=0;points=[];autosize=1;strokeColor=none;fillColor=none;fontSize=16;" parent="1" vertex="1">
          <mxGeometry x="1215" y="731" width="40" height="30" as="geometry" />
        </mxCell>
        <mxCell id="WEGvMolBpWPQQSEmK5GF-32" style="edgeStyle=orthogonalEdgeStyle;rounded=1;orthogonalLoop=1;jettySize=auto;html=1;strokeWidth=2;endArrow=none;endFill=0;startArrow=classic;startFill=1;dashed=1;" parent="1" edge="1">
          <mxGeometry relative="1" as="geometry">
            <mxPoint x="2470" y="970" as="sourcePoint" />
            <mxPoint x="2750" y="930" as="targetPoint" />
            <Array as="points">
              <mxPoint x="2470" y="950" />
              <mxPoint x="2750" y="950" />
            </Array>
          </mxGeometry>
        </mxCell>
        <mxCell id="WEGvMolBpWPQQSEmK5GF-33" value="&lt;font style=&quot;font-size: 16px;&quot;&gt;&lt;b&gt;USER(&lt;u&gt;id&lt;/u&gt;, username, email, phone, sharing, password, moderator, total_report, banned)&lt;br&gt;&lt;/b&gt;&lt;/font&gt;" style="text;html=1;align=center;verticalAlign=middle;resizable=0;points=[];autosize=1;strokeColor=none;fillColor=none;connectable=0;allowArrows=0;" parent="1" vertex="1">
          <mxGeometry x="2400" y="970" width="690" height="30" as="geometry" />
        </mxCell>
        <mxCell id="WEGvMolBpWPQQSEmK5GF-34" value="&lt;font style=&quot;font-size: 16px;&quot;&gt;&lt;b&gt;CUSTOM(&lt;u&gt;user&lt;/u&gt;, tag_color, light_mode)&lt;/b&gt;&lt;/font&gt;" style="text;html=1;align=center;verticalAlign=middle;resizable=0;points=[];autosize=1;strokeColor=none;fillColor=none;connectable=0;allowArrows=0;" parent="1" vertex="1">
          <mxGeometry x="2640" y="900" width="310" height="30" as="geometry" />
        </mxCell>
        <mxCell id="WEGvMolBpWPQQSEmK5GF-35" value="&lt;div style=&quot;font-size: 16px;&quot;&gt;&lt;font style=&quot;font-size: 16px;&quot;&gt;&lt;b&gt;AD(&lt;/b&gt;&lt;b&gt;description, &lt;/b&gt;&lt;b&gt;&lt;u&gt;user&lt;/u&gt;, &lt;/b&gt;&lt;b&gt;title, city, price, rate, &lt;u&gt;reports_list&lt;/u&gt;, &lt;/b&gt;&lt;/font&gt;&lt;font style=&quot;font-size: 16px;&quot;&gt;&lt;u&gt;&lt;b&gt;id&lt;/b&gt;&lt;b&gt;,&lt;/b&gt;&lt;/u&gt;&lt;/font&gt;&lt;font style=&quot;font-size: 16px;&quot;&gt;&lt;b&gt; &lt;/b&gt;&lt;/font&gt;&lt;/div&gt;&lt;div style=&quot;font-size: 16px;&quot;&gt;&lt;font style=&quot;font-size: 16px;&quot;&gt;&lt;b&gt;reports, comments, visibility, , images)&lt;/b&gt;&lt;/font&gt;&lt;/div&gt;" style="text;html=1;align=center;verticalAlign=middle;resizable=0;points=[];autosize=1;strokeColor=none;fillColor=none;connectable=0;allowArrows=0;" parent="1" vertex="1">
          <mxGeometry x="2240" y="1250" width="460" height="50" as="geometry" />
        </mxCell>
        <mxCell id="WEGvMolBpWPQQSEmK5GF-36" value="&lt;font style=&quot;font-size: 16px;&quot;&gt;&lt;b&gt;REPORT(&lt;u&gt;id&lt;/u&gt;, &lt;u&gt;userId&lt;/u&gt;, &lt;u&gt;adId&lt;/u&gt;,&lt;/b&gt;&lt;b&gt; &lt;u&gt;commentId&lt;/u&gt;,&lt;/b&gt;&lt;b&gt; content)&lt;/b&gt;&lt;/font&gt;" style="text;html=1;align=center;verticalAlign=middle;resizable=0;points=[];autosize=1;strokeColor=none;fillColor=none;connectable=0;allowArrows=0;" parent="1" vertex="1">
          <mxGeometry x="2610" y="1080" width="370" height="30" as="geometry" />
        </mxCell>
        <mxCell id="WEGvMolBpWPQQSEmK5GF-37" value="&lt;div style=&quot;font-size: 16px;&quot;&gt;&lt;font style=&quot;font-size: 16px;&quot;&gt;&lt;b&gt;COMMENT(&lt;u&gt;id&lt;/u&gt;, content, &lt;/b&gt;&lt;/font&gt;&lt;font style=&quot;font-size: 16px;&quot;&gt;&lt;b&gt;&lt;u&gt;reports_list&lt;/u&gt;&lt;/b&gt;&lt;/font&gt;&lt;font style=&quot;font-size: 16px;&quot;&gt;&lt;b&gt;, reports, &lt;u&gt;user&lt;/u&gt;, &lt;br&gt;&lt;/b&gt;&lt;/font&gt;&lt;/div&gt;&lt;div style=&quot;font-size: 16px;&quot;&gt;&lt;font style=&quot;font-size: 16px;&quot;&gt;&lt;b&gt;&amp;nbsp;&amp;nbsp;&amp;nbsp;&amp;nbsp;&amp;nbsp;&amp;nbsp;&amp;nbsp;&amp;nbsp;&amp;nbsp;&amp;nbsp;&amp;nbsp;&amp;nbsp;&amp;nbsp;&amp;nbsp;&amp;nbsp;&amp;nbsp;&amp;nbsp;&amp;nbsp;&amp;nbsp;&amp;nbsp;&amp;nbsp;&amp;nbsp;&amp;nbsp;&amp;nbsp;&amp;nbsp;&amp;nbsp; visibility&amp;nbsp; &lt;/b&gt;&lt;/font&gt;&lt;font style=&quot;font-size: 16px;&quot;&gt;&lt;b&gt;, disabled, &lt;u&gt;ad&lt;/u&gt;, &lt;u&gt;repAuthorId&lt;/u&gt;)&lt;/b&gt;&lt;/font&gt;&lt;/div&gt;" style="text;html=1;align=center;verticalAlign=middle;resizable=0;points=[];autosize=1;strokeColor=none;fillColor=none;connectable=0;allowArrows=0;" parent="1" vertex="1">
          <mxGeometry x="2760" y="1250" width="420" height="50" as="geometry" />
        </mxCell>
        <mxCell id="WEGvMolBpWPQQSEmK5GF-38" style="edgeStyle=orthogonalEdgeStyle;rounded=1;orthogonalLoop=1;jettySize=auto;html=1;strokeWidth=2;endArrow=none;endFill=0;startArrow=none;startFill=0;dashed=1;" parent="1" edge="1">
          <mxGeometry relative="1" as="geometry">
            <mxPoint x="2470" y="1000" as="sourcePoint" />
            <mxPoint x="2410" y="1250" as="targetPoint" />
            <Array as="points">
              <mxPoint x="2470" y="1000" />
              <mxPoint x="2470" y="1025" />
              <mxPoint x="2390" y="1025" />
            </Array>
          </mxGeometry>
        </mxCell>
        <mxCell id="WEGvMolBpWPQQSEmK5GF-39" style="edgeStyle=orthogonalEdgeStyle;rounded=1;orthogonalLoop=1;jettySize=auto;html=1;strokeWidth=2;endArrow=none;endFill=0;startArrow=classic;startFill=1;dashed=1;" parent="1" edge="1">
          <mxGeometry relative="1" as="geometry">
            <mxPoint x="2470" y="1000" as="sourcePoint" />
            <mxPoint x="3140" y="1260" as="targetPoint" />
            <Array as="points">
              <mxPoint x="2470" y="1025" />
              <mxPoint x="3140" y="1025" />
            </Array>
          </mxGeometry>
        </mxCell>
        <mxCell id="WEGvMolBpWPQQSEmK5GF-40" style="edgeStyle=orthogonalEdgeStyle;rounded=1;orthogonalLoop=1;jettySize=auto;html=1;strokeWidth=2;endArrow=none;endFill=0;startArrow=classic;startFill=1;dashed=1;" parent="1" edge="1">
          <mxGeometry relative="1" as="geometry">
            <mxPoint x="2700" y="1110" as="sourcePoint" />
            <mxPoint x="2630" y="1250" as="targetPoint" />
            <Array as="points">
              <mxPoint x="2700" y="1150" />
              <mxPoint x="2630" y="1150" />
            </Array>
          </mxGeometry>
        </mxCell>
        <mxCell id="WEGvMolBpWPQQSEmK5GF-42" style="edgeStyle=orthogonalEdgeStyle;rounded=1;orthogonalLoop=1;jettySize=auto;html=1;strokeWidth=2;endArrow=none;endFill=0;startArrow=none;startFill=0;dashed=1;" parent="1" edge="1">
          <mxGeometry relative="1" as="geometry">
            <mxPoint x="2550" y="1025" as="sourcePoint" />
            <mxPoint x="2740" y="1080" as="targetPoint" />
            <Array as="points">
              <mxPoint x="2740" y="1025" />
            </Array>
          </mxGeometry>
        </mxCell>
        <mxCell id="WEGvMolBpWPQQSEmK5GF-44" style="edgeStyle=orthogonalEdgeStyle;rounded=1;orthogonalLoop=1;jettySize=auto;html=1;strokeWidth=2;endArrow=none;endFill=0;startArrow=classic;startFill=1;dashed=1;" parent="1" edge="1">
          <mxGeometry relative="1" as="geometry">
            <mxPoint x="2880" y="1250" as="sourcePoint" />
            <mxPoint x="2860" y="1110" as="targetPoint" />
            <Array as="points">
              <mxPoint x="2880" y="1130" />
              <mxPoint x="2860" y="1130" />
            </Array>
          </mxGeometry>
        </mxCell>
        <mxCell id="WEGvMolBpWPQQSEmK5GF-45" style="edgeStyle=orthogonalEdgeStyle;rounded=1;orthogonalLoop=1;jettySize=auto;html=1;strokeWidth=2;endArrow=none;endFill=0;startArrow=none;startFill=0;dashed=1;" parent="1" edge="1">
          <mxGeometry relative="1" as="geometry">
            <mxPoint x="2700" y="1120" as="sourcePoint" />
            <mxPoint x="3000" y="1250" as="targetPoint" />
            <Array as="points">
              <mxPoint x="2700" y="1180" />
              <mxPoint x="3000" y="1180" />
            </Array>
          </mxGeometry>
        </mxCell>
        <mxCell id="WEGvMolBpWPQQSEmK5GF-46" style="edgeStyle=orthogonalEdgeStyle;rounded=1;orthogonalLoop=1;jettySize=auto;html=1;strokeWidth=2;endArrow=none;endFill=0;startArrow=none;startFill=0;dashed=1;" parent="1" edge="1">
          <mxGeometry relative="1" as="geometry">
            <mxPoint x="3140" y="1200" as="sourcePoint" />
            <mxPoint x="3140" y="1300" as="targetPoint" />
            <Array as="points">
              <mxPoint x="3140" y="1230" />
              <mxPoint x="3190" y="1230" />
              <mxPoint x="3190" y="1320" />
              <mxPoint x="3140" y="1320" />
              <mxPoint x="3140" y="1300" />
            </Array>
          </mxGeometry>
        </mxCell>
        <mxCell id="WEGvMolBpWPQQSEmK5GF-49" value="" style="endArrow=classic;startArrow=classic;html=1;rounded=1;strokeWidth=2;fontSize=16;" parent="1" edge="1">
          <mxGeometry width="100" height="100" relative="1" as="geometry">
            <mxPoint x="2790" y="1580" as="sourcePoint" />
            <mxPoint x="2830" y="1580" as="targetPoint" />
          </mxGeometry>
        </mxCell>
        <mxCell id="WEGvMolBpWPQQSEmK5GF-50" value="&lt;font style=&quot;font-size: 12px;&quot;&gt;&lt;i&gt;OR&lt;/i&gt;&lt;/font&gt;" style="text;html=1;align=center;verticalAlign=middle;resizable=0;points=[];autosize=1;strokeColor=none;fillColor=none;fontSize=16;" parent="1" vertex="1">
          <mxGeometry x="2860" y="1550" width="40" height="30" as="geometry" />
        </mxCell>
        <mxCell id="WEGvMolBpWPQQSEmK5GF-51" style="edgeStyle=orthogonalEdgeStyle;rounded=1;orthogonalLoop=1;jettySize=auto;html=1;strokeWidth=2;endArrow=none;endFill=0;startArrow=classic;startFill=1;dashed=1;" parent="1" edge="1">
          <mxGeometry relative="1" as="geometry">
            <mxPoint x="2680" y="1250" as="sourcePoint" />
            <mxPoint x="2785" y="1110" as="targetPoint" />
            <Array as="points">
              <mxPoint x="2680" y="1210" />
              <mxPoint x="2785" y="1210" />
            </Array>
          </mxGeometry>
        </mxCell>
        <mxCell id="WEGvMolBpWPQQSEmK5GF-52" style="edgeStyle=orthogonalEdgeStyle;rounded=1;orthogonalLoop=1;jettySize=auto;html=1;strokeWidth=2;endArrow=none;endFill=0;startArrow=classic;startFill=1;dashed=1;" parent="1" edge="1">
          <mxGeometry relative="1" as="geometry">
            <mxPoint x="2680" y="1280" as="sourcePoint" />
            <mxPoint x="3060" y="1300" as="targetPoint" />
            <Array as="points">
              <mxPoint x="2680" y="1330" />
              <mxPoint x="3060" y="1330" />
            </Array>
          </mxGeometry>
        </mxCell>
        <mxCell id="WEGvMolBpWPQQSEmK5GF-53" style="edgeStyle=orthogonalEdgeStyle;rounded=1;orthogonalLoop=1;jettySize=auto;html=1;strokeWidth=3;endArrow=none;endFill=0;startArrow=classic;startFill=1;dashed=1;" parent="1" edge="1">
          <mxGeometry relative="1" as="geometry">
            <mxPoint x="1200" y="950" as="sourcePoint" />
            <mxPoint x="1030" y="910" as="targetPoint" />
            <Array as="points">
              <mxPoint x="1200" y="930" />
              <mxPoint x="1030" y="930" />
            </Array>
          </mxGeometry>
        </mxCell>
        <mxCell id="WEGvMolBpWPQQSEmK5GF-54" value="&lt;font style=&quot;font-size: 16px;&quot;&gt;&lt;b&gt;USER(&lt;u&gt;id&lt;/u&gt;, username, email, phone, sharing, password, moderator, total_report, banned)&lt;br&gt;&lt;/b&gt;&lt;/font&gt;" style="text;html=1;align=center;verticalAlign=middle;resizable=0;points=[];autosize=1;strokeColor=none;fillColor=none;connectable=0;allowArrows=0;" parent="1" vertex="1">
          <mxGeometry x="1130" y="945" width="690" height="30" as="geometry" />
        </mxCell>
        <mxCell id="WEGvMolBpWPQQSEmK5GF-55" value="&lt;font style=&quot;font-size: 16px;&quot;&gt;&lt;b&gt;CUSTOM(&lt;u&gt;user&lt;/u&gt;, tag_color, light_mode)&lt;/b&gt;&lt;/font&gt;" style="text;html=1;align=center;verticalAlign=middle;resizable=0;points=[];autosize=1;strokeColor=none;fillColor=none;connectable=0;allowArrows=0;" parent="1" vertex="1">
          <mxGeometry x="930" y="880" width="310" height="30" as="geometry" />
        </mxCell>
        <mxCell id="WEGvMolBpWPQQSEmK5GF-56" value="&lt;div style=&quot;font-size: 16px;&quot;&gt;&lt;font style=&quot;font-size: 16px;&quot;&gt;&lt;b&gt;AD(&lt;/b&gt;&lt;b&gt;id&lt;/b&gt;&lt;b&gt;, description, &lt;/b&gt;&lt;b&gt;&lt;u&gt;user&lt;/u&gt;, &lt;/b&gt;&lt;b&gt;title, city, price, rate, &lt;u&gt;reports_list&lt;/u&gt;, &lt;br&gt;&lt;/b&gt;&lt;/font&gt;&lt;/div&gt;&lt;div style=&quot;font-size: 16px;&quot;&gt;&lt;font style=&quot;font-size: 16px;&quot;&gt;&lt;b&gt;reports, comments, visibility, , images)&lt;/b&gt;&lt;/font&gt;&lt;/div&gt;" style="text;html=1;align=center;verticalAlign=middle;resizable=0;points=[];autosize=1;strokeColor=none;fillColor=none;connectable=0;allowArrows=0;" parent="1" vertex="1">
          <mxGeometry x="950" y="1105" width="460" height="50" as="geometry" />
        </mxCell>
        <mxCell id="WEGvMolBpWPQQSEmK5GF-57" value="&lt;font style=&quot;font-size: 16px;&quot;&gt;&lt;b&gt;REPORT(&lt;u&gt;id&lt;/u&gt;, &lt;u&gt;userId&lt;/u&gt;, &lt;u&gt;adId&lt;/u&gt;,&lt;/b&gt;&lt;b&gt; &lt;u&gt;commentId&lt;/u&gt;,&lt;/b&gt;&lt;b&gt; content)&lt;/b&gt;&lt;/font&gt;" style="text;html=1;align=center;verticalAlign=middle;resizable=0;points=[];autosize=1;strokeColor=none;fillColor=none;connectable=0;allowArrows=0;" parent="1" vertex="1">
          <mxGeometry x="1240" y="1230" width="370" height="30" as="geometry" />
        </mxCell>
        <mxCell id="WEGvMolBpWPQQSEmK5GF-58" value="&lt;div style=&quot;font-size: 16px;&quot;&gt;&lt;font style=&quot;font-size: 16px;&quot;&gt;&lt;b&gt;COMMENT(&lt;u&gt;id&lt;/u&gt;, content, &lt;u&gt;reports_list&lt;/u&gt;, reports, &lt;u&gt;user&lt;/u&gt;, &lt;br&gt;&lt;/b&gt;&lt;/font&gt;&lt;/div&gt;&lt;div style=&quot;font-size: 16px;&quot;&gt;&lt;font style=&quot;font-size: 16px;&quot;&gt;&lt;b&gt;&amp;nbsp;&amp;nbsp;&amp;nbsp;&amp;nbsp;&amp;nbsp;&amp;nbsp;&amp;nbsp;&amp;nbsp;&amp;nbsp;&amp;nbsp;&amp;nbsp;&amp;nbsp;&amp;nbsp;&amp;nbsp;&amp;nbsp;&amp;nbsp;&amp;nbsp;&amp;nbsp;&amp;nbsp;&amp;nbsp;&amp;nbsp;&amp;nbsp;&amp;nbsp;&amp;nbsp;&amp;nbsp;&amp;nbsp;&amp;nbsp;&amp;nbsp; visibility, disabled, &lt;u&gt;ad&lt;/u&gt;, &lt;u&gt;repAuthorId&lt;/u&gt;)&lt;/b&gt;&lt;/font&gt;&lt;/div&gt;" style="text;html=1;align=center;verticalAlign=middle;resizable=0;points=[];autosize=1;strokeColor=none;fillColor=none;connectable=0;allowArrows=0;" parent="1" vertex="1">
          <mxGeometry x="1510" y="1105" width="420" height="50" as="geometry" />
        </mxCell>
        <mxCell id="WEGvMolBpWPQQSEmK5GF-59" style="edgeStyle=orthogonalEdgeStyle;rounded=1;orthogonalLoop=1;jettySize=auto;html=1;strokeWidth=3;endArrow=none;endFill=0;startArrow=none;startFill=0;dashed=1;" parent="1" edge="1">
          <mxGeometry relative="1" as="geometry">
            <mxPoint x="1200" y="980" as="sourcePoint" />
            <mxPoint x="1120" y="1110" as="targetPoint" />
            <Array as="points">
              <mxPoint x="1200" y="980" />
              <mxPoint x="1200" y="1005" />
              <mxPoint x="1120" y="1005" />
            </Array>
          </mxGeometry>
        </mxCell>
        <mxCell id="WEGvMolBpWPQQSEmK5GF-60" style="edgeStyle=orthogonalEdgeStyle;rounded=1;orthogonalLoop=1;jettySize=auto;html=1;strokeWidth=3;endArrow=none;endFill=0;startArrow=classic;startFill=1;dashed=1;" parent="1" edge="1">
          <mxGeometry relative="1" as="geometry">
            <mxPoint x="1200" y="975" as="sourcePoint" />
            <mxPoint x="1890" y="1110" as="targetPoint" />
            <Array as="points">
              <mxPoint x="1200" y="1005" />
              <mxPoint x="1890" y="1005" />
              <mxPoint x="1890" y="1110" />
            </Array>
          </mxGeometry>
        </mxCell>
        <mxCell id="WEGvMolBpWPQQSEmK5GF-61" style="edgeStyle=orthogonalEdgeStyle;rounded=1;orthogonalLoop=1;jettySize=auto;html=1;strokeWidth=2;endArrow=none;endFill=0;startArrow=classic;startFill=1;dashed=1;strokeColor=#000000;dashPattern=1 1;" parent="1" edge="1">
          <mxGeometry relative="1" as="geometry">
            <mxPoint x="1330" y="1230" as="sourcePoint" />
            <mxPoint x="1350" y="1110" as="targetPoint" />
            <Array as="points">
              <mxPoint x="1330" y="1190" />
              <mxPoint x="1430" y="1190" />
              <mxPoint x="1430" y="1080" />
              <mxPoint x="1350" y="1080" />
            </Array>
          </mxGeometry>
        </mxCell>
        <mxCell id="WEGvMolBpWPQQSEmK5GF-62" style="edgeStyle=orthogonalEdgeStyle;rounded=1;orthogonalLoop=1;jettySize=auto;html=1;strokeWidth=2;endArrow=none;endFill=0;startArrow=none;startFill=0;dashed=1;strokeColor=#000000;dashPattern=1 1;" parent="1" edge="1">
          <mxGeometry relative="1" as="geometry">
            <mxPoint x="1430" y="1090" as="sourcePoint" />
            <mxPoint x="1750" y="1115" as="targetPoint" />
            <Array as="points">
              <mxPoint x="1430" y="1080" />
              <mxPoint x="1750" y="1080" />
            </Array>
          </mxGeometry>
        </mxCell>
        <mxCell id="WEGvMolBpWPQQSEmK5GF-63" style="edgeStyle=orthogonalEdgeStyle;rounded=1;orthogonalLoop=1;jettySize=auto;html=1;strokeWidth=3;endArrow=none;endFill=0;startArrow=none;startFill=0;dashed=1;" parent="1" edge="1">
          <mxGeometry relative="1" as="geometry">
            <mxPoint x="1130" y="1005" as="sourcePoint" />
            <mxPoint x="1370" y="1255" as="targetPoint" />
            <Array as="points">
              <mxPoint x="950" y="1005" />
              <mxPoint x="950" y="1285" />
              <mxPoint x="1370" y="1285" />
            </Array>
          </mxGeometry>
        </mxCell>
        <mxCell id="WEGvMolBpWPQQSEmK5GF-64" style="edgeStyle=orthogonalEdgeStyle;rounded=1;orthogonalLoop=1;jettySize=auto;html=1;strokeWidth=3;endArrow=none;endFill=0;startArrow=classic;startFill=1;dashed=1;dashPattern=1 1;" parent="1" edge="1">
          <mxGeometry relative="1" as="geometry">
            <mxPoint x="1000" y="1130" as="sourcePoint" />
            <mxPoint x="1420" y="1260" as="targetPoint" />
            <Array as="points">
              <mxPoint x="1000" y="1310" />
              <mxPoint x="1420" y="1310" />
            </Array>
          </mxGeometry>
        </mxCell>
        <mxCell id="WEGvMolBpWPQQSEmK5GF-65" style="edgeStyle=orthogonalEdgeStyle;rounded=1;orthogonalLoop=1;jettySize=auto;html=1;strokeWidth=3;endArrow=none;endFill=0;startArrow=classic;startFill=1;dashed=1;dashPattern=1 1;" parent="1" edge="1">
          <mxGeometry relative="1" as="geometry">
            <mxPoint x="1630" y="1130" as="sourcePoint" />
            <mxPoint x="1490" y="1260" as="targetPoint" />
            <Array as="points">
              <mxPoint x="1630" y="1300" />
              <mxPoint x="1490" y="1300" />
            </Array>
          </mxGeometry>
        </mxCell>
        <mxCell id="WEGvMolBpWPQQSEmK5GF-66" style="edgeStyle=orthogonalEdgeStyle;rounded=1;orthogonalLoop=1;jettySize=auto;html=1;strokeWidth=3;endArrow=none;endFill=0;startArrow=none;startFill=0;dashed=1;dashPattern=1 1;" parent="1" edge="1">
          <mxGeometry relative="1" as="geometry">
            <mxPoint x="1000" y="1300" as="sourcePoint" />
            <mxPoint x="1805" y="1150" as="targetPoint" />
            <Array as="points">
              <mxPoint x="1000" y="1330" />
              <mxPoint x="1805" y="1330" />
            </Array>
          </mxGeometry>
        </mxCell>
        <mxCell id="WEGvMolBpWPQQSEmK5GF-67" style="edgeStyle=orthogonalEdgeStyle;rounded=1;orthogonalLoop=1;jettySize=auto;html=1;strokeWidth=3;endArrow=none;endFill=0;startArrow=none;startFill=0;dashed=1;" parent="1" edge="1">
          <mxGeometry relative="1" as="geometry">
            <mxPoint x="1850" y="1005" as="sourcePoint" />
            <mxPoint x="1874" y="1155" as="targetPoint" />
            <Array as="points">
              <mxPoint x="1940" y="1005" />
              <mxPoint x="1940" y="1170" />
              <mxPoint x="1874" y="1170" />
            </Array>
          </mxGeometry>
        </mxCell>
        <mxCell id="WEGvMolBpWPQQSEmK5GF-68" value="" style="endArrow=classic;startArrow=classic;html=1;rounded=1;strokeWidth=2;fontSize=16;" parent="1" edge="1">
          <mxGeometry width="100" height="100" relative="1" as="geometry">
            <mxPoint x="1894" y="1080" as="sourcePoint" />
            <mxPoint x="1934" y="1080" as="targetPoint" />
          </mxGeometry>
        </mxCell>
        <mxCell id="WEGvMolBpWPQQSEmK5GF-69" value="&lt;span class=&quot;ILfuVd&quot; lang=&quot;en&quot;&gt;&lt;span class=&quot;hgKElc&quot;&gt;&lt;b&gt; ≠&lt;/b&gt;&lt;/span&gt;&lt;/span&gt;" style="text;html=1;align=center;verticalAlign=middle;resizable=0;points=[];autosize=1;strokeColor=none;fillColor=none;fontSize=16;" parent="1" vertex="1">
          <mxGeometry x="1899" y="1053" width="30" height="30" as="geometry" />
        </mxCell>
        <mxCell id="WEGvMolBpWPQQSEmK5GF-70" value="" style="endArrow=classic;startArrow=classic;html=1;rounded=1;strokeWidth=2;fontSize=16;" parent="1" edge="1">
          <mxGeometry width="100" height="100" relative="1" as="geometry">
            <mxPoint x="1436" y="1280" as="sourcePoint" />
            <mxPoint x="1476" y="1280" as="targetPoint" />
          </mxGeometry>
        </mxCell>
        <mxCell id="WEGvMolBpWPQQSEmK5GF-71" value="&lt;b&gt;&lt;font style=&quot;font-size: 12px;&quot;&gt;&lt;i&gt;OR&lt;/i&gt;&lt;/font&gt;&lt;/b&gt;" style="text;html=1;align=center;verticalAlign=middle;resizable=0;points=[];autosize=1;strokeColor=none;fillColor=none;fontSize=16;" parent="1" vertex="1">
          <mxGeometry x="1435" y="1251" width="40" height="30" as="geometry" />
        </mxCell>
      </root>
    </mxGraphModel>
  </diagram>
</mxfile>
